<?xml version="1.0" encoding="UTF-8" standalone="no"?><svg xmlns="http://www.w3.org/2000/svg" xmlns:xlink="http://www.w3.org/1999/xlink" contentScriptType="application/ecmascript" contentStyleType="text/css" height="2115px" preserveAspectRatio="none" style="width:5193px;height:2115px;" version="1.1" viewBox="0 0 5193 2115" width="5193px" zoomAndPan="magnify"><defs><filter height="300%" id="f13tur799gzr45" width="300%" x="-1" y="-1"><feGaussianBlur result="blurOut" stdDeviation="6.0"/><feColorMatrix in="blurOut" result="blurOut2" type="matrix" values="0 0 0 0 0 0 0 0 0 0 0 0 0 0 0 0 0 0 .4 0"/><feOffset dx="12.0" dy="12.0" in="blurOut2" result="blurOut3"/><feBlend in="SourceGraphic" in2="blurOut3" mode="normal"/></filter></defs><g><!--class RequestProcessor--><rect fill="#FEFECE" filter="url(#f13tur799gzr45)" height="220.8281" id="RequestProcessor" style="stroke: #A80036; stroke-width: 4.5;" width="741" x="1307.25" y="246"/><ellipse cx="1492.5" cy="294" fill="#ADD1B2" rx="33" ry="33" style="stroke: #A80036; stroke-width: 3.0;"/><path d="M1501.4063,310.9219 Q1499.6719,311.8125 1497.75,312.2578 Q1495.8281,312.7031 1493.7188,312.7031 Q1486.2188,312.7031 1482.2578,307.7578 Q1478.2969,302.8125 1478.2969,293.4375 Q1478.2969,284.0625 1482.2578,279.0938 Q1486.2188,274.125 1493.7188,274.125 Q1495.8281,274.125 1497.7734,274.5938 Q1499.7188,275.0625 1501.4063,275.9531 L1501.4063,284.1094 Q1499.5313,282.375 1497.75,281.5547 Q1495.9688,280.7344 1494.0938,280.7344 Q1490.0625,280.7344 1488,283.9453 Q1485.9375,287.1563 1485.9375,293.4375 Q1485.9375,299.7188 1488,302.9297 Q1490.0625,306.1406 1494.0938,306.1406 Q1495.9688,306.1406 1497.75,305.3203 Q1499.5313,304.5 1501.4063,302.7656 L1501.4063,310.9219 Z "/><text fill="#000000" font-family="sans-serif" font-size="36" lengthAdjust="spacingAndGlyphs" textLength="345" x="1554" y="306.4629">RequestProcessor</text><line style="stroke: #A80036; stroke-width: 4.5;" x1="1310.25" x2="2045.25" y1="342" y2="342"/><rect fill="none" height="18" style="stroke: #C82930; stroke-width: 3.0;" width="18" x="1331.25" y="368.707"/><text fill="#000000" font-family="sans-serif" font-size="33" lengthAdjust="spacingAndGlyphs" textLength="306" x="1367.25" y="384.6313">Executor executor</text><line style="stroke: #A80036; stroke-width: 3.0;" x1="1310.25" x2="2045.25" y1="404.4141" y2="404.4141"/><ellipse cx="1340.25" cy="440.1211" fill="#84BE84" rx="9" ry="9" style="stroke: #038048; stroke-width: 3.0;"/><text fill="#000000" font-family="sans-serif" font-size="33" lengthAdjust="spacingAndGlyphs" textLength="663" x="1367.25" y="447.0454">void processRequest(Request request)</text><!--class Executor--><rect fill="#FEFECE" filter="url(#f13tur799gzr45)" height="182.4141" id="Executor" style="stroke: #A80036; stroke-width: 4.5;" width="951" x="2153.25" y="265.5"/><ellipse cx="2533.5" cy="313.5" fill="#ADD1B2" rx="33" ry="33" style="stroke: #A80036; stroke-width: 3.0;"/><path d="M2542.4063,330.4219 Q2540.6719,331.3125 2538.75,331.7578 Q2536.8281,332.2031 2534.7188,332.2031 Q2527.2188,332.2031 2523.2578,327.2578 Q2519.2969,322.3125 2519.2969,312.9375 Q2519.2969,303.5625 2523.2578,298.5938 Q2527.2188,293.625 2534.7188,293.625 Q2536.8281,293.625 2538.7734,294.0938 Q2540.7188,294.5625 2542.4063,295.4531 L2542.4063,303.6094 Q2540.5313,301.875 2538.75,301.0547 Q2536.9688,300.2344 2535.0938,300.2344 Q2531.0625,300.2344 2529,303.4453 Q2526.9375,306.6563 2526.9375,312.9375 Q2526.9375,319.2188 2529,322.4297 Q2531.0625,325.6406 2535.0938,325.6406 Q2536.9688,325.6406 2538.75,324.8203 Q2540.5313,324 2542.4063,322.2656 L2542.4063,330.4219 Z "/><text fill="#000000" font-family="sans-serif" font-size="36" lengthAdjust="spacingAndGlyphs" textLength="165" x="2595" y="325.9629">Executor</text><line style="stroke: #A80036; stroke-width: 4.5;" x1="2156.25" x2="3101.25" y1="361.5" y2="361.5"/><line style="stroke: #A80036; stroke-width: 4.5;" x1="2156.25" x2="3101.25" y1="385.5" y2="385.5"/><ellipse cx="2186.25" cy="421.207" fill="#84BE84" rx="9" ry="9" style="stroke: #038048; stroke-width: 3.0;"/><text fill="#000000" font-family="sans-serif" font-size="33" lengthAdjust="spacingAndGlyphs" textLength="873" x="2213.25" y="428.1313">void addToQueue(long delay, Command command)</text><!--class Command--><rect fill="#FEFECE" filter="url(#f13tur799gzr45)" height="182.4141" id="Command" style="stroke: #A80036; stroke-width: 4.5;" width="315" x="3209.25" y="265.5"/><ellipse cx="3269.1" cy="313.5" fill="#B4A7E5" rx="33" ry="33" style="stroke: #A80036; stroke-width: 3.0;"/><path d="M3256.8656,300.7969 L3256.8656,294.3281 L3279.0375,294.3281 L3279.0375,300.7969 L3271.6313,300.7969 L3271.6313,325.0313 L3279.0375,325.0313 L3279.0375,331.5 L3256.8656,331.5 L3256.8656,325.0313 L3264.2719,325.0313 L3264.2719,300.7969 L3256.8656,300.7969 Z "/><text fill="#000000" font-family="sans-serif" font-size="36" font-style="italic" lengthAdjust="spacingAndGlyphs" textLength="186" x="3314.4" y="325.9629">Command</text><line style="stroke: #A80036; stroke-width: 4.5;" x1="3212.25" x2="3521.25" y1="361.5" y2="361.5"/><line style="stroke: #A80036; stroke-width: 4.5;" x1="3212.25" x2="3521.25" y1="385.5" y2="385.5"/><ellipse cx="3242.25" cy="421.207" fill="#84BE84" rx="9" ry="9" style="stroke: #038048; stroke-width: 3.0;"/><text fill="#000000" font-family="sans-serif" font-size="33" lengthAdjust="spacingAndGlyphs" textLength="237" x="3269.25" y="428.1313">void execute()</text><!--class CreateUser--><rect fill="#FEFECE" filter="url(#f13tur799gzr45)" height="144" id="CreateUser" style="stroke: #A80036; stroke-width: 4.5;" width="309" x="2663.25" y="1230"/><ellipse cx="2708.25" cy="1278" fill="#ADD1B2" rx="33" ry="33" style="stroke: #A80036; stroke-width: 3.0;"/><path d="M2717.1563,1294.9219 Q2715.4219,1295.8125 2713.5,1296.2578 Q2711.5781,1296.7031 2709.4688,1296.7031 Q2701.9688,1296.7031 2698.0078,1291.7578 Q2694.0469,1286.8125 2694.0469,1277.4375 Q2694.0469,1268.0625 2698.0078,1263.0938 Q2701.9688,1258.125 2709.4688,1258.125 Q2711.5781,1258.125 2713.5234,1258.5938 Q2715.4688,1259.0625 2717.1563,1259.9531 L2717.1563,1268.1094 Q2715.2813,1266.375 2713.5,1265.5547 Q2711.7188,1264.7344 2709.8438,1264.7344 Q2705.8125,1264.7344 2703.75,1267.9453 Q2701.6875,1271.1563 2701.6875,1277.4375 Q2701.6875,1283.7188 2703.75,1286.9297 Q2705.8125,1290.1406 2709.8438,1290.1406 Q2711.7188,1290.1406 2713.5,1289.3203 Q2715.2813,1288.5 2717.1563,1286.7656 L2717.1563,1294.9219 Z "/><text fill="#000000" font-family="sans-serif" font-size="36" lengthAdjust="spacingAndGlyphs" textLength="213" x="2750.25" y="1290.4629">CreateUser</text><line style="stroke: #A80036; stroke-width: 4.5;" x1="2666.25" x2="2969.25" y1="1326" y2="1326"/><line style="stroke: #A80036; stroke-width: 4.5;" x1="2666.25" x2="2969.25" y1="1350" y2="1350"/><!--class RetrieveUser--><rect fill="#FEFECE" filter="url(#f13tur799gzr45)" height="144" id="RetrieveUser" style="stroke: #A80036; stroke-width: 4.5;" width="336" x="4471.5" y="285"/><ellipse cx="4516.5" cy="333" fill="#ADD1B2" rx="33" ry="33" style="stroke: #A80036; stroke-width: 3.0;"/><path d="M4525.4063,349.9219 Q4523.6719,350.8125 4521.75,351.2578 Q4519.8281,351.7031 4517.7188,351.7031 Q4510.2188,351.7031 4506.2578,346.7578 Q4502.2969,341.8125 4502.2969,332.4375 Q4502.2969,323.0625 4506.2578,318.0938 Q4510.2188,313.125 4517.7188,313.125 Q4519.8281,313.125 4521.7734,313.5938 Q4523.7188,314.0625 4525.4063,314.9531 L4525.4063,323.1094 Q4523.5313,321.375 4521.75,320.5547 Q4519.9688,319.7344 4518.0938,319.7344 Q4514.0625,319.7344 4512,322.9453 Q4509.9375,326.1563 4509.9375,332.4375 Q4509.9375,338.7188 4512,341.9297 Q4514.0625,345.1406 4518.0938,345.1406 Q4519.9688,345.1406 4521.75,344.3203 Q4523.5313,343.5 4525.4063,341.7656 L4525.4063,349.9219 Z "/><text fill="#000000" font-family="sans-serif" font-size="36" lengthAdjust="spacingAndGlyphs" textLength="240" x="4558.5" y="345.4629">RetrieveUser</text><line style="stroke: #A80036; stroke-width: 4.5;" x1="4474.5" x2="4804.5" y1="381" y2="381"/><line style="stroke: #A80036; stroke-width: 4.5;" x1="4474.5" x2="4804.5" y1="405" y2="405"/><!--class UpdateUser--><rect fill="#FEFECE" filter="url(#f13tur799gzr45)" height="144" id="UpdateUser" style="stroke: #A80036; stroke-width: 4.5;" width="321" x="3326.25" y="1578"/><ellipse cx="3371.25" cy="1626" fill="#ADD1B2" rx="33" ry="33" style="stroke: #A80036; stroke-width: 3.0;"/><path d="M3380.1563,1642.9219 Q3378.4219,1643.8125 3376.5,1644.2578 Q3374.5781,1644.7031 3372.4688,1644.7031 Q3364.9688,1644.7031 3361.0078,1639.7578 Q3357.0469,1634.8125 3357.0469,1625.4375 Q3357.0469,1616.0625 3361.0078,1611.0938 Q3364.9688,1606.125 3372.4688,1606.125 Q3374.5781,1606.125 3376.5234,1606.5938 Q3378.4688,1607.0625 3380.1563,1607.9531 L3380.1563,1616.1094 Q3378.2813,1614.375 3376.5,1613.5547 Q3374.7188,1612.7344 3372.8438,1612.7344 Q3368.8125,1612.7344 3366.75,1615.9453 Q3364.6875,1619.1563 3364.6875,1625.4375 Q3364.6875,1631.7188 3366.75,1634.9297 Q3368.8125,1638.1406 3372.8438,1638.1406 Q3374.7188,1638.1406 3376.5,1637.3203 Q3378.2813,1636.5 3380.1563,1634.7656 L3380.1563,1642.9219 Z "/><text fill="#000000" font-family="sans-serif" font-size="36" lengthAdjust="spacingAndGlyphs" textLength="225" x="3413.25" y="1638.4629">UpdateUser</text><line style="stroke: #A80036; stroke-width: 4.5;" x1="3329.25" x2="3644.25" y1="1674" y2="1674"/><line style="stroke: #A80036; stroke-width: 4.5;" x1="3329.25" x2="3644.25" y1="1698" y2="1698"/><!--class DeleteUser--><rect fill="#FEFECE" filter="url(#f13tur799gzr45)" height="144" id="DeleteUser" style="stroke: #A80036; stroke-width: 4.5;" width="306" x="3709.5" y="882"/><ellipse cx="3754.5" cy="930" fill="#ADD1B2" rx="33" ry="33" style="stroke: #A80036; stroke-width: 3.0;"/><path d="M3763.4063,946.9219 Q3761.6719,947.8125 3759.75,948.2578 Q3757.8281,948.7031 3755.7188,948.7031 Q3748.2188,948.7031 3744.2578,943.7578 Q3740.2969,938.8125 3740.2969,929.4375 Q3740.2969,920.0625 3744.2578,915.0938 Q3748.2188,910.125 3755.7188,910.125 Q3757.8281,910.125 3759.7734,910.5938 Q3761.7188,911.0625 3763.4063,911.9531 L3763.4063,920.1094 Q3761.5313,918.375 3759.75,917.5547 Q3757.9688,916.7344 3756.0938,916.7344 Q3752.0625,916.7344 3750,919.9453 Q3747.9375,923.1563 3747.9375,929.4375 Q3747.9375,935.7188 3750,938.9297 Q3752.0625,942.1406 3756.0938,942.1406 Q3757.9688,942.1406 3759.75,941.3203 Q3761.5313,940.5 3763.4063,938.7656 L3763.4063,946.9219 Z "/><text fill="#000000" font-family="sans-serif" font-size="36" lengthAdjust="spacingAndGlyphs" textLength="210" x="3796.5" y="942.4629">DeleteUser</text><line style="stroke: #A80036; stroke-width: 4.5;" x1="3712.5" x2="4012.5" y1="978" y2="978"/><line style="stroke: #A80036; stroke-width: 4.5;" x1="3712.5" x2="4012.5" y1="1002" y2="1002"/><path d="M18,24 L18,689.5781 A0,0 0 0 0 18,689.5781 L1200,689.5781 A0,0 0 0 0 1200,689.5781 L1200,369 L1306.488,357 L1200,345 L1200,54 L1170,24 L18,24 A0,0 0 0 0 18,24 " fill="#FBFB77" filter="url(#f13tur799gzr45)" style="stroke: #A80036; stroke-width: 3.0;"/><path d="M1170,24 L1170,54 L1200,54 L1170,24 " fill="#FBFB77" style="stroke: #A80036; stroke-width: 3.0;"/><text fill="#000000" font-family="sans-serif" font-size="39" lengthAdjust="spacingAndGlyphs" textLength="777" x="36" y="75.2007">void processRequest(Request request) {</text><text fill="#000000" font-family="sans-serif" font-size="39" lengthAdjust="spacingAndGlyphs" textLength="525" x="60" y="120.5991">switch(request.getType()) {</text><text fill="#000000" font-family="sans-serif" font-size="39" lengthAdjust="spacingAndGlyphs" textLength="261" x="84" y="165.9976">case CREATE:</text><text fill="#000000" font-family="sans-serif" font-size="39" lengthAdjust="spacingAndGlyphs" textLength="996" x="132" y="211.396">executor.addToQueue(0, new CreateUser(request));</text><text fill="#000000" font-family="sans-serif" font-size="39" lengthAdjust="spacingAndGlyphs" textLength="291" x="84" y="256.7944">case RETRIEVE:</text><text fill="#000000" font-family="sans-serif" font-size="39" lengthAdjust="spacingAndGlyphs" textLength="1023" x="132" y="302.1929">executor.addToQueue(0, new RetrieveUser(request));</text><text fill="#000000" font-family="sans-serif" font-size="39" lengthAdjust="spacingAndGlyphs" textLength="270" x="84" y="347.5913">case UPDATE:</text><text fill="#000000" font-family="sans-serif" font-size="39" lengthAdjust="spacingAndGlyphs" textLength="1008" x="132" y="392.9897">executor.addToQueue(0, new UpdateUser(request));</text><text fill="#000000" font-family="sans-serif" font-size="39" lengthAdjust="spacingAndGlyphs" textLength="258" x="84" y="438.3882">case DELETE:</text><text fill="#000000" font-family="sans-serif" font-size="39" lengthAdjust="spacingAndGlyphs" textLength="993" x="132" y="483.7866">executor.addToQueue(0, new DeleteUser(request));</text><text fill="#000000" font-family="sans-serif" font-size="39" lengthAdjust="spacingAndGlyphs" textLength="144" x="84" y="529.1851">default:</text><text fill="#000000" font-family="sans-serif" font-size="39" lengthAdjust="spacingAndGlyphs" textLength="870" x="132" y="574.5835">throw new UnsupportedOperationException();</text><text fill="#000000" font-family="sans-serif" font-size="39" lengthAdjust="spacingAndGlyphs" textLength="24" x="60" y="619.9819">}</text><text fill="#000000" font-family="sans-serif" font-size="39" lengthAdjust="spacingAndGlyphs" textLength="24" x="36" y="665.3804">}</text><path d="M2181,1567.5 L2181,1733.6953 A0,0 0 0 0 2181,1733.6953 L3219,1733.6953 A0,0 0 0 0 3219,1733.6953 L3219,1597.5 L3189,1567.5 L2739.333,1567.5 L2793.324,1374.21 L2715.333,1567.5 L2181,1567.5 A0,0 0 0 0 2181,1567.5 " fill="#FBFB77" filter="url(#f13tur799gzr45)" style="stroke: #A80036; stroke-width: 3.0;"/><path d="M3189,1567.5 L3189,1597.5 L3219,1597.5 L3189,1567.5 " fill="#FBFB77" style="stroke: #A80036; stroke-width: 3.0;"/><text fill="#000000" font-family="sans-serif" font-size="39" lengthAdjust="spacingAndGlyphs" textLength="309" x="2199" y="1618.7007">void execute() {</text><text fill="#000000" font-family="sans-serif" font-size="39" lengthAdjust="spacingAndGlyphs" textLength="927" x="2223" y="1664.0991">System.out.println("User successfully created.");</text><text fill="#000000" font-family="sans-serif" font-size="39" lengthAdjust="spacingAndGlyphs" textLength="24" x="2199" y="1709.4976">}</text><path d="M4119,871.5 L4119,1037.6953 A0,0 0 0 0 4119,1037.6953 L5157,1037.6953 A0,0 0 0 0 5157,1037.6953 L5157,901.5 L5127,871.5 L4650,871.5 L4638,430.116 L4626,871.5 L4119,871.5 A0,0 0 0 0 4119,871.5 " fill="#FBFB77" filter="url(#f13tur799gzr45)" style="stroke: #A80036; stroke-width: 3.0;"/><path d="M5127,871.5 L5127,901.5 L5157,901.5 L5127,871.5 " fill="#FBFB77" style="stroke: #A80036; stroke-width: 3.0;"/><text fill="#000000" font-family="sans-serif" font-size="39" lengthAdjust="spacingAndGlyphs" textLength="309" x="4137" y="922.7007">void execute() {</text><text fill="#000000" font-family="sans-serif" font-size="39" lengthAdjust="spacingAndGlyphs" textLength="951" x="4161" y="968.0991">System.out.println("User successfully retrieved.");</text><text fill="#000000" font-family="sans-serif" font-size="39" lengthAdjust="spacingAndGlyphs" textLength="24" x="4137" y="1013.4976">}</text><path d="M2973,1915.5 L2973,2081.6953 A0,0 0 0 0 2973,2081.6953 L3999,2081.6953 A0,0 0 0 0 3999,2081.6953 L3999,1945.5 L3969,1915.5 L3498,1915.5 L3486,1722.21 L3474,1915.5 L2973,1915.5 A0,0 0 0 0 2973,1915.5 " fill="#FBFB77" filter="url(#f13tur799gzr45)" style="stroke: #A80036; stroke-width: 3.0;"/><path d="M3969,1915.5 L3969,1945.5 L3999,1945.5 L3969,1915.5 " fill="#FBFB77" style="stroke: #A80036; stroke-width: 3.0;"/><text fill="#000000" font-family="sans-serif" font-size="39" lengthAdjust="spacingAndGlyphs" textLength="309" x="2991" y="1966.7007">void execute() {</text><text fill="#000000" font-family="sans-serif" font-size="39" lengthAdjust="spacingAndGlyphs" textLength="939" x="3015" y="2012.0991">System.out.println("User successfully updated.");</text><text fill="#000000" font-family="sans-serif" font-size="39" lengthAdjust="spacingAndGlyphs" textLength="24" x="2991" y="2057.4976">}</text><path d="M3525,1219.5 L3525,1385.6953 A0,0 0 0 0 3525,1385.6953 L4563,1385.6953 A0,0 0 0 0 4563,1385.6953 L4563,1249.5 L4533,1219.5 L4013.25,1219.5 L3898.02,1026.21 L3989.25,1219.5 L3525,1219.5 A0,0 0 0 0 3525,1219.5 " fill="#FBFB77" filter="url(#f13tur799gzr45)" style="stroke: #A80036; stroke-width: 3.0;"/><path d="M4533,1219.5 L4533,1249.5 L4563,1249.5 L4533,1219.5 " fill="#FBFB77" style="stroke: #A80036; stroke-width: 3.0;"/><text fill="#000000" font-family="sans-serif" font-size="39" lengthAdjust="spacingAndGlyphs" textLength="309" x="3543" y="1270.7007">void execute() {</text><text fill="#000000" font-family="sans-serif" font-size="39" lengthAdjust="spacingAndGlyphs" textLength="951" x="3567" y="1316.0991">System.out.println("User successfully removed.");</text><text fill="#000000" font-family="sans-serif" font-size="39" lengthAdjust="spacingAndGlyphs" textLength="24" x="3543" y="1361.4976">}</text><!--link RequestProcessor to Executor--><path d="M2047.557,357 C2077.482,357 2107.41,357 2137.338,357 " fill="none" id="RequestProcessor-Executor" style="stroke: #A80036; stroke-width: 3.0; stroke-dasharray: 7.0,7.0;"/><polygon fill="#A80036" points="2152.989,357,2125.989,345,2137.989,357,2125.989,369,2152.989,357" style="stroke: #A80036; stroke-width: 3.0;"/><!--link Executor to Command--><path d="M3103.65,357 C3133.62,357 3163.59,357 3193.56,357 " fill="none" id="Executor-Command" style="stroke: #A80036; stroke-width: 3.0; stroke-dasharray: 7.0,7.0;"/><polygon fill="#A80036" points="3209.22,357,3182.22,345,3194.22,357,3182.22,369,3209.22,357" style="stroke: #A80036; stroke-width: 3.0;"/><!--link Command to CreateUser--><path d="M3282.84,502.239 C3163.11,706.995 2946.804,1076.985 2857.374,1229.946 " fill="none" id="Command-CreateUser" style="stroke: #A80036; stroke-width: 3.0; stroke-dasharray: 7.0,7.0;"/><polygon fill="none" points="3265.44,490.383,3313.86,449.184,3301.71,511.581,3265.44,490.383" style="stroke: #A80036; stroke-width: 3.0;"/><!--link Command to RetrieveUser--><path d="M3583.86,357 C3879.39,357 4174.89,357 4470.42,357 " fill="none" id="Command-RetrieveUser" style="stroke: #A80036; stroke-width: 3.0; stroke-dasharray: 7.0,7.0;"/><polygon fill="none" points="3583.77,378,3523.77,357,3583.77,336,3583.77,378" style="stroke: #A80036; stroke-width: 3.0;"/><!--link Command to UpdateUser--><path d="M3379.92,509.331 C3405.87,787.716 3460.74,1376.001 3479.52,1577.544 " fill="none" id="Command-UpdateUser" style="stroke: #A80036; stroke-width: 3.0; stroke-dasharray: 7.0,7.0;"/><polygon fill="none" points="3359.01,511.167,3374.34,449.478,3400.83,507.27,3359.01,511.167" style="stroke: #A80036; stroke-width: 3.0;"/><!--link Command to DeleteUser--><path d="M3480.18,496.335 C3581.04,616.746 3723.99,787.41 3802.95,881.682 " fill="none" id="Command-DeleteUser" style="stroke: #A80036; stroke-width: 3.0; stroke-dasharray: 7.0,7.0;"/><polygon fill="none" points="3463.62,509.241,3441.18,449.76,3495.81,482.274,3463.62,509.241" style="stroke: #A80036; stroke-width: 3.0;"/><!--
@startuml

scale 3
Class RequestProcessor {
  -Executor executor
  - -
  +void processRequest(Request request)
}
Class Executor {
  +void addToQueue(long delay, Command command)
}
Interface Command {
  +void execute()
}
Class CreateUser {
}
Class RetrieveUser {
}
Class UpdateUser {
}
Class DeleteUser {
}
note left of RequestProcessor
void processRequest(Request request) {
  switch(request.getType()) {
    case CREATE:
        executor.addToQueue(0, new CreateUser(request));
    case RETRIEVE:
	executor.addToQueue(0, new RetrieveUser(request));
    case UPDATE:
        executor.addToQueue(0, new UpdateUser(request));
    case DELETE:
        executor.addToQueue(0, new DeleteUser(request));
    default:
        throw new UnsupportedOperationException();
  }
}
end note
note bottom of CreateUser
void execute() {
  System.out.println("User successfully created.");  
}
end note
note bottom of RetrieveUser
void execute() {
  System.out.println("User successfully retrieved.");
}
end note
note bottom of UpdateUser
void execute() {
  System.out.println("User successfully updated.");
}
end note
note bottom of DeleteUser
void execute() {
  System.out.println("User successfully removed.");
}
end note
RequestProcessor .> Executor
Executor .> Command
Command <|... CreateUser
Command <|. RetrieveUser
Command <|.... UpdateUser
Command <|.. DeleteUser

@enduml

PlantUML version 1.2018.06(Mon May 21 06:34:53 EDT 2018)
(GPL source distribution)
Java Runtime: Java(TM) SE Runtime Environment
JVM: Java HotSpot(TM) 64-Bit Server VM
Java Version: 1.8.0_77-b03
Operating System: Linux
OS Version: 3.13.0-147-generic
Default Encoding: UTF-8
Language: en
Country: US
--></g></svg>