<?xml version="1.0" encoding="UTF-8" standalone="no"?><svg xmlns="http://www.w3.org/2000/svg" xmlns:xlink="http://www.w3.org/1999/xlink" contentScriptType="application/ecmascript" contentStyleType="text/css" height="1057.5px" preserveAspectRatio="none" style="width:2596px;height:1057px;" version="1.1" viewBox="0 0 2596 1057" width="2596.5px" zoomAndPan="magnify"><defs><filter height="300%" id="f1tfwuch6kzfcm" width="300%" x="-1" y="-1"><feGaussianBlur result="blurOut" stdDeviation="3.0"/><feColorMatrix in="blurOut" result="blurOut2" type="matrix" values="0 0 0 0 0 0 0 0 0 0 0 0 0 0 0 0 0 0 .4 0"/><feOffset dx="6.0" dy="6.0" in="blurOut2" result="blurOut3"/><feBlend in="SourceGraphic" in2="blurOut3" mode="normal"/></filter></defs><g><!--class RequestProcessor--><rect fill="#FEFECE" filter="url(#f1tfwuch6kzfcm)" height="110.4141" id="RequestProcessor" style="stroke: #A80036; stroke-width: 2.25;" width="370.5" x="653.625" y="123"/><ellipse cx="746.25" cy="147" fill="#ADD1B2" rx="16.5" ry="16.5" style="stroke: #A80036; stroke-width: 1.5;"/><path d="M750.7031,155.4609 Q749.8359,155.9063 748.875,156.1289 Q747.9141,156.3516 746.8594,156.3516 Q743.1094,156.3516 741.1289,153.8789 Q739.1484,151.4063 739.1484,146.7188 Q739.1484,142.0313 741.1289,139.5469 Q743.1094,137.0625 746.8594,137.0625 Q747.9141,137.0625 748.8867,137.2969 Q749.8594,137.5313 750.7031,137.9766 L750.7031,142.0547 Q749.7656,141.1875 748.875,140.7773 Q747.9844,140.3672 747.0469,140.3672 Q745.0313,140.3672 744,141.9727 Q742.9688,143.5781 742.9688,146.7188 Q742.9688,149.8594 744,151.4648 Q745.0313,153.0703 747.0469,153.0703 Q747.9844,153.0703 748.875,152.6602 Q749.7656,152.25 750.7031,151.3828 L750.7031,155.4609 Z "/><text fill="#000000" font-family="sans-serif" font-size="18" lengthAdjust="spacingAndGlyphs" textLength="172.5" x="777" y="153.2314">RequestProcessor</text><line style="stroke: #A80036; stroke-width: 2.25;" x1="655.125" x2="1022.625" y1="171" y2="171"/><rect fill="none" height="9" style="stroke: #C82930; stroke-width: 1.5;" width="9" x="665.625" y="184.3535"/><text fill="#000000" font-family="sans-serif" font-size="16.5" lengthAdjust="spacingAndGlyphs" textLength="153" x="683.625" y="192.3157">Executor executor</text><line style="stroke: #A80036; stroke-width: 1.5;" x1="655.125" x2="1022.625" y1="202.207" y2="202.207"/><ellipse cx="670.125" cy="220.0605" fill="#84BE84" rx="4.5" ry="4.5" style="stroke: #038048; stroke-width: 1.5;"/><text fill="#000000" font-family="sans-serif" font-size="16.5" lengthAdjust="spacingAndGlyphs" textLength="331.5" x="683.625" y="223.5227">void processRequest(Request request)</text><!--class Executor--><rect fill="#FEFECE" filter="url(#f1tfwuch6kzfcm)" height="91.207" id="Executor" style="stroke: #A80036; stroke-width: 2.25;" width="475.5" x="1076.625" y="132.75"/><ellipse cx="1266.75" cy="156.75" fill="#ADD1B2" rx="16.5" ry="16.5" style="stroke: #A80036; stroke-width: 1.5;"/><path d="M1271.2031,165.2109 Q1270.3359,165.6563 1269.375,165.8789 Q1268.4141,166.1016 1267.3594,166.1016 Q1263.6094,166.1016 1261.6289,163.6289 Q1259.6484,161.1563 1259.6484,156.4688 Q1259.6484,151.7813 1261.6289,149.2969 Q1263.6094,146.8125 1267.3594,146.8125 Q1268.4141,146.8125 1269.3867,147.0469 Q1270.3594,147.2813 1271.2031,147.7266 L1271.2031,151.8047 Q1270.2656,150.9375 1269.375,150.5273 Q1268.4844,150.1172 1267.5469,150.1172 Q1265.5313,150.1172 1264.5,151.7227 Q1263.4688,153.3281 1263.4688,156.4688 Q1263.4688,159.6094 1264.5,161.2148 Q1265.5313,162.8203 1267.5469,162.8203 Q1268.4844,162.8203 1269.375,162.4102 Q1270.2656,162 1271.2031,161.1328 L1271.2031,165.2109 Z "/><text fill="#000000" font-family="sans-serif" font-size="18" lengthAdjust="spacingAndGlyphs" textLength="82.5" x="1297.5" y="162.9814">Executor</text><line style="stroke: #A80036; stroke-width: 2.25;" x1="1078.125" x2="1550.625" y1="180.75" y2="180.75"/><line style="stroke: #A80036; stroke-width: 2.25;" x1="1078.125" x2="1550.625" y1="192.75" y2="192.75"/><ellipse cx="1093.125" cy="210.6035" fill="#84BE84" rx="4.5" ry="4.5" style="stroke: #038048; stroke-width: 1.5;"/><text fill="#000000" font-family="sans-serif" font-size="16.5" lengthAdjust="spacingAndGlyphs" textLength="436.5" x="1106.625" y="214.0657">void addToQueue(long delay, Command command)</text><!--class Command--><rect fill="#FEFECE" filter="url(#f1tfwuch6kzfcm)" height="91.207" id="Command" style="stroke: #A80036; stroke-width: 2.25;" width="157.5" x="1604.625" y="132.75"/><ellipse cx="1634.55" cy="156.75" fill="#B4A7E5" rx="16.5" ry="16.5" style="stroke: #A80036; stroke-width: 1.5;"/><path d="M1628.4328,150.3984 L1628.4328,147.1641 L1639.5188,147.1641 L1639.5188,150.3984 L1635.8156,150.3984 L1635.8156,162.5156 L1639.5188,162.5156 L1639.5188,165.75 L1628.4328,165.75 L1628.4328,162.5156 L1632.1359,162.5156 L1632.1359,150.3984 L1628.4328,150.3984 Z "/><text fill="#000000" font-family="sans-serif" font-size="18" font-style="italic" lengthAdjust="spacingAndGlyphs" textLength="93" x="1657.2" y="162.9814">Command</text><line style="stroke: #A80036; stroke-width: 2.25;" x1="1606.125" x2="1760.625" y1="180.75" y2="180.75"/><line style="stroke: #A80036; stroke-width: 2.25;" x1="1606.125" x2="1760.625" y1="192.75" y2="192.75"/><ellipse cx="1621.125" cy="210.6035" fill="#84BE84" rx="4.5" ry="4.5" style="stroke: #038048; stroke-width: 1.5;"/><text fill="#000000" font-family="sans-serif" font-size="16.5" lengthAdjust="spacingAndGlyphs" textLength="118.5" x="1634.625" y="214.0657">void execute()</text><!--class CreateUser--><rect fill="#FEFECE" filter="url(#f1tfwuch6kzfcm)" height="72" id="CreateUser" style="stroke: #A80036; stroke-width: 2.25;" width="154.5" x="1331.625" y="615"/><ellipse cx="1354.125" cy="639" fill="#ADD1B2" rx="16.5" ry="16.5" style="stroke: #A80036; stroke-width: 1.5;"/><path d="M1358.5781,647.4609 Q1357.7109,647.9063 1356.75,648.1289 Q1355.7891,648.3516 1354.7344,648.3516 Q1350.9844,648.3516 1349.0039,645.8789 Q1347.0234,643.4063 1347.0234,638.7188 Q1347.0234,634.0313 1349.0039,631.5469 Q1350.9844,629.0625 1354.7344,629.0625 Q1355.7891,629.0625 1356.7617,629.2969 Q1357.7344,629.5313 1358.5781,629.9766 L1358.5781,634.0547 Q1357.6406,633.1875 1356.75,632.7773 Q1355.8594,632.3672 1354.9219,632.3672 Q1352.9063,632.3672 1351.875,633.9727 Q1350.8438,635.5781 1350.8438,638.7188 Q1350.8438,641.8594 1351.875,643.4648 Q1352.9063,645.0703 1354.9219,645.0703 Q1355.8594,645.0703 1356.75,644.6602 Q1357.6406,644.25 1358.5781,643.3828 L1358.5781,647.4609 Z "/><text fill="#000000" font-family="sans-serif" font-size="18" lengthAdjust="spacingAndGlyphs" textLength="106.5" x="1375.125" y="645.2314">CreateUser</text><line style="stroke: #A80036; stroke-width: 2.25;" x1="1333.125" x2="1484.625" y1="663" y2="663"/><line style="stroke: #A80036; stroke-width: 2.25;" x1="1333.125" x2="1484.625" y1="675" y2="675"/><!--class RetrieveUser--><rect fill="#FEFECE" filter="url(#f1tfwuch6kzfcm)" height="72" id="RetrieveUser" style="stroke: #A80036; stroke-width: 2.25;" width="168" x="2235.75" y="142.5"/><ellipse cx="2258.25" cy="166.5" fill="#ADD1B2" rx="16.5" ry="16.5" style="stroke: #A80036; stroke-width: 1.5;"/><path d="M2262.7031,174.9609 Q2261.8359,175.4063 2260.875,175.6289 Q2259.9141,175.8516 2258.8594,175.8516 Q2255.1094,175.8516 2253.1289,173.3789 Q2251.1484,170.9063 2251.1484,166.2188 Q2251.1484,161.5313 2253.1289,159.0469 Q2255.1094,156.5625 2258.8594,156.5625 Q2259.9141,156.5625 2260.8867,156.7969 Q2261.8594,157.0313 2262.7031,157.4766 L2262.7031,161.5547 Q2261.7656,160.6875 2260.875,160.2773 Q2259.9844,159.8672 2259.0469,159.8672 Q2257.0313,159.8672 2256,161.4727 Q2254.9688,163.0781 2254.9688,166.2188 Q2254.9688,169.3594 2256,170.9648 Q2257.0313,172.5703 2259.0469,172.5703 Q2259.9844,172.5703 2260.875,172.1602 Q2261.7656,171.75 2262.7031,170.8828 L2262.7031,174.9609 Z "/><text fill="#000000" font-family="sans-serif" font-size="18" lengthAdjust="spacingAndGlyphs" textLength="120" x="2279.25" y="172.7314">RetrieveUser</text><line style="stroke: #A80036; stroke-width: 2.25;" x1="2237.25" x2="2402.25" y1="190.5" y2="190.5"/><line style="stroke: #A80036; stroke-width: 2.25;" x1="2237.25" x2="2402.25" y1="202.5" y2="202.5"/><!--class UpdateUser--><rect fill="#FEFECE" filter="url(#f1tfwuch6kzfcm)" height="72" id="UpdateUser" style="stroke: #A80036; stroke-width: 2.25;" width="160.5" x="1663.125" y="789"/><ellipse cx="1685.625" cy="813" fill="#ADD1B2" rx="16.5" ry="16.5" style="stroke: #A80036; stroke-width: 1.5;"/><path d="M1690.0781,821.4609 Q1689.2109,821.9063 1688.25,822.1289 Q1687.2891,822.3516 1686.2344,822.3516 Q1682.4844,822.3516 1680.5039,819.8789 Q1678.5234,817.4063 1678.5234,812.7188 Q1678.5234,808.0313 1680.5039,805.5469 Q1682.4844,803.0625 1686.2344,803.0625 Q1687.2891,803.0625 1688.2617,803.2969 Q1689.2344,803.5313 1690.0781,803.9766 L1690.0781,808.0547 Q1689.1406,807.1875 1688.25,806.7773 Q1687.3594,806.3672 1686.4219,806.3672 Q1684.4063,806.3672 1683.375,807.9727 Q1682.3438,809.5781 1682.3438,812.7188 Q1682.3438,815.8594 1683.375,817.4648 Q1684.4063,819.0703 1686.4219,819.0703 Q1687.3594,819.0703 1688.25,818.6602 Q1689.1406,818.25 1690.0781,817.3828 L1690.0781,821.4609 Z "/><text fill="#000000" font-family="sans-serif" font-size="18" lengthAdjust="spacingAndGlyphs" textLength="112.5" x="1706.625" y="819.2314">UpdateUser</text><line style="stroke: #A80036; stroke-width: 2.25;" x1="1664.625" x2="1822.125" y1="837" y2="837"/><line style="stroke: #A80036; stroke-width: 2.25;" x1="1664.625" x2="1822.125" y1="849" y2="849"/><!--class DeleteUser--><rect fill="#FEFECE" filter="url(#f1tfwuch6kzfcm)" height="72" id="DeleteUser" style="stroke: #A80036; stroke-width: 2.25;" width="153" x="1854.75" y="441"/><ellipse cx="1877.25" cy="465" fill="#ADD1B2" rx="16.5" ry="16.5" style="stroke: #A80036; stroke-width: 1.5;"/><path d="M1881.7031,473.4609 Q1880.8359,473.9063 1879.875,474.1289 Q1878.9141,474.3516 1877.8594,474.3516 Q1874.1094,474.3516 1872.1289,471.8789 Q1870.1484,469.4063 1870.1484,464.7188 Q1870.1484,460.0313 1872.1289,457.5469 Q1874.1094,455.0625 1877.8594,455.0625 Q1878.9141,455.0625 1879.8867,455.2969 Q1880.8594,455.5313 1881.7031,455.9766 L1881.7031,460.0547 Q1880.7656,459.1875 1879.875,458.7773 Q1878.9844,458.3672 1878.0469,458.3672 Q1876.0313,458.3672 1875,459.9727 Q1873.9688,461.5781 1873.9688,464.7188 Q1873.9688,467.8594 1875,469.4648 Q1876.0313,471.0703 1878.0469,471.0703 Q1878.9844,471.0703 1879.875,470.6602 Q1880.7656,470.25 1881.7031,469.3828 L1881.7031,473.4609 Z "/><text fill="#000000" font-family="sans-serif" font-size="18" lengthAdjust="spacingAndGlyphs" textLength="105" x="1898.25" y="471.2314">DeleteUser</text><line style="stroke: #A80036; stroke-width: 2.25;" x1="1856.25" x2="2006.25" y1="489" y2="489"/><line style="stroke: #A80036; stroke-width: 2.25;" x1="1856.25" x2="2006.25" y1="501" y2="501"/><path d="M9,12 L9,344.7891 A0,0 0 0 0 9,344.7891 L600,344.7891 A0,0 0 0 0 600,344.7891 L600,184.5 L653.244,178.5 L600,172.5 L600,27 L585,12 L9,12 A0,0 0 0 0 9,12 " fill="#FBFB77" filter="url(#f1tfwuch6kzfcm)" style="stroke: #A80036; stroke-width: 1.5;"/><path d="M585,12 L585,27 L600,27 L585,12 " fill="#FBFB77" style="stroke: #A80036; stroke-width: 1.5;"/><text fill="#000000" font-family="sans-serif" font-size="19.5" lengthAdjust="spacingAndGlyphs" textLength="388.5" x="18" y="37.6003">void processRequest(Request request) {</text><text fill="#000000" font-family="sans-serif" font-size="19.5" lengthAdjust="spacingAndGlyphs" textLength="262.5" x="30" y="60.2996">switch(request.getType()) {</text><text fill="#000000" font-family="sans-serif" font-size="19.5" lengthAdjust="spacingAndGlyphs" textLength="130.5" x="42" y="82.9988">case CREATE:</text><text fill="#000000" font-family="sans-serif" font-size="19.5" lengthAdjust="spacingAndGlyphs" textLength="498" x="66" y="105.698">executor.addToQueue(0, new CreateUser(request));</text><text fill="#000000" font-family="sans-serif" font-size="19.5" lengthAdjust="spacingAndGlyphs" textLength="145.5" x="42" y="128.3972">case RETRIEVE:</text><text fill="#000000" font-family="sans-serif" font-size="19.5" lengthAdjust="spacingAndGlyphs" textLength="511.5" x="66" y="151.0964">executor.addToQueue(0, new RetrieveUser(request));</text><text fill="#000000" font-family="sans-serif" font-size="19.5" lengthAdjust="spacingAndGlyphs" textLength="135" x="42" y="173.7957">case UPDATE:</text><text fill="#000000" font-family="sans-serif" font-size="19.5" lengthAdjust="spacingAndGlyphs" textLength="504" x="66" y="196.4949">executor.addToQueue(0, new UpdateUser(request));</text><text fill="#000000" font-family="sans-serif" font-size="19.5" lengthAdjust="spacingAndGlyphs" textLength="129" x="42" y="219.1941">case DELETE:</text><text fill="#000000" font-family="sans-serif" font-size="19.5" lengthAdjust="spacingAndGlyphs" textLength="496.5" x="66" y="241.8933">executor.addToQueue(0, new DeleteUser(request));</text><text fill="#000000" font-family="sans-serif" font-size="19.5" lengthAdjust="spacingAndGlyphs" textLength="72" x="42" y="264.5925">default:</text><text fill="#000000" font-family="sans-serif" font-size="19.5" lengthAdjust="spacingAndGlyphs" textLength="435" x="66" y="287.2917">throw new UnsupportedOperationException();</text><text fill="#000000" font-family="sans-serif" font-size="19.5" lengthAdjust="spacingAndGlyphs" textLength="12" x="30" y="309.991">}</text><text fill="#000000" font-family="sans-serif" font-size="19.5" lengthAdjust="spacingAndGlyphs" textLength="12" x="18" y="332.6902">}</text><path d="M1090.5,783.75 L1090.5,866.8477 A0,0 0 0 0 1090.5,866.8477 L1609.5,866.8477 A0,0 0 0 0 1609.5,866.8477 L1609.5,798.75 L1594.5,783.75 L1369.6665,783.75 L1396.662,687.105 L1357.6665,783.75 L1090.5,783.75 A0,0 0 0 0 1090.5,783.75 " fill="#FBFB77" filter="url(#f1tfwuch6kzfcm)" style="stroke: #A80036; stroke-width: 1.5;"/><path d="M1594.5,783.75 L1594.5,798.75 L1609.5,798.75 L1594.5,783.75 " fill="#FBFB77" style="stroke: #A80036; stroke-width: 1.5;"/><text fill="#000000" font-family="sans-serif" font-size="19.5" lengthAdjust="spacingAndGlyphs" textLength="154.5" x="1099.5" y="809.3503">void execute() {</text><text fill="#000000" font-family="sans-serif" font-size="19.5" lengthAdjust="spacingAndGlyphs" textLength="463.5" x="1111.5" y="832.0496">System.out.println("User successfully created.");</text><text fill="#000000" font-family="sans-serif" font-size="19.5" lengthAdjust="spacingAndGlyphs" textLength="12" x="1099.5" y="854.7488">}</text><path d="M2059.5,435.75 L2059.5,518.8477 A0,0 0 0 0 2059.5,518.8477 L2578.5,518.8477 A0,0 0 0 0 2578.5,518.8477 L2578.5,450.75 L2563.5,435.75 L2325,435.75 L2319,215.058 L2313,435.75 L2059.5,435.75 A0,0 0 0 0 2059.5,435.75 " fill="#FBFB77" filter="url(#f1tfwuch6kzfcm)" style="stroke: #A80036; stroke-width: 1.5;"/><path d="M2563.5,435.75 L2563.5,450.75 L2578.5,450.75 L2563.5,435.75 " fill="#FBFB77" style="stroke: #A80036; stroke-width: 1.5;"/><text fill="#000000" font-family="sans-serif" font-size="19.5" lengthAdjust="spacingAndGlyphs" textLength="154.5" x="2068.5" y="461.3503">void execute() {</text><text fill="#000000" font-family="sans-serif" font-size="19.5" lengthAdjust="spacingAndGlyphs" textLength="475.5" x="2080.5" y="484.0496">System.out.println("User successfully retrieved.");</text><text fill="#000000" font-family="sans-serif" font-size="19.5" lengthAdjust="spacingAndGlyphs" textLength="12" x="2068.5" y="506.7488">}</text><path d="M1486.5,957.75 L1486.5,1040.8477 A0,0 0 0 0 1486.5,1040.8477 L1999.5,1040.8477 A0,0 0 0 0 1999.5,1040.8477 L1999.5,972.75 L1984.5,957.75 L1749,957.75 L1743,861.105 L1737,957.75 L1486.5,957.75 A0,0 0 0 0 1486.5,957.75 " fill="#FBFB77" filter="url(#f1tfwuch6kzfcm)" style="stroke: #A80036; stroke-width: 1.5;"/><path d="M1984.5,957.75 L1984.5,972.75 L1999.5,972.75 L1984.5,957.75 " fill="#FBFB77" style="stroke: #A80036; stroke-width: 1.5;"/><text fill="#000000" font-family="sans-serif" font-size="19.5" lengthAdjust="spacingAndGlyphs" textLength="154.5" x="1495.5" y="983.3503">void execute() {</text><text fill="#000000" font-family="sans-serif" font-size="19.5" lengthAdjust="spacingAndGlyphs" textLength="469.5" x="1507.5" y="1006.0496">System.out.println("User successfully updated.");</text><text fill="#000000" font-family="sans-serif" font-size="19.5" lengthAdjust="spacingAndGlyphs" textLength="12" x="1495.5" y="1028.7488">}</text><path d="M1762.5,609.75 L1762.5,692.8477 A0,0 0 0 0 1762.5,692.8477 L2281.5,692.8477 A0,0 0 0 0 2281.5,692.8477 L2281.5,624.75 L2266.5,609.75 L2006.625,609.75 L1949.01,513.105 L1994.625,609.75 L1762.5,609.75 A0,0 0 0 0 1762.5,609.75 " fill="#FBFB77" filter="url(#f1tfwuch6kzfcm)" style="stroke: #A80036; stroke-width: 1.5;"/><path d="M2266.5,609.75 L2266.5,624.75 L2281.5,624.75 L2266.5,609.75 " fill="#FBFB77" style="stroke: #A80036; stroke-width: 1.5;"/><text fill="#000000" font-family="sans-serif" font-size="19.5" lengthAdjust="spacingAndGlyphs" textLength="154.5" x="1771.5" y="635.3503">void execute() {</text><text fill="#000000" font-family="sans-serif" font-size="19.5" lengthAdjust="spacingAndGlyphs" textLength="475.5" x="1783.5" y="658.0496">System.out.println("User successfully removed.");</text><text fill="#000000" font-family="sans-serif" font-size="19.5" lengthAdjust="spacingAndGlyphs" textLength="12" x="1771.5" y="680.7488">}</text><!--link RequestProcessor to Executor--><path d="M1023.7785,178.5 C1038.741,178.5 1053.705,178.5 1068.669,178.5 " fill="none" id="RequestProcessor-Executor" style="stroke: #A80036; stroke-width: 1.5; stroke-dasharray: 7.0,7.0;"/><polygon fill="#A80036" points="1076.4945,178.5,1062.9945,172.5,1068.9945,178.5,1062.9945,184.5,1076.4945,178.5" style="stroke: #A80036; stroke-width: 1.5;"/><!--link Executor to Command--><path d="M1551.825,178.5 C1566.81,178.5 1581.795,178.5 1596.78,178.5 " fill="none" id="Executor-Command" style="stroke: #A80036; stroke-width: 1.5; stroke-dasharray: 7.0,7.0;"/><polygon fill="#A80036" points="1604.61,178.5,1591.11,172.5,1597.11,178.5,1591.11,184.5,1604.61,178.5" style="stroke: #A80036; stroke-width: 1.5;"/><!--link Command to CreateUser--><path d="M1641.42,251.1195 C1581.555,353.4975 1473.402,538.4925 1428.687,614.973 " fill="none" id="Command-CreateUser" style="stroke: #A80036; stroke-width: 1.5; stroke-dasharray: 7.0,7.0;"/><polygon fill="none" points="1632.72,245.1915,1656.93,224.592,1650.855,255.7905,1632.72,245.1915" style="stroke: #A80036; stroke-width: 1.5;"/><!--link Command to RetrieveUser--><path d="M1791.93,178.5 C1939.695,178.5 2087.445,178.5 2235.21,178.5 " fill="none" id="Command-RetrieveUser" style="stroke: #A80036; stroke-width: 1.5; stroke-dasharray: 7.0,7.0;"/><polygon fill="none" points="1791.885,189,1761.885,178.5,1791.885,168,1791.885,189" style="stroke: #A80036; stroke-width: 1.5;"/><!--link Command to UpdateUser--><path d="M1689.96,254.6655 C1702.935,393.858 1730.37,688.0005 1739.76,788.772 " fill="none" id="Command-UpdateUser" style="stroke: #A80036; stroke-width: 1.5; stroke-dasharray: 7.0,7.0;"/><polygon fill="none" points="1679.505,255.5835,1687.17,224.739,1700.415,253.635,1679.505,255.5835" style="stroke: #A80036; stroke-width: 1.5;"/><!--link Command to DeleteUser--><path d="M1740.09,248.1675 C1790.52,308.373 1861.995,393.705 1901.475,440.841 " fill="none" id="Command-DeleteUser" style="stroke: #A80036; stroke-width: 1.5; stroke-dasharray: 7.0,7.0;"/><polygon fill="none" points="1731.81,254.6205,1720.59,224.88,1747.905,241.137,1731.81,254.6205" style="stroke: #A80036; stroke-width: 1.5;"/><!--
@startuml

scale 1.5
Class RequestProcessor {
  -Executor executor
  - -
  +void processRequest(Request request)
}
Class Executor {
  +void addToQueue(long delay, Command command)
}
Interface Command {
  +void execute()
}
Class CreateUser {
}
Class RetrieveUser {
}
Class UpdateUser {
}
Class DeleteUser {
}
note left of RequestProcessor
void processRequest(Request request) {
  switch(request.getType()) {
    case CREATE:
        executor.addToQueue(0, new CreateUser(request));
    case RETRIEVE:
	executor.addToQueue(0, new RetrieveUser(request));
    case UPDATE:
        executor.addToQueue(0, new UpdateUser(request));
    case DELETE:
        executor.addToQueue(0, new DeleteUser(request));
    default:
        throw new UnsupportedOperationException();
  }
}
end note
note bottom of CreateUser
void execute() {
  System.out.println("User successfully created.");  
}
end note
note bottom of RetrieveUser
void execute() {
  System.out.println("User successfully retrieved.");
}
end note
note bottom of UpdateUser
void execute() {
  System.out.println("User successfully updated.");
}
end note
note bottom of DeleteUser
void execute() {
  System.out.println("User successfully removed.");
}
end note
RequestProcessor .> Executor
Executor .> Command
Command <|... CreateUser
Command <|. RetrieveUser
Command <|.... UpdateUser
Command <|.. DeleteUser

@enduml

PlantUML version 1.2018.06(Mon May 21 06:34:53 EDT 2018)
(GPL source distribution)
Java Runtime: Java(TM) SE Runtime Environment
JVM: Java HotSpot(TM) 64-Bit Server VM
Java Version: 1.8.0_77-b03
Operating System: Linux
OS Version: 3.13.0-147-generic
Default Encoding: UTF-8
Language: en
Country: US
--></g></svg>