<?xml version="1.0" encoding="UTF-8" standalone="no"?><svg xmlns="http://www.w3.org/2000/svg" xmlns:xlink="http://www.w3.org/1999/xlink" contentScriptType="application/ecmascript" contentStyleType="text/css" height="747px" preserveAspectRatio="none" style="width:1266px;height:747px;" version="1.1" viewBox="0 0 1266 747" width="1266px" zoomAndPan="magnify"><defs><filter height="300%" id="ffq3he0drqezj" width="300%" x="-1" y="-1"><feGaussianBlur result="blurOut" stdDeviation="2.0"/><feColorMatrix in="blurOut" result="blurOut2" type="matrix" values="0 0 0 0 0 0 0 0 0 0 0 0 0 0 0 0 0 0 .4 0"/><feOffset dx="4.0" dy="4.0" in="blurOut2" result="blurOut3"/><feBlend in="SourceGraphic" in2="blurOut3" mode="normal"/></filter></defs><g><!--class MessageHandler--><rect fill="#FEFECE" filter="url(#ffq3he0drqezj)" height="86.4141" id="MessageHandler" style="stroke: #A80036; stroke-width: 1.5;" width="325" x="553.75" y="69"/><ellipse cx="659.5" cy="85" fill="#ADD1B2" rx="11" ry="11" style="stroke: #A80036; stroke-width: 1.0;"/><path d="M662.4688,90.6406 Q661.8906,90.9375 661.25,91.0859 Q660.6094,91.2344 659.9063,91.2344 Q657.4063,91.2344 656.0859,89.5859 Q654.7656,87.9375 654.7656,84.8125 Q654.7656,81.6875 656.0859,80.0313 Q657.4063,78.375 659.9063,78.375 Q660.6094,78.375 661.2578,78.5313 Q661.9063,78.6875 662.4688,78.9844 L662.4688,81.7031 Q661.8438,81.125 661.25,80.8516 Q660.6563,80.5781 660.0313,80.5781 Q658.6875,80.5781 658,81.6484 Q657.3125,82.7188 657.3125,84.8125 Q657.3125,86.9063 658,87.9766 Q658.6875,89.0469 660.0313,89.0469 Q660.6563,89.0469 661.25,88.7734 Q661.8438,88.5 662.4688,87.9219 L662.4688,90.6406 Z "/><text fill="#000000" font-family="sans-serif" font-size="12" lengthAdjust="spacingAndGlyphs" textLength="105" x="680" y="89.1543">MessageHandler</text><line style="stroke: #A80036; stroke-width: 1.5;" x1="554.75" x2="877.75" y1="101" y2="101"/><rect fill="none" height="6" style="stroke: #C82930; stroke-width: 1.0;" width="6" x="561.75" y="109.9023"/><text fill="#000000" font-family="sans-serif" font-size="11" lengthAdjust="spacingAndGlyphs" textLength="93" x="573.75" y="115.2104">Storage storage</text><line style="stroke: #A80036; stroke-width: 1.0;" x1="554.75" x2="877.75" y1="121.8047" y2="121.8047"/><ellipse cx="564.75" cy="133.707" fill="#84BE84" rx="3" ry="3" style="stroke: #038048; stroke-width: 1.0;"/><text fill="#000000" font-family="sans-serif" font-size="11" lengthAdjust="spacingAndGlyphs" textLength="273" x="573.75" y="136.0151">void handleMessageToUser(Message message)</text><ellipse cx="564.75" cy="146.5117" fill="#84BE84" rx="3" ry="3" style="stroke: #038048; stroke-width: 1.0;"/><text fill="#000000" font-family="sans-serif" font-size="11" lengthAdjust="spacingAndGlyphs" textLength="299" x="573.75" y="148.8198">void handleResponseFromUser(Response response)</text><path d="M6,8.5 L6,215.2266 A0,0 0 0 0 6,215.2266 L518,215.2266 A0,0 0 0 0 518,215.2266 L518,116 L553.407,112 L518,108 L518,18.5 L508,8.5 L6,8.5 A0,0 0 0 0 6,8.5 " fill="#FBFB77" filter="url(#ffq3he0drqezj)" style="stroke: #A80036; stroke-width: 1.0;"/><path d="M508,8.5 L508,18.5 L518,18.5 L508,8.5 " fill="#FBFB77" style="stroke: #A80036; stroke-width: 1.0;"/><text fill="#000000" font-family="sans-serif" font-size="13" lengthAdjust="spacingAndGlyphs" textLength="317" x="12" y="25.5669">void handleMessageToUser(Message message) {</text><text fill="#000000" font-family="sans-serif" font-size="13" lengthAdjust="spacingAndGlyphs" textLength="12" x="20" y="40.6997">...</text><text fill="#000000" font-family="sans-serif" font-size="13" lengthAdjust="spacingAndGlyphs" textLength="483" x="20" y="55.8325">storage.store(message.getId(), message) // Message implements Storable.</text><text fill="#000000" font-family="sans-serif" font-size="13" lengthAdjust="spacingAndGlyphs" textLength="12" x="20" y="70.9653">...</text><text fill="#000000" font-family="sans-serif" font-size="13" lengthAdjust="spacingAndGlyphs" textLength="157" x="20" y="86.0981">sendMessage(message)</text><text fill="#000000" font-family="sans-serif" font-size="13" lengthAdjust="spacingAndGlyphs" textLength="8" x="12" y="101.231">}</text><text fill="#000000" font-family="sans-serif" font-size="13" lengthAdjust="spacingAndGlyphs" textLength="345" x="12" y="116.3638">void handleResponseFromUser(Response response) {</text><text fill="#000000" font-family="sans-serif" font-size="13" lengthAdjust="spacingAndGlyphs" textLength="12" x="20" y="131.4966">...</text><text fill="#000000" font-family="sans-serif" font-size="13" lengthAdjust="spacingAndGlyphs" textLength="270" x="20" y="146.6294">if (response.getStatus() == DELIVERED) {</text><text fill="#000000" font-family="sans-serif" font-size="13" lengthAdjust="spacingAndGlyphs" textLength="212" x="28" y="161.7622">storage.delete(response.getId());</text><text fill="#000000" font-family="sans-serif" font-size="13" lengthAdjust="spacingAndGlyphs" textLength="8" x="20" y="176.895">}</text><text fill="#000000" font-family="sans-serif" font-size="13" lengthAdjust="spacingAndGlyphs" textLength="12" x="20" y="192.0278">...</text><text fill="#000000" font-family="sans-serif" font-size="13" lengthAdjust="spacingAndGlyphs" textLength="8" x="12" y="207.1606">}</text><!--class Storage--><rect fill="#FEFECE" filter="url(#ffq3he0drqezj)" height="99.2188" id="Storage" style="stroke: #A80036; stroke-width: 1.5;" width="251" x="590.75" y="276.5"/><ellipse cx="687" cy="292.5" fill="#B4A7E5" rx="11" ry="11" style="stroke: #A80036; stroke-width: 1.0;"/><path d="M682.9219,288.2656 L682.9219,286.1094 L690.3125,286.1094 L690.3125,288.2656 L687.8438,288.2656 L687.8438,296.3438 L690.3125,296.3438 L690.3125,298.5 L682.9219,298.5 L682.9219,296.3438 L685.3906,296.3438 L685.3906,288.2656 L682.9219,288.2656 Z "/><text fill="#000000" font-family="sans-serif" font-size="12" font-style="italic" lengthAdjust="spacingAndGlyphs" textLength="50" x="707.5" y="296.6543">Storage</text><line style="stroke: #A80036; stroke-width: 1.5;" x1="591.75" x2="840.75" y1="308.5" y2="308.5"/><line style="stroke: #A80036; stroke-width: 1.5;" x1="591.75" x2="840.75" y1="316.5" y2="316.5"/><ellipse cx="601.75" cy="328.4023" fill="#84BE84" rx="3" ry="3" style="stroke: #038048; stroke-width: 1.0;"/><text fill="#000000" font-family="sans-serif" font-size="11" lengthAdjust="spacingAndGlyphs" textLength="216" x="610.75" y="330.7104">void store(String key, Storable value);</text><ellipse cx="601.75" cy="341.207" fill="#84BE84" rx="3" ry="3" style="stroke: #038048; stroke-width: 1.0;"/><text fill="#000000" font-family="sans-serif" font-size="11" lengthAdjust="spacingAndGlyphs" textLength="225" x="610.75" y="343.5151">void update(String key, Storable value);</text><ellipse cx="601.75" cy="354.0117" fill="#84BE84" rx="3" ry="3" style="stroke: #038048; stroke-width: 1.0;"/><text fill="#000000" font-family="sans-serif" font-size="11" lengthAdjust="spacingAndGlyphs" textLength="131" x="610.75" y="356.3198">void delete(String key);</text><ellipse cx="601.75" cy="366.8164" fill="#84BE84" rx="3" ry="3" style="stroke: #038048; stroke-width: 1.0;"/><text fill="#000000" font-family="sans-serif" font-size="11" lengthAdjust="spacingAndGlyphs" textLength="165" x="610.75" y="369.1245">Storable retrieve(String key);</text><!--class FileSystemStorage--><rect fill="#FEFECE" filter="url(#ffq3he0drqezj)" height="48" id="FileSystemStorage" style="stroke: #A80036; stroke-width: 1.5;" width="148" x="345" y="436"/><ellipse cx="360" cy="452" fill="#ADD1B2" rx="11" ry="11" style="stroke: #A80036; stroke-width: 1.0;"/><path d="M362.9688,457.6406 Q362.3906,457.9375 361.75,458.0859 Q361.1094,458.2344 360.4063,458.2344 Q357.9063,458.2344 356.5859,456.5859 Q355.2656,454.9375 355.2656,451.8125 Q355.2656,448.6875 356.5859,447.0313 Q357.9063,445.375 360.4063,445.375 Q361.1094,445.375 361.7578,445.5313 Q362.4063,445.6875 362.9688,445.9844 L362.9688,448.7031 Q362.3438,448.125 361.75,447.8516 Q361.1563,447.5781 360.5313,447.5781 Q359.1875,447.5781 358.5,448.6484 Q357.8125,449.7188 357.8125,451.8125 Q357.8125,453.9063 358.5,454.9766 Q359.1875,456.0469 360.5313,456.0469 Q361.1563,456.0469 361.75,455.7734 Q362.3438,455.5 362.9688,454.9219 L362.9688,457.6406 Z "/><text fill="#000000" font-family="sans-serif" font-size="12" lengthAdjust="spacingAndGlyphs" textLength="116" x="374" y="456.1543">FileSystemStorage</text><line style="stroke: #A80036; stroke-width: 1.5;" x1="346" x2="492" y1="468" y2="468"/><line style="stroke: #A80036; stroke-width: 1.5;" x1="346" x2="492" y1="476" y2="476"/><!--class DatabaseStorage--><rect fill="#FEFECE" filter="url(#ffq3he0drqezj)" height="48" id="DatabaseStorage" style="stroke: #A80036; stroke-width: 1.5;" width="143" x="644.75" y="436"/><ellipse cx="659.75" cy="452" fill="#ADD1B2" rx="11" ry="11" style="stroke: #A80036; stroke-width: 1.0;"/><path d="M662.7188,457.6406 Q662.1406,457.9375 661.5,458.0859 Q660.8594,458.2344 660.1563,458.2344 Q657.6563,458.2344 656.3359,456.5859 Q655.0156,454.9375 655.0156,451.8125 Q655.0156,448.6875 656.3359,447.0313 Q657.6563,445.375 660.1563,445.375 Q660.8594,445.375 661.5078,445.5313 Q662.1563,445.6875 662.7188,445.9844 L662.7188,448.7031 Q662.0938,448.125 661.5,447.8516 Q660.9063,447.5781 660.2813,447.5781 Q658.9375,447.5781 658.25,448.6484 Q657.5625,449.7188 657.5625,451.8125 Q657.5625,453.9063 658.25,454.9766 Q658.9375,456.0469 660.2813,456.0469 Q660.9063,456.0469 661.5,455.7734 Q662.0938,455.5 662.7188,454.9219 L662.7188,457.6406 Z "/><text fill="#000000" font-family="sans-serif" font-size="12" lengthAdjust="spacingAndGlyphs" textLength="111" x="673.75" y="456.1543">DatabaseStorage</text><line style="stroke: #A80036; stroke-width: 1.5;" x1="645.75" x2="786.75" y1="468" y2="468"/><line style="stroke: #A80036; stroke-width: 1.5;" x1="645.75" x2="786.75" y1="476" y2="476"/><!--class InMemoryStorage--><rect fill="#FEFECE" filter="url(#ffq3he0drqezj)" height="48" id="InMemoryStorage" style="stroke: #A80036; stroke-width: 1.5;" width="141" x="924.75" y="436"/><ellipse cx="939.75" cy="452" fill="#ADD1B2" rx="11" ry="11" style="stroke: #A80036; stroke-width: 1.0;"/><path d="M942.7188,457.6406 Q942.1406,457.9375 941.5,458.0859 Q940.8594,458.2344 940.1563,458.2344 Q937.6563,458.2344 936.3359,456.5859 Q935.0156,454.9375 935.0156,451.8125 Q935.0156,448.6875 936.3359,447.0313 Q937.6563,445.375 940.1563,445.375 Q940.8594,445.375 941.5078,445.5313 Q942.1563,445.6875 942.7188,445.9844 L942.7188,448.7031 Q942.0938,448.125 941.5,447.8516 Q940.9063,447.5781 940.2813,447.5781 Q938.9375,447.5781 938.25,448.6484 Q937.5625,449.7188 937.5625,451.8125 Q937.5625,453.9063 938.25,454.9766 Q938.9375,456.0469 940.2813,456.0469 Q940.9063,456.0469 941.5,455.7734 Q942.0938,455.5 942.7188,454.9219 L942.7188,457.6406 Z "/><text fill="#000000" font-family="sans-serif" font-size="12" lengthAdjust="spacingAndGlyphs" textLength="109" x="953.75" y="456.1543">InMemoryStorage</text><line style="stroke: #A80036; stroke-width: 1.5;" x1="925.75" x2="1064.75" y1="468" y2="468"/><line style="stroke: #A80036; stroke-width: 1.5;" x1="925.75" x2="1064.75" y1="476" y2="476"/><path d="M115.75,544 L115.75,735.5938 A0,0 0 0 0 115.75,735.5938 L492.75,735.5938 A0,0 0 0 0 492.75,735.5938 L492.75,554 L482.75,544 L369.409,544 L403.966,484.27 L361.409,544 L115.75,544 A0,0 0 0 0 115.75,544 " fill="#FBFB77" filter="url(#ffq3he0drqezj)" style="stroke: #A80036; stroke-width: 1.0;"/><path d="M482.75,544 L482.75,554 L492.75,554 L482.75,544 " fill="#FBFB77" style="stroke: #A80036; stroke-width: 1.0;"/><text fill="#000000" font-family="sans-serif" font-size="13" lengthAdjust="spacingAndGlyphs" textLength="249" x="121.75" y="561.0669">void store(String key, Storable value) {</text><text fill="#000000" font-family="sans-serif" font-size="13" lengthAdjust="spacingAndGlyphs" textLength="310" x="129.75" y="576.1997">System.out.println("Storing on the file system.");</text><text fill="#000000" font-family="sans-serif" font-size="13" lengthAdjust="spacingAndGlyphs" textLength="8" x="121.75" y="591.3325">}</text><text fill="#000000" font-family="sans-serif" font-size="13" lengthAdjust="spacingAndGlyphs" textLength="261" x="121.75" y="606.4653">void update(String key, Storable value) {</text><text fill="#000000" font-family="sans-serif" font-size="13" lengthAdjust="spacingAndGlyphs" textLength="322" x="129.75" y="621.5981">System.out.println("Updating on the file system.");</text><text fill="#000000" font-family="sans-serif" font-size="13" lengthAdjust="spacingAndGlyphs" textLength="8" x="121.75" y="636.731">}</text><text fill="#000000" font-family="sans-serif" font-size="13" lengthAdjust="spacingAndGlyphs" textLength="256" x="121.75" y="651.8638">void delete(String key, Storable value) {</text><text fill="#000000" font-family="sans-serif" font-size="13" lengthAdjust="spacingAndGlyphs" textLength="331" x="129.75" y="666.9966">System.out.println("Deleting from the file system.");</text><text fill="#000000" font-family="sans-serif" font-size="13" lengthAdjust="spacingAndGlyphs" textLength="8" x="121.75" y="682.1294">}</text><text fill="#000000" font-family="sans-serif" font-size="13" lengthAdjust="spacingAndGlyphs" textLength="193" x="121.75" y="697.2622">Storable retrieve(String key) {</text><text fill="#000000" font-family="sans-serif" font-size="13" lengthAdjust="spacingAndGlyphs" textLength="348" x="129.75" y="712.395">System.out.println("Retrieving from the file sysytem.");</text><text fill="#000000" font-family="sans-serif" font-size="13" lengthAdjust="spacingAndGlyphs" textLength="8" x="121.75" y="727.5278">}</text><path d="M527.75,544 L527.75,735.5938 A0,0 0 0 0 527.75,735.5938 L904.75,735.5938 A0,0 0 0 0 904.75,735.5938 L904.75,554 L894.75,544 L720,544 L716,484.27 L712,544 L527.75,544 A0,0 0 0 0 527.75,544 " fill="#FBFB77" filter="url(#ffq3he0drqezj)" style="stroke: #A80036; stroke-width: 1.0;"/><path d="M894.75,544 L894.75,554 L904.75,554 L894.75,544 " fill="#FBFB77" style="stroke: #A80036; stroke-width: 1.0;"/><text fill="#000000" font-family="sans-serif" font-size="13" lengthAdjust="spacingAndGlyphs" textLength="249" x="533.75" y="561.0669">void store(String key, Storable value) {</text><text fill="#000000" font-family="sans-serif" font-size="13" lengthAdjust="spacingAndGlyphs" textLength="310" x="541.75" y="576.1997">System.out.println("Storing on the file system.");</text><text fill="#000000" font-family="sans-serif" font-size="13" lengthAdjust="spacingAndGlyphs" textLength="8" x="533.75" y="591.3325">}</text><text fill="#000000" font-family="sans-serif" font-size="13" lengthAdjust="spacingAndGlyphs" textLength="261" x="533.75" y="606.4653">void update(String key, Storable value) {</text><text fill="#000000" font-family="sans-serif" font-size="13" lengthAdjust="spacingAndGlyphs" textLength="322" x="541.75" y="621.5981">System.out.println("Updating on the file system.");</text><text fill="#000000" font-family="sans-serif" font-size="13" lengthAdjust="spacingAndGlyphs" textLength="8" x="533.75" y="636.731">}</text><text fill="#000000" font-family="sans-serif" font-size="13" lengthAdjust="spacingAndGlyphs" textLength="256" x="533.75" y="651.8638">void delete(String key, Storable value) {</text><text fill="#000000" font-family="sans-serif" font-size="13" lengthAdjust="spacingAndGlyphs" textLength="331" x="541.75" y="666.9966">System.out.println("Deleting from the file system.");</text><text fill="#000000" font-family="sans-serif" font-size="13" lengthAdjust="spacingAndGlyphs" textLength="8" x="533.75" y="682.1294">}</text><text fill="#000000" font-family="sans-serif" font-size="13" lengthAdjust="spacingAndGlyphs" textLength="193" x="533.75" y="697.2622">Storable retrieve(String key) {</text><text fill="#000000" font-family="sans-serif" font-size="13" lengthAdjust="spacingAndGlyphs" textLength="348" x="541.75" y="712.395">System.out.println("Retrieving from the file sysytem.");</text><text fill="#000000" font-family="sans-serif" font-size="13" lengthAdjust="spacingAndGlyphs" textLength="8" x="533.75" y="727.5278">}</text><path d="M940,544 L940,735.5938 A0,0 0 0 0 940,735.5938 L1254,735.5938 A0,0 0 0 0 1254,735.5938 L1254,554 L1244,544 L1046.53,544 L1008.33,484.27 L1038.53,544 L940,544 A0,0 0 0 0 940,544 " fill="#FBFB77" filter="url(#ffq3he0drqezj)" style="stroke: #A80036; stroke-width: 1.0;"/><path d="M1244,544 L1244,554 L1254,554 L1244,544 " fill="#FBFB77" style="stroke: #A80036; stroke-width: 1.0;"/><text fill="#000000" font-family="sans-serif" font-size="13" lengthAdjust="spacingAndGlyphs" textLength="249" x="946" y="561.0669">void store(String key, Storable value) {</text><text fill="#000000" font-family="sans-serif" font-size="13" lengthAdjust="spacingAndGlyphs" textLength="249" x="954" y="576.1997">System.out.println("Storing in cache.");</text><text fill="#000000" font-family="sans-serif" font-size="13" lengthAdjust="spacingAndGlyphs" textLength="8" x="946" y="591.3325">}</text><text fill="#000000" font-family="sans-serif" font-size="13" lengthAdjust="spacingAndGlyphs" textLength="261" x="946" y="606.4653">void update(String key, Storable value) {</text><text fill="#000000" font-family="sans-serif" font-size="13" lengthAdjust="spacingAndGlyphs" textLength="246" x="954" y="621.5981">System.out.println("Updating cache.");</text><text fill="#000000" font-family="sans-serif" font-size="13" lengthAdjust="spacingAndGlyphs" textLength="8" x="946" y="636.731">}</text><text fill="#000000" font-family="sans-serif" font-size="13" lengthAdjust="spacingAndGlyphs" textLength="256" x="946" y="651.8638">void delete(String key, Storable value) {</text><text fill="#000000" font-family="sans-serif" font-size="13" lengthAdjust="spacingAndGlyphs" textLength="275" x="954" y="666.9966">System.out.println("Deleting from cache.");</text><text fill="#000000" font-family="sans-serif" font-size="13" lengthAdjust="spacingAndGlyphs" textLength="8" x="946" y="682.1294">}</text><text fill="#000000" font-family="sans-serif" font-size="13" lengthAdjust="spacingAndGlyphs" textLength="193" x="946" y="697.2622">Storable retrieve(String key) {</text><text fill="#000000" font-family="sans-serif" font-size="13" lengthAdjust="spacingAndGlyphs" textLength="285" x="954" y="712.395">System.out.println("Retrieving from cache.");</text><text fill="#000000" font-family="sans-serif" font-size="13" lengthAdjust="spacingAndGlyphs" textLength="8" x="946" y="727.5278">}</text><!--link MessageHandler to Storage--><path d="M716,168.414 C716,201.862 716,244.089 716,276.261 " fill="none" id="MessageHandler-Storage" style="stroke: #A80036; stroke-width: 1.0; stroke-dasharray: 7.0,7.0;"/><polygon fill="#A80036" points="716,155.138,712,161.138,716,167.138,720,161.138,716,155.138" style="stroke: #A80036; stroke-width: 1.0;"/><!--link Storage to FileSystemStorage--><path d="M588.189,383.805 C546.838,402.183 503.304,421.531 470.753,435.999 " fill="none" id="Storage-FileSystemStorage" style="stroke: #A80036; stroke-width: 1.0;"/><polygon fill="none" points="585.554,377.316,606.673,375.59,591.24,390.109,585.554,377.316" style="stroke: #A80036; stroke-width: 1.0;"/><!--link Storage to DatabaseStorage--><path d="M716,395.987 C716,410.396 716,424.615 716,435.889 " fill="none" id="Storage-DatabaseStorage" style="stroke: #A80036; stroke-width: 1.0;"/><polygon fill="none" points="709,395.777,716,375.777,723,395.777,709,395.777" style="stroke: #A80036; stroke-width: 1.0;"/><!--link Storage to InMemoryStorage--><path d="M836.851,384.177 C875.46,402.444 916.011,421.629 946.384,435.999 " fill="none" id="Storage-InMemoryStorage" style="stroke: #A80036; stroke-width: 1.0;"/><polygon fill="none" points="833.786,390.471,818.701,375.59,839.773,377.815,833.786,390.471" style="stroke: #A80036; stroke-width: 1.0;"/><!--
@startuml

Class MessageHandler {
-Storage storage
- -
+void handleMessageToUser(Message message)
+void handleResponseFromUser(Response response)
}
note left of MessageHandler
void handleMessageToUser(Message message) {
  ...
  storage.store(message.getId(), message) // Message implements Storable.
  ...
  sendMessage(message)
}
void handleResponseFromUser(Response response) {
  ...
  if (response.getStatus() == DELIVERED) {
    storage.delete(response.getId());
  }
  ...
}
end note
interface Storage {
+void store(String key, Storable value);
+void update(String key, Storable value);
+void delete(String key);
+Storable retrieve(String key);
}
class FileSystemStorage {

}
class DatabaseStorage {
}
class InMemoryStorage {
}
MessageHandler *.. Storage
Storage <|- - FileSystemStorage
Storage <|- - DatabaseStorage
Storage <|- - InMemoryStorage
note bottom of FileSystemStorage
void store(String key, Storable value) {
  System.out.println("Storing on the file system.");
}
void update(String key, Storable value) {
  System.out.println("Updating on the file system.");
}
void delete(String key, Storable value) {
  System.out.println("Deleting from the file system.");
}
Storable retrieve(String key) {
  System.out.println("Retrieving from the file sysytem.");
}
end note
note bottom of DatabaseStorage
void store(String key, Storable value) {
  System.out.println("Storing on the file system.");
}
void update(String key, Storable value) {
  System.out.println("Updating on the file system.");
}
void delete(String key, Storable value) {
  System.out.println("Deleting from the file system.");
}
Storable retrieve(String key) {
  System.out.println("Retrieving from the file sysytem.");
}
end note
note bottom of InMemoryStorage
void store(String key, Storable value) {
  System.out.println("Storing in cache.");
}
void update(String key, Storable value) {
  System.out.println("Updating cache.");
}
void delete(String key, Storable value) {
  System.out.println("Deleting from cache.");
}
Storable retrieve(String key) {
  System.out.println("Retrieving from cache.");
}
end note
@enduml

PlantUML version 1.2018.06(Mon May 21 06:34:53 EDT 2018)
(GPL source distribution)
Java Runtime: Java(TM) SE Runtime Environment
JVM: Java HotSpot(TM) 64-Bit Server VM
Java Version: 1.8.0_77-b03
Operating System: Linux
OS Version: 3.13.0-147-generic
Default Encoding: UTF-8
Language: en
Country: US
--></g></svg>