<?xml version="1.0" encoding="UTF-8" standalone="no"?><svg xmlns="http://www.w3.org/2000/svg" xmlns:xlink="http://www.w3.org/1999/xlink" contentScriptType="application/ecmascript" contentStyleType="text/css" height="779px" preserveAspectRatio="none" style="width:1365px;height:779px;" version="1.1" viewBox="0 0 1365 779" width="1365px" zoomAndPan="magnify"><defs><filter height="300%" id="feoarfped0r99" width="300%" x="-1" y="-1"><feGaussianBlur result="blurOut" stdDeviation="2.0"/><feColorMatrix in="blurOut" result="blurOut2" type="matrix" values="0 0 0 0 0 0 0 0 0 0 0 0 0 0 0 0 0 0 .4 0"/><feOffset dx="4.0" dy="4.0" in="blurOut2" result="blurOut3"/><feBlend in="SourceGraphic" in2="blurOut3" mode="normal"/></filter></defs><g><!--class Visitable--><rect fill="#FEFECE" filter="url(#feoarfped0r99)" height="60.8047" id="Visitable" style="stroke: #A80036; stroke-width: 1.5;" width="159" x="84.75" y="97.5"/><ellipse cx="134" cy="113.5" fill="#B4A7E5" rx="11" ry="11" style="stroke: #A80036; stroke-width: 1.0;"/><path d="M129.9219,109.2656 L129.9219,107.1094 L137.3125,107.1094 L137.3125,109.2656 L134.8438,109.2656 L134.8438,117.3438 L137.3125,117.3438 L137.3125,119.5 L129.9219,119.5 L129.9219,117.3438 L132.3906,117.3438 L132.3906,109.2656 L129.9219,109.2656 Z "/><text fill="#000000" font-family="sans-serif" font-size="12" font-style="italic" lengthAdjust="spacingAndGlyphs" textLength="52" x="154.5" y="117.6543">Visitable</text><line style="stroke: #A80036; stroke-width: 1.5;" x1="85.75" x2="242.75" y1="129.5" y2="129.5"/><line style="stroke: #A80036; stroke-width: 1.5;" x1="85.75" x2="242.75" y1="137.5" y2="137.5"/><text fill="#000000" font-family="sans-serif" font-size="11" lengthAdjust="spacingAndGlyphs" textLength="147" x="90.75" y="151.7104">void accept(Visitor visitor)</text><!--class Architect--><rect fill="#FEFECE" filter="url(#feoarfped0r99)" height="48" id="Architect" style="stroke: #A80036; stroke-width: 1.5;" width="88" x="6.5" y="595"/><ellipse cx="21.5" cy="611" fill="#ADD1B2" rx="11" ry="11" style="stroke: #A80036; stroke-width: 1.0;"/><path d="M24.4688,616.6406 Q23.8906,616.9375 23.25,617.0859 Q22.6094,617.2344 21.9063,617.2344 Q19.4063,617.2344 18.0859,615.5859 Q16.7656,613.9375 16.7656,610.8125 Q16.7656,607.6875 18.0859,606.0313 Q19.4063,604.375 21.9063,604.375 Q22.6094,604.375 23.2578,604.5313 Q23.9063,604.6875 24.4688,604.9844 L24.4688,607.7031 Q23.8438,607.125 23.25,606.8516 Q22.6563,606.5781 22.0313,606.5781 Q20.6875,606.5781 20,607.6484 Q19.3125,608.7188 19.3125,610.8125 Q19.3125,612.9063 20,613.9766 Q20.6875,615.0469 22.0313,615.0469 Q22.6563,615.0469 23.25,614.7734 Q23.8438,614.5 24.4688,613.9219 L24.4688,616.6406 Z "/><text fill="#000000" font-family="sans-serif" font-size="12" lengthAdjust="spacingAndGlyphs" textLength="56" x="35.5" y="615.1543">Architect</text><line style="stroke: #A80036; stroke-width: 1.5;" x1="7.5" x2="93.5" y1="627" y2="627"/><line style="stroke: #A80036; stroke-width: 1.5;" x1="7.5" x2="93.5" y1="635" y2="635"/><!--class ProductOwner--><rect fill="#FEFECE" filter="url(#feoarfped0r99)" height="48" id="ProductOwner" style="stroke: #A80036; stroke-width: 1.5;" width="120" x="512.5" y="104"/><ellipse cx="527.5" cy="120" fill="#ADD1B2" rx="11" ry="11" style="stroke: #A80036; stroke-width: 1.0;"/><path d="M530.4688,125.6406 Q529.8906,125.9375 529.25,126.0859 Q528.6094,126.2344 527.9063,126.2344 Q525.4063,126.2344 524.0859,124.5859 Q522.7656,122.9375 522.7656,119.8125 Q522.7656,116.6875 524.0859,115.0313 Q525.4063,113.375 527.9063,113.375 Q528.6094,113.375 529.2578,113.5313 Q529.9063,113.6875 530.4688,113.9844 L530.4688,116.7031 Q529.8438,116.125 529.25,115.8516 Q528.6563,115.5781 528.0313,115.5781 Q526.6875,115.5781 526,116.6484 Q525.3125,117.7188 525.3125,119.8125 Q525.3125,121.9063 526,122.9766 Q526.6875,124.0469 528.0313,124.0469 Q528.6563,124.0469 529.25,123.7734 Q529.8438,123.5 530.4688,122.9219 L530.4688,125.6406 Z "/><text fill="#000000" font-family="sans-serif" font-size="12" lengthAdjust="spacingAndGlyphs" textLength="88" x="541.5" y="124.1543">ProductOwner</text><line style="stroke: #A80036; stroke-width: 1.5;" x1="513.5" x2="631.5" y1="136" y2="136"/><line style="stroke: #A80036; stroke-width: 1.5;" x1="513.5" x2="631.5" y1="144" y2="144"/><!--class Manager--><rect fill="#FEFECE" filter="url(#feoarfped0r99)" height="48" id="Manager" style="stroke: #A80036; stroke-width: 1.5;" width="87" x="120.75" y="254"/><ellipse cx="135.75" cy="270" fill="#ADD1B2" rx="11" ry="11" style="stroke: #A80036; stroke-width: 1.0;"/><path d="M138.7188,275.6406 Q138.1406,275.9375 137.5,276.0859 Q136.8594,276.2344 136.1563,276.2344 Q133.6563,276.2344 132.3359,274.5859 Q131.0156,272.9375 131.0156,269.8125 Q131.0156,266.6875 132.3359,265.0313 Q133.6563,263.375 136.1563,263.375 Q136.8594,263.375 137.5078,263.5313 Q138.1563,263.6875 138.7188,263.9844 L138.7188,266.7031 Q138.0938,266.125 137.5,265.8516 Q136.9063,265.5781 136.2813,265.5781 Q134.9375,265.5781 134.25,266.6484 Q133.5625,267.7188 133.5625,269.8125 Q133.5625,271.9063 134.25,272.9766 Q134.9375,274.0469 136.2813,274.0469 Q136.9063,274.0469 137.5,273.7734 Q138.0938,273.5 138.7188,272.9219 L138.7188,275.6406 Z "/><text fill="#000000" font-family="sans-serif" font-size="12" lengthAdjust="spacingAndGlyphs" textLength="55" x="149.75" y="274.1543">Manager</text><line style="stroke: #A80036; stroke-width: 1.5;" x1="121.75" x2="206.75" y1="286" y2="286"/><line style="stroke: #A80036; stroke-width: 1.5;" x1="121.75" x2="206.75" y1="294" y2="294"/><!--class Tester--><rect fill="#FEFECE" filter="url(#feoarfped0r99)" height="48" id="Tester" style="stroke: #A80036; stroke-width: 1.5;" width="72" x="243" y="254"/><ellipse cx="258" cy="270" fill="#ADD1B2" rx="11" ry="11" style="stroke: #A80036; stroke-width: 1.0;"/><path d="M260.9688,275.6406 Q260.3906,275.9375 259.75,276.0859 Q259.1094,276.2344 258.4063,276.2344 Q255.9063,276.2344 254.5859,274.5859 Q253.2656,272.9375 253.2656,269.8125 Q253.2656,266.6875 254.5859,265.0313 Q255.9063,263.375 258.4063,263.375 Q259.1094,263.375 259.7578,263.5313 Q260.4063,263.6875 260.9688,263.9844 L260.9688,266.7031 Q260.3438,266.125 259.75,265.8516 Q259.1563,265.5781 258.5313,265.5781 Q257.1875,265.5781 256.5,266.6484 Q255.8125,267.7188 255.8125,269.8125 Q255.8125,271.9063 256.5,272.9766 Q257.1875,274.0469 258.5313,274.0469 Q259.1563,274.0469 259.75,273.7734 Q260.3438,273.5 260.9688,272.9219 L260.9688,275.6406 Z "/><text fill="#000000" font-family="sans-serif" font-size="12" lengthAdjust="spacingAndGlyphs" textLength="40" x="272" y="274.1543">Tester</text><line style="stroke: #A80036; stroke-width: 1.5;" x1="244" x2="314" y1="286" y2="286"/><line style="stroke: #A80036; stroke-width: 1.5;" x1="244" x2="314" y1="294" y2="294"/><!--class Developer--><rect fill="#FEFECE" filter="url(#feoarfped0r99)" height="48" id="Developer" style="stroke: #A80036; stroke-width: 1.5;" width="95" x="350.75" y="254"/><ellipse cx="365.75" cy="270" fill="#ADD1B2" rx="11" ry="11" style="stroke: #A80036; stroke-width: 1.0;"/><path d="M368.7188,275.6406 Q368.1406,275.9375 367.5,276.0859 Q366.8594,276.2344 366.1563,276.2344 Q363.6563,276.2344 362.3359,274.5859 Q361.0156,272.9375 361.0156,269.8125 Q361.0156,266.6875 362.3359,265.0313 Q363.6563,263.375 366.1563,263.375 Q366.8594,263.375 367.5078,263.5313 Q368.1563,263.6875 368.7188,263.9844 L368.7188,266.7031 Q368.0938,266.125 367.5,265.8516 Q366.9063,265.5781 366.2813,265.5781 Q364.9375,265.5781 364.25,266.6484 Q363.5625,267.7188 363.5625,269.8125 Q363.5625,271.9063 364.25,272.9766 Q364.9375,274.0469 366.2813,274.0469 Q366.9063,274.0469 367.5,273.7734 Q368.0938,273.5 368.7188,272.9219 L368.7188,275.6406 Z "/><text fill="#000000" font-family="sans-serif" font-size="12" lengthAdjust="spacingAndGlyphs" textLength="63" x="379.75" y="274.1543">Developer</text><line style="stroke: #A80036; stroke-width: 1.5;" x1="351.75" x2="444.75" y1="286" y2="286"/><line style="stroke: #A80036; stroke-width: 1.5;" x1="351.75" x2="444.75" y1="294" y2="294"/><!--class Visitor--><rect fill="#FEFECE" filter="url(#feoarfped0r99)" height="112.0234" id="Visitor" style="stroke: #A80036; stroke-width: 1.5;" width="234" x="667" y="72"/><ellipse cx="760.75" cy="88" fill="#B4A7E5" rx="11" ry="11" style="stroke: #A80036; stroke-width: 1.0;"/><path d="M756.6719,83.7656 L756.6719,81.6094 L764.0625,81.6094 L764.0625,83.7656 L761.5938,83.7656 L761.5938,91.8438 L764.0625,91.8438 L764.0625,94 L756.6719,94 L756.6719,91.8438 L759.1406,91.8438 L759.1406,83.7656 L756.6719,83.7656 Z "/><text fill="#000000" font-family="sans-serif" font-size="12" font-style="italic" lengthAdjust="spacingAndGlyphs" textLength="38" x="781.25" y="92.1543">Visitor</text><line style="stroke: #A80036; stroke-width: 1.5;" x1="668" x2="900" y1="104" y2="104"/><line style="stroke: #A80036; stroke-width: 1.5;" x1="668" x2="900" y1="112" y2="112"/><text fill="#000000" font-family="sans-serif" font-size="11" lengthAdjust="spacingAndGlyphs" textLength="160" x="673" y="126.2104">void visit(Architect architect)</text><text fill="#000000" font-family="sans-serif" font-size="11" lengthAdjust="spacingAndGlyphs" textLength="222" x="673" y="139.0151">void visit(ProductOwner productOwner)</text><text fill="#000000" font-family="sans-serif" font-size="11" lengthAdjust="spacingAndGlyphs" textLength="162" x="673" y="151.8198">void visit(Manager manager)</text><text fill="#000000" font-family="sans-serif" font-size="11" lengthAdjust="spacingAndGlyphs" textLength="133" x="673" y="164.6245">void visit(Tester tester)</text><text fill="#000000" font-family="sans-serif" font-size="11" lengthAdjust="spacingAndGlyphs" textLength="175" x="673" y="177.4292">void visit(Developer developer)</text><!--class RoleVisitor--><rect fill="#FEFECE" filter="url(#feoarfped0r99)" height="48" id="RoleVisitor" style="stroke: #A80036; stroke-width: 1.5;" width="98" x="614.5" y="362"/><ellipse cx="629.5" cy="378" fill="#ADD1B2" rx="11" ry="11" style="stroke: #A80036; stroke-width: 1.0;"/><path d="M632.4688,383.6406 Q631.8906,383.9375 631.25,384.0859 Q630.6094,384.2344 629.9063,384.2344 Q627.4063,384.2344 626.0859,382.5859 Q624.7656,380.9375 624.7656,377.8125 Q624.7656,374.6875 626.0859,373.0313 Q627.4063,371.375 629.9063,371.375 Q630.6094,371.375 631.2578,371.5313 Q631.9063,371.6875 632.4688,371.9844 L632.4688,374.7031 Q631.8438,374.125 631.25,373.8516 Q630.6563,373.5781 630.0313,373.5781 Q628.6875,373.5781 628,374.6484 Q627.3125,375.7188 627.3125,377.8125 Q627.3125,379.9063 628,380.9766 Q628.6875,382.0469 630.0313,382.0469 Q630.6563,382.0469 631.25,381.7734 Q631.8438,381.5 632.4688,380.9219 L632.4688,383.6406 Z "/><text fill="#000000" font-family="sans-serif" font-size="12" lengthAdjust="spacingAndGlyphs" textLength="66" x="643.5" y="382.1543">RoleVisitor</text><line style="stroke: #A80036; stroke-width: 1.5;" x1="615.5" x2="711.5" y1="394" y2="394"/><line style="stroke: #A80036; stroke-width: 1.5;" x1="615.5" x2="711.5" y1="402" y2="402"/><!--class ExperienceVisitor--><rect fill="#FEFECE" filter="url(#feoarfped0r99)" height="48" id="ExperienceVisitor" style="stroke: #A80036; stroke-width: 1.5;" width="140" x="834" y="362"/><ellipse cx="849" cy="378" fill="#ADD1B2" rx="11" ry="11" style="stroke: #A80036; stroke-width: 1.0;"/><path d="M851.9688,383.6406 Q851.3906,383.9375 850.75,384.0859 Q850.1094,384.2344 849.4063,384.2344 Q846.9063,384.2344 845.5859,382.5859 Q844.2656,380.9375 844.2656,377.8125 Q844.2656,374.6875 845.5859,373.0313 Q846.9063,371.375 849.4063,371.375 Q850.1094,371.375 850.7578,371.5313 Q851.4063,371.6875 851.9688,371.9844 L851.9688,374.7031 Q851.3438,374.125 850.75,373.8516 Q850.1563,373.5781 849.5313,373.5781 Q848.1875,373.5781 847.5,374.6484 Q846.8125,375.7188 846.8125,377.8125 Q846.8125,379.9063 847.5,380.9766 Q848.1875,382.0469 849.5313,382.0469 Q850.1563,382.0469 850.75,381.7734 Q851.3438,381.5 851.9688,380.9219 L851.9688,383.6406 Z "/><text fill="#000000" font-family="sans-serif" font-size="12" lengthAdjust="spacingAndGlyphs" textLength="108" x="863" y="382.1543">ExperienceVisitor</text><line style="stroke: #A80036; stroke-width: 1.5;" x1="835" x2="973" y1="394" y2="394"/><line style="stroke: #A80036; stroke-width: 1.5;" x1="835" x2="973" y1="402" y2="402"/><path d="M279,92.5 L279,124 L243.414,128 L279,132 L279,163.0313 A0,0 0 0 0 279,163.0313 L477,163.0313 A0,0 0 0 0 477,163.0313 L477,102.5 L467,92.5 L279,92.5 A0,0 0 0 0 279,92.5 " fill="#FBFB77" filter="url(#feoarfped0r99)" style="stroke: #A80036; stroke-width: 1.0;"/><path d="M467,92.5 L467,102.5 L477,102.5 L467,92.5 " fill="#FBFB77" style="stroke: #A80036; stroke-width: 1.0;"/><text fill="#000000" font-family="sans-serif" font-size="13" lengthAdjust="spacingAndGlyphs" textLength="127" x="285" y="109.5669">note left of Visitable</text><text fill="#000000" font-family="sans-serif" font-size="13" lengthAdjust="spacingAndGlyphs" textLength="177" x="285" y="124.6997">void accept(Visitor visitor) {</text><text fill="#000000" font-family="sans-serif" font-size="13" lengthAdjust="spacingAndGlyphs" textLength="104" x="301" y="139.8325">visitor.visit(this);</text><text fill="#000000" font-family="sans-serif" font-size="13" lengthAdjust="spacingAndGlyphs" textLength="8" x="285" y="154.9653">}</text><path d="M404,470 L404,767.5234 A0,0 0 0 0 404,767.5234 L798,767.5234 A0,0 0 0 0 798,767.5234 L798,480 L788,470 L644.728,470 L656.714,410.421 L636.728,470 L404,470 A0,0 0 0 0 404,470 " fill="#FBFB77" filter="url(#feoarfped0r99)" style="stroke: #A80036; stroke-width: 1.0;"/><path d="M788,470 L788,480 L798,480 L788,470 " fill="#FBFB77" style="stroke: #A80036; stroke-width: 1.0;"/><text fill="#000000" font-family="sans-serif" font-size="13" lengthAdjust="spacingAndGlyphs" textLength="194" x="410" y="487.0669">void visit(Architect architect) {</text><text fill="#000000" font-family="sans-serif" font-size="13" lengthAdjust="spacingAndGlyphs" textLength="298" x="426" y="502.1997">System.out.println("Decides on architecture.");</text><text fill="#000000" font-family="sans-serif" font-size="13" lengthAdjust="spacingAndGlyphs" textLength="8" x="410" y="517.3325">}</text><text fill="#000000" font-family="sans-serif" font-size="13" lengthAdjust="spacingAndGlyphs" textLength="0" x="414" y="532.4653"/><text fill="#000000" font-family="sans-serif" font-size="13" lengthAdjust="spacingAndGlyphs" textLength="259" x="410" y="547.5981">void visit(ProductOwner productOwner) {</text><text fill="#000000" font-family="sans-serif" font-size="13" lengthAdjust="spacingAndGlyphs" textLength="357" x="426" y="562.731">System.out.prinln("Translates business requirements.");</text><text fill="#000000" font-family="sans-serif" font-size="13" lengthAdjust="spacingAndGlyphs" textLength="8" x="410" y="577.8638">}</text><text fill="#000000" font-family="sans-serif" font-size="13" lengthAdjust="spacingAndGlyphs" textLength="0" x="414" y="592.9966"/><text fill="#000000" font-family="sans-serif" font-size="13" lengthAdjust="spacingAndGlyphs" textLength="195" x="410" y="608.1294">void visit(Manager manager) {</text><text fill="#000000" font-family="sans-serif" font-size="13" lengthAdjust="spacingAndGlyphs" textLength="303" x="426" y="623.2622">System.out.prinln("Helps remove roadblocks.");</text><text fill="#000000" font-family="sans-serif" font-size="13" lengthAdjust="spacingAndGlyphs" textLength="8" x="410" y="638.395">}</text><text fill="#000000" font-family="sans-serif" font-size="13" lengthAdjust="spacingAndGlyphs" textLength="0" x="414" y="653.5278"/><text fill="#000000" font-family="sans-serif" font-size="13" lengthAdjust="spacingAndGlyphs" textLength="159" x="410" y="668.6606">void visit(Tester tester) {</text><text fill="#000000" font-family="sans-serif" font-size="13" lengthAdjust="spacingAndGlyphs" textLength="240" x="426" y="683.7935">System.out.println("Tests the code.");</text><text fill="#000000" font-family="sans-serif" font-size="13" lengthAdjust="spacingAndGlyphs" textLength="8" x="410" y="698.9263">}</text><text fill="#000000" font-family="sans-serif" font-size="13" lengthAdjust="spacingAndGlyphs" textLength="0" x="414" y="714.0591"/><text fill="#000000" font-family="sans-serif" font-size="13" lengthAdjust="spacingAndGlyphs" textLength="209" x="410" y="729.1919">void visit(Developer developer) {</text><text fill="#000000" font-family="sans-serif" font-size="13" lengthAdjust="spacingAndGlyphs" textLength="245" x="426" y="744.3247">System.out.println("Writes the code.");</text><text fill="#000000" font-family="sans-serif" font-size="13" lengthAdjust="spacingAndGlyphs" textLength="8" x="410" y="759.4575">}</text><path d="M833.75,470 L833.75,767.5234 A0,0 0 0 0 833.75,767.5234 L1224.75,767.5234 A0,0 0 0 0 1224.75,767.5234 L1224.75,480 L1214.75,470 L952.903,470 L916.674,410.421 L944.903,470 L833.75,470 A0,0 0 0 0 833.75,470 " fill="#FBFB77" filter="url(#feoarfped0r99)" style="stroke: #A80036; stroke-width: 1.0;"/><path d="M1214.75,470 L1214.75,480 L1224.75,480 L1214.75,470 " fill="#FBFB77" style="stroke: #A80036; stroke-width: 1.0;"/><text fill="#000000" font-family="sans-serif" font-size="13" lengthAdjust="spacingAndGlyphs" textLength="194" x="839.75" y="487.0669">void visit(Architect architect) {</text><text fill="#000000" font-family="sans-serif" font-size="13" lengthAdjust="spacingAndGlyphs" textLength="285" x="855.75" y="502.1997">System.out.println("25+ years of required.");</text><text fill="#000000" font-family="sans-serif" font-size="13" lengthAdjust="spacingAndGlyphs" textLength="8" x="839.75" y="517.3325">}</text><text fill="#000000" font-family="sans-serif" font-size="13" lengthAdjust="spacingAndGlyphs" textLength="0" x="843.75" y="532.4653"/><text fill="#000000" font-family="sans-serif" font-size="13" lengthAdjust="spacingAndGlyphs" textLength="259" x="839.75" y="547.5981">void visit(ProductOwner productOwner) {</text><text fill="#000000" font-family="sans-serif" font-size="13" lengthAdjust="spacingAndGlyphs" textLength="354" x="855.75" y="562.731">System.out.prinln("10+ years of experience required.");</text><text fill="#000000" font-family="sans-serif" font-size="13" lengthAdjust="spacingAndGlyphs" textLength="8" x="839.75" y="577.8638">}</text><text fill="#000000" font-family="sans-serif" font-size="13" lengthAdjust="spacingAndGlyphs" textLength="0" x="843.75" y="592.9966"/><text fill="#000000" font-family="sans-serif" font-size="13" lengthAdjust="spacingAndGlyphs" textLength="195" x="839.75" y="608.1294">void visit(Manager manager) {</text><text fill="#000000" font-family="sans-serif" font-size="13" lengthAdjust="spacingAndGlyphs" textLength="354" x="855.75" y="623.2622">System.out.prinln("10+ years of experience required.");</text><text fill="#000000" font-family="sans-serif" font-size="13" lengthAdjust="spacingAndGlyphs" textLength="8" x="839.75" y="638.395">}</text><text fill="#000000" font-family="sans-serif" font-size="13" lengthAdjust="spacingAndGlyphs" textLength="0" x="843.75" y="653.5278"/><text fill="#000000" font-family="sans-serif" font-size="13" lengthAdjust="spacingAndGlyphs" textLength="159" x="839.75" y="668.6606">void visit(Tester tester) {</text><text fill="#000000" font-family="sans-serif" font-size="13" lengthAdjust="spacingAndGlyphs" textLength="295" x="855.75" y="683.7935">System.out.println("No experience required.");</text><text fill="#000000" font-family="sans-serif" font-size="13" lengthAdjust="spacingAndGlyphs" textLength="8" x="839.75" y="698.9263">}</text><text fill="#000000" font-family="sans-serif" font-size="13" lengthAdjust="spacingAndGlyphs" textLength="0" x="843.75" y="714.0591"/><text fill="#000000" font-family="sans-serif" font-size="13" lengthAdjust="spacingAndGlyphs" textLength="209" x="839.75" y="729.1919">void visit(Developer developer) {</text><text fill="#000000" font-family="sans-serif" font-size="13" lengthAdjust="spacingAndGlyphs" textLength="295" x="855.75" y="744.3247">System.out.println("No experience required.");</text><text fill="#000000" font-family="sans-serif" font-size="13" lengthAdjust="spacingAndGlyphs" textLength="8" x="839.75" y="759.4575">}</text><path d="M936.75,62.5 L936.75,193.5625 L1353.75,193.5625 L1353.75,72.5 L1343.75,62.5 L936.75,62.5 " fill="#FBFB77" filter="url(#feoarfped0r99)" style="stroke: #A80036; stroke-width: 1.0;"/><path d="M1343.75,62.5 L1343.75,72.5 L1353.75,72.5 L1343.75,62.5 " fill="#FBFB77" style="stroke: #A80036; stroke-width: 1.0;"/><text fill="#000000" font-family="sans-serif" font-size="13" lengthAdjust="spacingAndGlyphs" textLength="40" x="942.75" y="79.5669">Client:</text><text fill="#000000" font-family="sans-serif" font-size="13" lengthAdjust="spacingAndGlyphs" textLength="0" x="946.75" y="94.6997"/><text fill="#000000" font-family="sans-serif" font-size="13" lengthAdjust="spacingAndGlyphs" textLength="264" x="942.75" y="109.8325">RoleVisitor roleVisitor = new RoleVisitor();</text><text fill="#000000" font-family="sans-serif" font-size="13" lengthAdjust="spacingAndGlyphs" textLength="396" x="942.75" y="124.9653">ExperienceVisitor experienceVisitor = new ExperienceVisitor();</text><text fill="#000000" font-family="sans-serif" font-size="13" lengthAdjust="spacingAndGlyphs" textLength="236" x="942.75" y="140.0981">Architect architect = new Architect();</text><text fill="#000000" font-family="sans-serif" font-size="13" lengthAdjust="spacingAndGlyphs" textLength="0" x="946.75" y="155.231"/><text fill="#000000" font-family="sans-serif" font-size="13" lengthAdjust="spacingAndGlyphs" textLength="181" x="942.75" y="170.3638">architect.accept(roleVisitor);</text><text fill="#000000" font-family="sans-serif" font-size="13" lengthAdjust="spacingAndGlyphs" textLength="227" x="942.75" y="185.4966">architect.accept(experienceVisitor);</text><!--link Visitable to Architect--><path d="M121.491,175.788 C107.737,198.68 94.3146,227.054 86,254 C47.4944,378.79 36.6868,536.486 42.5626,594.884 " fill="none" id="Visitable-Architect" style="stroke: #A80036; stroke-width: 1.0; stroke-dasharray: 7.0,7.0;"/><polygon fill="none" points="115.772,171.742,132.501,158.737,127.533,179.336,115.772,171.742" style="stroke: #A80036; stroke-width: 1.0;"/><!--link Visitable to Architect--><path d="M152.546,177.155 C142.208,199.803 129.15,227.587 121,254 C82.4944,378.79 71.6868,536.486 59.7212,594.884 " fill="none" id="Visitable-Architect" style="stroke: #A80036; stroke-width: 1.0; stroke-dasharray: 7.0,7.0;"/><polygon fill="none" points="146.214,174.166,160.738,158.737,159.005,179.856,146.214,174.166" style="stroke: #A80036; stroke-width: 1.0;"/><!--link Visitable to Visitor--><path d="M189.539,97.229 C210.671,74.351 242.908,44.947 278.5,32 C352.01,5.261 555.312,10.424 630.5,32 C657.662,39.794 684.678,53.954 708.3,69.047 " fill="none" id="Visitable-Visitor" style="stroke: #A80036; stroke-width: 1.0; stroke-dasharray: 7.0,7.0;"/><polygon fill="#A80036" points="712.671,71.875,707.2885,63.6271,708.4733,69.1584,702.942,70.3433,712.671,71.875" style="stroke: #A80036; stroke-width: 1.0;"/><!--link Visitable to ProductOwner--><path d="M203.726,82.672 C223.906,63.084 250.137,42.317 278.5,32 C361.199,1.919 395.243,-1.782 476.5,32 C511.232,46.44 539.854,80.33 556.436,103.717 " fill="none" id="Visitable-ProductOwner" style="stroke: #A80036; stroke-width: 1.0; stroke-dasharray: 7.0,7.0;"/><polygon fill="none" points="208.511,87.792,189.539,97.229,198.485,78.021,208.511,87.792" style="stroke: #A80036; stroke-width: 1.0;"/><!--link Visitable to Manager--><path d="M164,178.6 C164,203.99 164,233.694 164,253.771 " fill="none" id="Visitable-Manager" style="stroke: #A80036; stroke-width: 1.0; stroke-dasharray: 7.0,7.0;"/><polygon fill="none" points="157,178.594,164,158.594,171,178.594,157,178.594" style="stroke: #A80036; stroke-width: 1.0;"/><!--link Visitable to Tester--><path d="M199.318,174.453 C219.707,200.693 244.492,232.59 260.95,253.771 " fill="none" id="Visitable-Tester" style="stroke: #A80036; stroke-width: 1.0; stroke-dasharray: 7.0,7.0;"/><polygon fill="none" points="193.74,178.682,186.996,158.594,204.795,170.092,193.74,178.682" style="stroke: #A80036; stroke-width: 1.0;"/><!--link Visitable to Developer--><path d="M223.903,169.76 C236.111,177.892 248.917,186.297 261,194 C293.595,214.779 331.183,237.463 358.733,253.857 " fill="none" id="Visitable-Developer" style="stroke: #A80036; stroke-width: 1.0; stroke-dasharray: 7.0,7.0;"/><polygon fill="none" points="219.893,175.499,207.179,158.547,227.689,163.871,219.893,175.499" style="stroke: #A80036; stroke-width: 1.0;"/><!--link Visitor to RoleVisitor--><path d="M749.24,202.543 C723.783,256.402 690.853,326.072 674,361.727 " fill="none" id="Visitor-RoleVisitor" style="stroke: #A80036; stroke-width: 1.0; stroke-dasharray: 7.0,7.0;"/><polygon fill="none" points="743.018,199.324,757.894,184.233,755.676,205.306,743.018,199.324" style="stroke: #A80036; stroke-width: 1.0;"/><!--link Visitor to ExperienceVisitor--><path d="M818.473,202.543 C843.72,256.402 876.378,326.072 893.091,361.727 " fill="none" id="Visitor-ExperienceVisitor" style="stroke: #A80036; stroke-width: 1.0; stroke-dasharray: 7.0,7.0;"/><polygon fill="none" points="812.041,205.313,809.89,184.233,824.717,199.371,812.041,205.313" style="stroke: #A80036; stroke-width: 1.0;"/><!--
@startuml

Interface Visitable {
  void accept(Visitor visitor)
}
Class Architect {
}
Class ProductOwner {
}
Class Manager {
}
Class Tester {
}
Class Developer {
}
Interface Visitor {
  void visit(Architect architect)
  void visit(ProductOwner productOwner)
  void visit(Manager manager)
  void visit(Tester tester)
  void visit(Developer developer)
}
Class RoleVisitor {
}
Class ExperienceVisitor {
}
Visitable <|.. Architect
Visitable .> Visitor
Visitable <|.... Architect
Visitable <|. ProductOwner
Visitable <|.. Manager
Visitable <|.. Tester
Visitable <|.. Developer
Visitor <|... RoleVisitor
Visitor <|... ExperienceVisitor
note right of Visitable
note left of Visitable
void accept(Visitor visitor) {
    visitor.visit(this);
}
end note
note bottom of RoleVisitor
void visit(Architect architect) {
    System.out.println("Decides on architecture.");
}

void visit(ProductOwner productOwner) {
    System.out.prinln("Translates business requirements.");
}

void visit(Manager manager) {
    System.out.prinln("Helps remove roadblocks.");
}

void visit(Tester tester) {
    System.out.println("Tests the code.");
}

void visit(Developer developer) {
    System.out.println("Writes the code.");
}
end note
note bottom of ExperienceVisitor
void visit(Architect architect) {
    System.out.println("25+ years of required.");
}

void visit(ProductOwner productOwner) {
    System.out.prinln("10+ years of experience required.");
}

void visit(Manager manager) {
    System.out.prinln("10+ years of experience required.");
}

void visit(Tester tester) {
    System.out.println("No experience required.");
}

void visit(Developer developer) {
    System.out.println("No experience required.");
}
end note
note as N1
Client:

RoleVisitor roleVisitor = new RoleVisitor();
ExperienceVisitor experienceVisitor = new ExperienceVisitor();
Architect architect = new Architect();

architect.accept(roleVisitor);
architect.accept(experienceVisitor);
end note

@enduml

PlantUML version 1.2018.06(Mon May 21 06:34:53 EDT 2018)
(GPL source distribution)
Java Runtime: Java(TM) SE Runtime Environment
JVM: Java HotSpot(TM) 64-Bit Server VM
Java Version: 1.8.0_77-b03
Operating System: Linux
OS Version: 3.13.0-147-generic
Default Encoding: UTF-8
Language: en
Country: US
--></g></svg>