<?xml version="1.0" encoding="UTF-8" standalone="no"?><svg xmlns="http://www.w3.org/2000/svg" xmlns:xlink="http://www.w3.org/1999/xlink" contentScriptType="application/ecmascript" contentStyleType="text/css" height="705px" preserveAspectRatio="none" style="width:1731px;height:705px;" version="1.1" viewBox="0 0 1731 705" width="1731px" zoomAndPan="magnify"><defs><filter height="300%" id="ff6md2buauk7b" width="300%" x="-1" y="-1"><feGaussianBlur result="blurOut" stdDeviation="2.0"/><feColorMatrix in="blurOut" result="blurOut2" type="matrix" values="0 0 0 0 0 0 0 0 0 0 0 0 0 0 0 0 0 0 .4 0"/><feOffset dx="4.0" dy="4.0" in="blurOut2" result="blurOut3"/><feBlend in="SourceGraphic" in2="blurOut3" mode="normal"/></filter></defs><g><!--class RequestProcessor--><rect fill="#FEFECE" filter="url(#ff6md2buauk7b)" height="73.6094" id="RequestProcessor" style="stroke: #A80036; stroke-width: 1.5;" width="247" x="435.75" y="82"/><ellipse cx="497.5" cy="98" fill="#ADD1B2" rx="11" ry="11" style="stroke: #A80036; stroke-width: 1.0;"/><path d="M500.4688,103.6406 Q499.8906,103.9375 499.25,104.0859 Q498.6094,104.2344 497.9063,104.2344 Q495.4063,104.2344 494.0859,102.5859 Q492.7656,100.9375 492.7656,97.8125 Q492.7656,94.6875 494.0859,93.0313 Q495.4063,91.375 497.9063,91.375 Q498.6094,91.375 499.2578,91.5313 Q499.9063,91.6875 500.4688,91.9844 L500.4688,94.7031 Q499.8438,94.125 499.25,93.8516 Q498.6563,93.5781 498.0313,93.5781 Q496.6875,93.5781 496,94.6484 Q495.3125,95.7188 495.3125,97.8125 Q495.3125,99.9063 496,100.9766 Q496.6875,102.0469 498.0313,102.0469 Q498.6563,102.0469 499.25,101.7734 Q499.8438,101.5 500.4688,100.9219 L500.4688,103.6406 Z "/><text fill="#000000" font-family="sans-serif" font-size="12" lengthAdjust="spacingAndGlyphs" textLength="115" x="518" y="102.1543">RequestProcessor</text><line style="stroke: #A80036; stroke-width: 1.5;" x1="436.75" x2="681.75" y1="114" y2="114"/><rect fill="none" height="6" style="stroke: #C82930; stroke-width: 1.0;" width="6" x="443.75" y="122.9023"/><text fill="#000000" font-family="sans-serif" font-size="11" lengthAdjust="spacingAndGlyphs" textLength="102" x="455.75" y="128.2104">Executor executor</text><line style="stroke: #A80036; stroke-width: 1.0;" x1="436.75" x2="681.75" y1="134.8047" y2="134.8047"/><ellipse cx="446.75" cy="146.707" fill="#84BE84" rx="3" ry="3" style="stroke: #038048; stroke-width: 1.0;"/><text fill="#000000" font-family="sans-serif" font-size="11" lengthAdjust="spacingAndGlyphs" textLength="221" x="455.75" y="149.0151">void processRequest(Request request)</text><!--class Executor--><rect fill="#FEFECE" filter="url(#ff6md2buauk7b)" height="60.8047" id="Executor" style="stroke: #A80036; stroke-width: 1.5;" width="317" x="717.75" y="88.5"/><ellipse cx="844.5" cy="104.5" fill="#ADD1B2" rx="11" ry="11" style="stroke: #A80036; stroke-width: 1.0;"/><path d="M847.4688,110.1406 Q846.8906,110.4375 846.25,110.5859 Q845.6094,110.7344 844.9063,110.7344 Q842.4063,110.7344 841.0859,109.0859 Q839.7656,107.4375 839.7656,104.3125 Q839.7656,101.1875 841.0859,99.5313 Q842.4063,97.875 844.9063,97.875 Q845.6094,97.875 846.2578,98.0313 Q846.9063,98.1875 847.4688,98.4844 L847.4688,101.2031 Q846.8438,100.625 846.25,100.3516 Q845.6563,100.0781 845.0313,100.0781 Q843.6875,100.0781 843,101.1484 Q842.3125,102.2188 842.3125,104.3125 Q842.3125,106.4063 843,107.4766 Q843.6875,108.5469 845.0313,108.5469 Q845.6563,108.5469 846.25,108.2734 Q846.8438,108 847.4688,107.4219 L847.4688,110.1406 Z "/><text fill="#000000" font-family="sans-serif" font-size="12" lengthAdjust="spacingAndGlyphs" textLength="55" x="865" y="108.6543">Executor</text><line style="stroke: #A80036; stroke-width: 1.5;" x1="718.75" x2="1033.75" y1="120.5" y2="120.5"/><line style="stroke: #A80036; stroke-width: 1.5;" x1="718.75" x2="1033.75" y1="128.5" y2="128.5"/><ellipse cx="728.75" cy="140.4023" fill="#84BE84" rx="3" ry="3" style="stroke: #038048; stroke-width: 1.0;"/><text fill="#000000" font-family="sans-serif" font-size="11" lengthAdjust="spacingAndGlyphs" textLength="291" x="737.75" y="142.7104">void addToQueue(long delay, Command command)</text><!--class Command--><rect fill="#FEFECE" filter="url(#ff6md2buauk7b)" height="60.8047" id="Command" style="stroke: #A80036; stroke-width: 1.5;" width="105" x="1069.75" y="88.5"/><ellipse cx="1089.7" cy="104.5" fill="#B4A7E5" rx="11" ry="11" style="stroke: #A80036; stroke-width: 1.0;"/><path d="M1085.6219,100.2656 L1085.6219,98.1094 L1093.0125,98.1094 L1093.0125,100.2656 L1090.5438,100.2656 L1090.5438,108.3438 L1093.0125,108.3438 L1093.0125,110.5 L1085.6219,110.5 L1085.6219,108.3438 L1088.0906,108.3438 L1088.0906,100.2656 L1085.6219,100.2656 Z "/><text fill="#000000" font-family="sans-serif" font-size="12" font-style="italic" lengthAdjust="spacingAndGlyphs" textLength="62" x="1104.8" y="108.6543">Command</text><line style="stroke: #A80036; stroke-width: 1.5;" x1="1070.75" x2="1173.75" y1="120.5" y2="120.5"/><line style="stroke: #A80036; stroke-width: 1.5;" x1="1070.75" x2="1173.75" y1="128.5" y2="128.5"/><ellipse cx="1080.75" cy="140.4023" fill="#84BE84" rx="3" ry="3" style="stroke: #038048; stroke-width: 1.0;"/><text fill="#000000" font-family="sans-serif" font-size="11" lengthAdjust="spacingAndGlyphs" textLength="79" x="1089.75" y="142.7104">void execute()</text><!--class CreateUser--><rect fill="#FEFECE" filter="url(#ff6md2buauk7b)" height="48" id="CreateUser" style="stroke: #A80036; stroke-width: 1.5;" width="103" x="887.75" y="410"/><ellipse cx="902.75" cy="426" fill="#ADD1B2" rx="11" ry="11" style="stroke: #A80036; stroke-width: 1.0;"/><path d="M905.7188,431.6406 Q905.1406,431.9375 904.5,432.0859 Q903.8594,432.2344 903.1563,432.2344 Q900.6563,432.2344 899.3359,430.5859 Q898.0156,428.9375 898.0156,425.8125 Q898.0156,422.6875 899.3359,421.0313 Q900.6563,419.375 903.1563,419.375 Q903.8594,419.375 904.5078,419.5313 Q905.1563,419.6875 905.7188,419.9844 L905.7188,422.7031 Q905.0938,422.125 904.5,421.8516 Q903.9063,421.5781 903.2813,421.5781 Q901.9375,421.5781 901.25,422.6484 Q900.5625,423.7188 900.5625,425.8125 Q900.5625,427.9063 901.25,428.9766 Q901.9375,430.0469 903.2813,430.0469 Q903.9063,430.0469 904.5,429.7734 Q905.0938,429.5 905.7188,428.9219 L905.7188,431.6406 Z "/><text fill="#000000" font-family="sans-serif" font-size="12" lengthAdjust="spacingAndGlyphs" textLength="71" x="916.75" y="430.1543">CreateUser</text><line style="stroke: #A80036; stroke-width: 1.5;" x1="888.75" x2="989.75" y1="442" y2="442"/><line style="stroke: #A80036; stroke-width: 1.5;" x1="888.75" x2="989.75" y1="450" y2="450"/><!--class RetrieveUser--><rect fill="#FEFECE" filter="url(#ff6md2buauk7b)" height="48" id="RetrieveUser" style="stroke: #A80036; stroke-width: 1.5;" width="112" x="1490.5" y="95"/><ellipse cx="1505.5" cy="111" fill="#ADD1B2" rx="11" ry="11" style="stroke: #A80036; stroke-width: 1.0;"/><path d="M1508.4688,116.6406 Q1507.8906,116.9375 1507.25,117.0859 Q1506.6094,117.2344 1505.9063,117.2344 Q1503.4063,117.2344 1502.0859,115.5859 Q1500.7656,113.9375 1500.7656,110.8125 Q1500.7656,107.6875 1502.0859,106.0313 Q1503.4063,104.375 1505.9063,104.375 Q1506.6094,104.375 1507.2578,104.5313 Q1507.9063,104.6875 1508.4688,104.9844 L1508.4688,107.7031 Q1507.8438,107.125 1507.25,106.8516 Q1506.6563,106.5781 1506.0313,106.5781 Q1504.6875,106.5781 1504,107.6484 Q1503.3125,108.7188 1503.3125,110.8125 Q1503.3125,112.9063 1504,113.9766 Q1504.6875,115.0469 1506.0313,115.0469 Q1506.6563,115.0469 1507.25,114.7734 Q1507.8438,114.5 1508.4688,113.9219 L1508.4688,116.6406 Z "/><text fill="#000000" font-family="sans-serif" font-size="12" lengthAdjust="spacingAndGlyphs" textLength="80" x="1519.5" y="115.1543">RetrieveUser</text><line style="stroke: #A80036; stroke-width: 1.5;" x1="1491.5" x2="1601.5" y1="127" y2="127"/><line style="stroke: #A80036; stroke-width: 1.5;" x1="1491.5" x2="1601.5" y1="135" y2="135"/><!--class UpdateUser--><rect fill="#FEFECE" filter="url(#ff6md2buauk7b)" height="48" id="UpdateUser" style="stroke: #A80036; stroke-width: 1.5;" width="107" x="1108.75" y="526"/><ellipse cx="1123.75" cy="542" fill="#ADD1B2" rx="11" ry="11" style="stroke: #A80036; stroke-width: 1.0;"/><path d="M1126.7188,547.6406 Q1126.1406,547.9375 1125.5,548.0859 Q1124.8594,548.2344 1124.1563,548.2344 Q1121.6563,548.2344 1120.3359,546.5859 Q1119.0156,544.9375 1119.0156,541.8125 Q1119.0156,538.6875 1120.3359,537.0313 Q1121.6563,535.375 1124.1563,535.375 Q1124.8594,535.375 1125.5078,535.5313 Q1126.1563,535.6875 1126.7188,535.9844 L1126.7188,538.7031 Q1126.0938,538.125 1125.5,537.8516 Q1124.9063,537.5781 1124.2813,537.5781 Q1122.9375,537.5781 1122.25,538.6484 Q1121.5625,539.7188 1121.5625,541.8125 Q1121.5625,543.9063 1122.25,544.9766 Q1122.9375,546.0469 1124.2813,546.0469 Q1124.9063,546.0469 1125.5,545.7734 Q1126.0938,545.5 1126.7188,544.9219 L1126.7188,547.6406 Z "/><text fill="#000000" font-family="sans-serif" font-size="12" lengthAdjust="spacingAndGlyphs" textLength="75" x="1137.75" y="546.1543">UpdateUser</text><line style="stroke: #A80036; stroke-width: 1.5;" x1="1109.75" x2="1214.75" y1="558" y2="558"/><line style="stroke: #A80036; stroke-width: 1.5;" x1="1109.75" x2="1214.75" y1="566" y2="566"/><!--class DeleteUser--><rect fill="#FEFECE" filter="url(#ff6md2buauk7b)" height="48" id="DeleteUser" style="stroke: #A80036; stroke-width: 1.5;" width="102" x="1236.5" y="294"/><ellipse cx="1251.5" cy="310" fill="#ADD1B2" rx="11" ry="11" style="stroke: #A80036; stroke-width: 1.0;"/><path d="M1254.4688,315.6406 Q1253.8906,315.9375 1253.25,316.0859 Q1252.6094,316.2344 1251.9063,316.2344 Q1249.4063,316.2344 1248.0859,314.5859 Q1246.7656,312.9375 1246.7656,309.8125 Q1246.7656,306.6875 1248.0859,305.0313 Q1249.4063,303.375 1251.9063,303.375 Q1252.6094,303.375 1253.2578,303.5313 Q1253.9063,303.6875 1254.4688,303.9844 L1254.4688,306.7031 Q1253.8438,306.125 1253.25,305.8516 Q1252.6563,305.5781 1252.0313,305.5781 Q1250.6875,305.5781 1250,306.6484 Q1249.3125,307.7188 1249.3125,309.8125 Q1249.3125,311.9063 1250,312.9766 Q1250.6875,314.0469 1252.0313,314.0469 Q1252.6563,314.0469 1253.25,313.7734 Q1253.8438,313.5 1254.4688,312.9219 L1254.4688,315.6406 Z "/><text fill="#000000" font-family="sans-serif" font-size="12" lengthAdjust="spacingAndGlyphs" textLength="70" x="1265.5" y="314.1543">DeleteUser</text><line style="stroke: #A80036; stroke-width: 1.5;" x1="1237.5" x2="1337.5" y1="326" y2="326"/><line style="stroke: #A80036; stroke-width: 1.5;" x1="1237.5" x2="1337.5" y1="334" y2="334"/><path d="M6,8 L6,229.8594 A0,0 0 0 0 6,229.8594 L400,229.8594 A0,0 0 0 0 400,229.8594 L400,123 L435.496,119 L400,115 L400,18 L390,8 L6,8 A0,0 0 0 0 6,8 " fill="#FBFB77" filter="url(#ff6md2buauk7b)" style="stroke: #A80036; stroke-width: 1.0;"/><path d="M390,8 L390,18 L400,18 L390,8 " fill="#FBFB77" style="stroke: #A80036; stroke-width: 1.0;"/><text fill="#000000" font-family="sans-serif" font-size="13" lengthAdjust="spacingAndGlyphs" textLength="259" x="12" y="25.0669">void processRequest(Request request) {</text><text fill="#000000" font-family="sans-serif" font-size="13" lengthAdjust="spacingAndGlyphs" textLength="175" x="20" y="40.1997">switch(request.getType()) {</text><text fill="#000000" font-family="sans-serif" font-size="13" lengthAdjust="spacingAndGlyphs" textLength="87" x="28" y="55.3325">case CREATE:</text><text fill="#000000" font-family="sans-serif" font-size="13" lengthAdjust="spacingAndGlyphs" textLength="332" x="44" y="70.4653">executor.addToQueue(0, new CreateUser(request));</text><text fill="#000000" font-family="sans-serif" font-size="13" lengthAdjust="spacingAndGlyphs" textLength="97" x="28" y="85.5981">case RETRIEVE:</text><text fill="#000000" font-family="sans-serif" font-size="13" lengthAdjust="spacingAndGlyphs" textLength="341" x="44" y="100.731">executor.addToQueue(0, new RetrieveUser(request));</text><text fill="#000000" font-family="sans-serif" font-size="13" lengthAdjust="spacingAndGlyphs" textLength="90" x="28" y="115.8638">case UPDATE:</text><text fill="#000000" font-family="sans-serif" font-size="13" lengthAdjust="spacingAndGlyphs" textLength="336" x="44" y="130.9966">executor.addToQueue(0, new UpdateUser(request));</text><text fill="#000000" font-family="sans-serif" font-size="13" lengthAdjust="spacingAndGlyphs" textLength="86" x="28" y="146.1294">case DELETE:</text><text fill="#000000" font-family="sans-serif" font-size="13" lengthAdjust="spacingAndGlyphs" textLength="331" x="44" y="161.2622">executor.addToQueue(0, new DeleteUser(request));</text><text fill="#000000" font-family="sans-serif" font-size="13" lengthAdjust="spacingAndGlyphs" textLength="48" x="28" y="176.395">default:</text><text fill="#000000" font-family="sans-serif" font-size="13" lengthAdjust="spacingAndGlyphs" textLength="290" x="44" y="191.5278">throw new UnsupportedOperationException();</text><text fill="#000000" font-family="sans-serif" font-size="13" lengthAdjust="spacingAndGlyphs" textLength="8" x="20" y="206.6606">}</text><text fill="#000000" font-family="sans-serif" font-size="13" lengthAdjust="spacingAndGlyphs" textLength="8" x="12" y="221.7935">}</text><path d="M727,522.5 L727,577.8984 A0,0 0 0 0 727,577.8984 L1073,577.8984 A0,0 0 0 0 1073,577.8984 L1073,532.5 L1063,522.5 L913.111,522.5 L931.108,458.07 L905.111,522.5 L727,522.5 A0,0 0 0 0 727,522.5 " fill="#FBFB77" filter="url(#ff6md2buauk7b)" style="stroke: #A80036; stroke-width: 1.0;"/><path d="M1063,522.5 L1063,532.5 L1073,532.5 L1063,522.5 " fill="#FBFB77" style="stroke: #A80036; stroke-width: 1.0;"/><text fill="#000000" font-family="sans-serif" font-size="13" lengthAdjust="spacingAndGlyphs" textLength="103" x="733" y="539.5669">void execute() {</text><text fill="#000000" font-family="sans-serif" font-size="13" lengthAdjust="spacingAndGlyphs" textLength="309" x="741" y="554.6997">System.out.println("User successfully created.");</text><text fill="#000000" font-family="sans-serif" font-size="13" lengthAdjust="spacingAndGlyphs" textLength="8" x="733" y="569.8325">}</text><path d="M1373,290.5 L1373,345.8984 A0,0 0 0 0 1373,345.8984 L1719,345.8984 A0,0 0 0 0 1719,345.8984 L1719,300.5 L1709,290.5 L1550,290.5 L1546,143.372 L1542,290.5 L1373,290.5 A0,0 0 0 0 1373,290.5 " fill="#FBFB77" filter="url(#ff6md2buauk7b)" style="stroke: #A80036; stroke-width: 1.0;"/><path d="M1709,290.5 L1709,300.5 L1719,300.5 L1709,290.5 " fill="#FBFB77" style="stroke: #A80036; stroke-width: 1.0;"/><text fill="#000000" font-family="sans-serif" font-size="13" lengthAdjust="spacingAndGlyphs" textLength="103" x="1379" y="307.5669">void execute() {</text><text fill="#000000" font-family="sans-serif" font-size="13" lengthAdjust="spacingAndGlyphs" textLength="317" x="1387" y="322.6997">System.out.println("User successfully retrieved.");</text><text fill="#000000" font-family="sans-serif" font-size="13" lengthAdjust="spacingAndGlyphs" textLength="8" x="1379" y="337.8325">}</text><path d="M991,638.5 L991,693.8984 A0,0 0 0 0 991,693.8984 L1333,693.8984 A0,0 0 0 0 1333,693.8984 L1333,648.5 L1323,638.5 L1166,638.5 L1162,574.07 L1158,638.5 L991,638.5 A0,0 0 0 0 991,638.5 " fill="#FBFB77" filter="url(#ff6md2buauk7b)" style="stroke: #A80036; stroke-width: 1.0;"/><path d="M1323,638.5 L1323,648.5 L1333,648.5 L1323,638.5 " fill="#FBFB77" style="stroke: #A80036; stroke-width: 1.0;"/><text fill="#000000" font-family="sans-serif" font-size="13" lengthAdjust="spacingAndGlyphs" textLength="103" x="997" y="655.5669">void execute() {</text><text fill="#000000" font-family="sans-serif" font-size="13" lengthAdjust="spacingAndGlyphs" textLength="313" x="1005" y="670.6997">System.out.println("User successfully updated.");</text><text fill="#000000" font-family="sans-serif" font-size="13" lengthAdjust="spacingAndGlyphs" textLength="8" x="997" y="685.8325">}</text><path d="M1175,406.5 L1175,461.8984 A0,0 0 0 0 1175,461.8984 L1521,461.8984 A0,0 0 0 0 1521,461.8984 L1521,416.5 L1511,406.5 L1337.75,406.5 L1299.34,342.07 L1329.75,406.5 L1175,406.5 A0,0 0 0 0 1175,406.5 " fill="#FBFB77" filter="url(#ff6md2buauk7b)" style="stroke: #A80036; stroke-width: 1.0;"/><path d="M1511,406.5 L1511,416.5 L1521,416.5 L1511,406.5 " fill="#FBFB77" style="stroke: #A80036; stroke-width: 1.0;"/><text fill="#000000" font-family="sans-serif" font-size="13" lengthAdjust="spacingAndGlyphs" textLength="103" x="1181" y="423.5669">void execute() {</text><text fill="#000000" font-family="sans-serif" font-size="13" lengthAdjust="spacingAndGlyphs" textLength="317" x="1189" y="438.6997">System.out.println("User successfully removed.");</text><text fill="#000000" font-family="sans-serif" font-size="13" lengthAdjust="spacingAndGlyphs" textLength="8" x="1181" y="453.8325">}</text><!--link RequestProcessor to Executor--><path d="M682.519,119 C692.494,119 702.47,119 712.446,119 " fill="none" id="RequestProcessor-Executor" style="stroke: #A80036; stroke-width: 1.0; stroke-dasharray: 7.0,7.0;"/><polygon fill="#A80036" points="717.663,119,708.663,115,712.663,119,708.663,123,717.663,119" style="stroke: #A80036; stroke-width: 1.0;"/><!--link Executor to Command--><path d="M1034.55,119 C1044.54,119 1054.53,119 1064.52,119 " fill="none" id="Executor-Command" style="stroke: #A80036; stroke-width: 1.0; stroke-dasharray: 7.0,7.0;"/><polygon fill="#A80036" points="1069.74,119,1060.74,115,1064.74,119,1060.74,123,1069.74,119" style="stroke: #A80036; stroke-width: 1.0;"/><!--link Command to CreateUser--><path d="M1094.28,167.413 C1054.37,235.665 982.268,358.995 952.458,409.982 " fill="none" id="Command-CreateUser" style="stroke: #A80036; stroke-width: 1.0; stroke-dasharray: 7.0,7.0;"/><polygon fill="none" points="1088.48,163.461,1104.62,149.728,1100.57,170.527,1088.48,163.461" style="stroke: #A80036; stroke-width: 1.0;"/><!--link Command to RetrieveUser--><path d="M1194.62,119 C1293.13,119 1391.63,119 1490.14,119 " fill="none" id="Command-RetrieveUser" style="stroke: #A80036; stroke-width: 1.0; stroke-dasharray: 7.0,7.0;"/><polygon fill="none" points="1194.59,126,1174.59,119,1194.59,112,1194.59,126" style="stroke: #A80036; stroke-width: 1.0;"/><!--link Command to UpdateUser--><path d="M1126.64,169.777 C1135.29,262.572 1153.58,458.667 1159.84,525.848 " fill="none" id="Command-UpdateUser" style="stroke: #A80036; stroke-width: 1.0; stroke-dasharray: 7.0,7.0;"/><polygon fill="none" points="1119.67,170.389,1124.78,149.826,1133.61,169.09,1119.67,170.389" style="stroke: #A80036; stroke-width: 1.0;"/><!--link Command to DeleteUser--><path d="M1160.06,165.445 C1193.68,205.582 1241.33,262.47 1267.65,293.894 " fill="none" id="Command-DeleteUser" style="stroke: #A80036; stroke-width: 1.0; stroke-dasharray: 7.0,7.0;"/><polygon fill="none" points="1154.54,169.747,1147.06,149.92,1165.27,160.758,1154.54,169.747" style="stroke: #A80036; stroke-width: 1.0;"/><!--
@startuml

Class RequestProcessor {
  -Executor executor
  - -
  +void processRequest(Request request)
}
Class Executor {
  +void addToQueue(long delay, Command command)
}
Interface Command {
  +void execute()
}
Class CreateUser {
}
Class RetrieveUser {
}
Class UpdateUser {
}
Class DeleteUser {
}
note left of RequestProcessor
void processRequest(Request request) {
  switch(request.getType()) {
    case CREATE:
        executor.addToQueue(0, new CreateUser(request));
    case RETRIEVE:
	executor.addToQueue(0, new RetrieveUser(request));
    case UPDATE:
        executor.addToQueue(0, new UpdateUser(request));
    case DELETE:
        executor.addToQueue(0, new DeleteUser(request));
    default:
        throw new UnsupportedOperationException();
  }
}
end note
note bottom of CreateUser
void execute() {
  System.out.println("User successfully created.");  
}
end note
note bottom of RetrieveUser
void execute() {
  System.out.println("User successfully retrieved.");
}
end note
note bottom of UpdateUser
void execute() {
  System.out.println("User successfully updated.");
}
end note
note bottom of DeleteUser
void execute() {
  System.out.println("User successfully removed.");
}
end note
RequestProcessor .> Executor
Executor .> Command
Command <|... CreateUser
Command <|. RetrieveUser
Command <|.... UpdateUser
Command <|.. DeleteUser

@enduml

PlantUML version 1.2018.06(Mon May 21 06:34:53 EDT 2018)
(GPL source distribution)
Java Runtime: Java(TM) SE Runtime Environment
JVM: Java HotSpot(TM) 64-Bit Server VM
Java Version: 1.8.0_77-b03
Operating System: Linux
OS Version: 3.13.0-147-generic
Default Encoding: UTF-8
Language: en
Country: US
--></g></svg>