<?xml version="1.0" encoding="UTF-8" standalone="no"?><svg xmlns="http://www.w3.org/2000/svg" xmlns:xlink="http://www.w3.org/1999/xlink" contentScriptType="application/ecmascript" contentStyleType="text/css" height="776px" preserveAspectRatio="none" style="width:1374px;height:776px;" version="1.1" viewBox="0 0 1374 776" width="1374px" zoomAndPan="magnify"><defs><filter height="300%" id="f1svp6khum9rc" width="300%" x="-1" y="-1"><feGaussianBlur result="blurOut" stdDeviation="2.0"/><feColorMatrix in="blurOut" result="blurOut2" type="matrix" values="0 0 0 0 0 0 0 0 0 0 0 0 0 0 0 0 0 0 .4 0"/><feOffset dx="4.0" dy="4.0" in="blurOut2" result="blurOut3"/><feBlend in="SourceGraphic" in2="blurOut3" mode="normal"/></filter></defs><g><!--class Visitable--><rect fill="#FEFECE" filter="url(#f1svp6khum9rc)" height="60.8047" id="Visitable" style="stroke: #A80036; stroke-width: 1.5;" width="159" x="248.75" y="94.5"/><ellipse cx="298" cy="110.5" fill="#B4A7E5" rx="11" ry="11" style="stroke: #A80036; stroke-width: 1.0;"/><path d="M293.9219,106.2656 L293.9219,104.1094 L301.3125,104.1094 L301.3125,106.2656 L298.8438,106.2656 L298.8438,114.3438 L301.3125,114.3438 L301.3125,116.5 L293.9219,116.5 L293.9219,114.3438 L296.3906,114.3438 L296.3906,106.2656 L293.9219,106.2656 Z "/><text fill="#000000" font-family="sans-serif" font-size="12" font-style="italic" lengthAdjust="spacingAndGlyphs" textLength="52" x="318.5" y="114.6543">Visitable</text><line style="stroke: #A80036; stroke-width: 1.5;" x1="249.75" x2="406.75" y1="126.5" y2="126.5"/><line style="stroke: #A80036; stroke-width: 1.5;" x1="249.75" x2="406.75" y1="134.5" y2="134.5"/><text fill="#000000" font-family="sans-serif" font-size="11" lengthAdjust="spacingAndGlyphs" textLength="147" x="254.75" y="148.7104">void accept(Visitor visitor)</text><!--class Architect--><rect fill="#FEFECE" filter="url(#f1svp6khum9rc)" height="48" id="Architect" style="stroke: #A80036; stroke-width: 1.5;" width="88" x="6.5" y="251"/><ellipse cx="21.5" cy="267" fill="#ADD1B2" rx="11" ry="11" style="stroke: #A80036; stroke-width: 1.0;"/><path d="M24.4688,272.6406 Q23.8906,272.9375 23.25,273.0859 Q22.6094,273.2344 21.9063,273.2344 Q19.4063,273.2344 18.0859,271.5859 Q16.7656,269.9375 16.7656,266.8125 Q16.7656,263.6875 18.0859,262.0313 Q19.4063,260.375 21.9063,260.375 Q22.6094,260.375 23.2578,260.5313 Q23.9063,260.6875 24.4688,260.9844 L24.4688,263.7031 Q23.8438,263.125 23.25,262.8516 Q22.6563,262.5781 22.0313,262.5781 Q20.6875,262.5781 20,263.6484 Q19.3125,264.7188 19.3125,266.8125 Q19.3125,268.9063 20,269.9766 Q20.6875,271.0469 22.0313,271.0469 Q22.6563,271.0469 23.25,270.7734 Q23.8438,270.5 24.4688,269.9219 L24.4688,272.6406 Z "/><text fill="#000000" font-family="sans-serif" font-size="12" lengthAdjust="spacingAndGlyphs" textLength="56" x="35.5" y="271.1543">Architect</text><line style="stroke: #A80036; stroke-width: 1.5;" x1="7.5" x2="93.5" y1="283" y2="283"/><line style="stroke: #A80036; stroke-width: 1.5;" x1="7.5" x2="93.5" y1="291" y2="291"/><!--class ProductOwner--><rect fill="#FEFECE" filter="url(#f1svp6khum9rc)" height="48" id="ProductOwner" style="stroke: #A80036; stroke-width: 1.5;" width="120" x="129.5" y="251"/><ellipse cx="144.5" cy="267" fill="#ADD1B2" rx="11" ry="11" style="stroke: #A80036; stroke-width: 1.0;"/><path d="M147.4688,272.6406 Q146.8906,272.9375 146.25,273.0859 Q145.6094,273.2344 144.9063,273.2344 Q142.4063,273.2344 141.0859,271.5859 Q139.7656,269.9375 139.7656,266.8125 Q139.7656,263.6875 141.0859,262.0313 Q142.4063,260.375 144.9063,260.375 Q145.6094,260.375 146.2578,260.5313 Q146.9063,260.6875 147.4688,260.9844 L147.4688,263.7031 Q146.8438,263.125 146.25,262.8516 Q145.6563,262.5781 145.0313,262.5781 Q143.6875,262.5781 143,263.6484 Q142.3125,264.7188 142.3125,266.8125 Q142.3125,268.9063 143,269.9766 Q143.6875,271.0469 145.0313,271.0469 Q145.6563,271.0469 146.25,270.7734 Q146.8438,270.5 147.4688,269.9219 L147.4688,272.6406 Z "/><text fill="#000000" font-family="sans-serif" font-size="12" lengthAdjust="spacingAndGlyphs" textLength="88" x="158.5" y="271.1543">ProductOwner</text><line style="stroke: #A80036; stroke-width: 1.5;" x1="130.5" x2="248.5" y1="283" y2="283"/><line style="stroke: #A80036; stroke-width: 1.5;" x1="130.5" x2="248.5" y1="291" y2="291"/><!--class Manager--><rect fill="#FEFECE" filter="url(#f1svp6khum9rc)" height="48" id="Manager" style="stroke: #A80036; stroke-width: 1.5;" width="87" x="284.75" y="251"/><ellipse cx="299.75" cy="267" fill="#ADD1B2" rx="11" ry="11" style="stroke: #A80036; stroke-width: 1.0;"/><path d="M302.7188,272.6406 Q302.1406,272.9375 301.5,273.0859 Q300.8594,273.2344 300.1563,273.2344 Q297.6563,273.2344 296.3359,271.5859 Q295.0156,269.9375 295.0156,266.8125 Q295.0156,263.6875 296.3359,262.0313 Q297.6563,260.375 300.1563,260.375 Q300.8594,260.375 301.5078,260.5313 Q302.1563,260.6875 302.7188,260.9844 L302.7188,263.7031 Q302.0938,263.125 301.5,262.8516 Q300.9063,262.5781 300.2813,262.5781 Q298.9375,262.5781 298.25,263.6484 Q297.5625,264.7188 297.5625,266.8125 Q297.5625,268.9063 298.25,269.9766 Q298.9375,271.0469 300.2813,271.0469 Q300.9063,271.0469 301.5,270.7734 Q302.0938,270.5 302.7188,269.9219 L302.7188,272.6406 Z "/><text fill="#000000" font-family="sans-serif" font-size="12" lengthAdjust="spacingAndGlyphs" textLength="55" x="313.75" y="271.1543">Manager</text><line style="stroke: #A80036; stroke-width: 1.5;" x1="285.75" x2="370.75" y1="283" y2="283"/><line style="stroke: #A80036; stroke-width: 1.5;" x1="285.75" x2="370.75" y1="291" y2="291"/><!--class Tester--><rect fill="#FEFECE" filter="url(#f1svp6khum9rc)" height="48" id="Tester" style="stroke: #A80036; stroke-width: 1.5;" width="72" x="407" y="251"/><ellipse cx="422" cy="267" fill="#ADD1B2" rx="11" ry="11" style="stroke: #A80036; stroke-width: 1.0;"/><path d="M424.9688,272.6406 Q424.3906,272.9375 423.75,273.0859 Q423.1094,273.2344 422.4063,273.2344 Q419.9063,273.2344 418.5859,271.5859 Q417.2656,269.9375 417.2656,266.8125 Q417.2656,263.6875 418.5859,262.0313 Q419.9063,260.375 422.4063,260.375 Q423.1094,260.375 423.7578,260.5313 Q424.4063,260.6875 424.9688,260.9844 L424.9688,263.7031 Q424.3438,263.125 423.75,262.8516 Q423.1563,262.5781 422.5313,262.5781 Q421.1875,262.5781 420.5,263.6484 Q419.8125,264.7188 419.8125,266.8125 Q419.8125,268.9063 420.5,269.9766 Q421.1875,271.0469 422.5313,271.0469 Q423.1563,271.0469 423.75,270.7734 Q424.3438,270.5 424.9688,269.9219 L424.9688,272.6406 Z "/><text fill="#000000" font-family="sans-serif" font-size="12" lengthAdjust="spacingAndGlyphs" textLength="40" x="436" y="271.1543">Tester</text><line style="stroke: #A80036; stroke-width: 1.5;" x1="408" x2="478" y1="283" y2="283"/><line style="stroke: #A80036; stroke-width: 1.5;" x1="408" x2="478" y1="291" y2="291"/><!--class Developer--><rect fill="#FEFECE" filter="url(#f1svp6khum9rc)" height="48" id="Developer" style="stroke: #A80036; stroke-width: 1.5;" width="95" x="514.75" y="251"/><ellipse cx="529.75" cy="267" fill="#ADD1B2" rx="11" ry="11" style="stroke: #A80036; stroke-width: 1.0;"/><path d="M532.7188,272.6406 Q532.1406,272.9375 531.5,273.0859 Q530.8594,273.2344 530.1563,273.2344 Q527.6563,273.2344 526.3359,271.5859 Q525.0156,269.9375 525.0156,266.8125 Q525.0156,263.6875 526.3359,262.0313 Q527.6563,260.375 530.1563,260.375 Q530.8594,260.375 531.5078,260.5313 Q532.1563,260.6875 532.7188,260.9844 L532.7188,263.7031 Q532.0938,263.125 531.5,262.8516 Q530.9063,262.5781 530.2813,262.5781 Q528.9375,262.5781 528.25,263.6484 Q527.5625,264.7188 527.5625,266.8125 Q527.5625,268.9063 528.25,269.9766 Q528.9375,271.0469 530.2813,271.0469 Q530.9063,271.0469 531.5,270.7734 Q532.0938,270.5 532.7188,269.9219 L532.7188,272.6406 Z "/><text fill="#000000" font-family="sans-serif" font-size="12" lengthAdjust="spacingAndGlyphs" textLength="63" x="543.75" y="271.1543">Developer</text><line style="stroke: #A80036; stroke-width: 1.5;" x1="515.75" x2="608.75" y1="283" y2="283"/><line style="stroke: #A80036; stroke-width: 1.5;" x1="515.75" x2="608.75" y1="291" y2="291"/><!--class Visitor--><rect fill="#FEFECE" filter="url(#f1svp6khum9rc)" height="112.0234" id="Visitor" style="stroke: #A80036; stroke-width: 1.5;" width="234" x="676" y="69"/><ellipse cx="769.75" cy="85" fill="#B4A7E5" rx="11" ry="11" style="stroke: #A80036; stroke-width: 1.0;"/><path d="M765.6719,80.7656 L765.6719,78.6094 L773.0625,78.6094 L773.0625,80.7656 L770.5938,80.7656 L770.5938,88.8438 L773.0625,88.8438 L773.0625,91 L765.6719,91 L765.6719,88.8438 L768.1406,88.8438 L768.1406,80.7656 L765.6719,80.7656 Z "/><text fill="#000000" font-family="sans-serif" font-size="12" font-style="italic" lengthAdjust="spacingAndGlyphs" textLength="38" x="790.25" y="89.1543">Visitor</text><line style="stroke: #A80036; stroke-width: 1.5;" x1="677" x2="909" y1="101" y2="101"/><line style="stroke: #A80036; stroke-width: 1.5;" x1="677" x2="909" y1="109" y2="109"/><text fill="#000000" font-family="sans-serif" font-size="11" lengthAdjust="spacingAndGlyphs" textLength="160" x="682" y="123.2104">void visit(Architect architect)</text><text fill="#000000" font-family="sans-serif" font-size="11" lengthAdjust="spacingAndGlyphs" textLength="222" x="682" y="136.0151">void visit(ProductOwner productOwner)</text><text fill="#000000" font-family="sans-serif" font-size="11" lengthAdjust="spacingAndGlyphs" textLength="162" x="682" y="148.8198">void visit(Manager manager)</text><text fill="#000000" font-family="sans-serif" font-size="11" lengthAdjust="spacingAndGlyphs" textLength="133" x="682" y="161.6245">void visit(Tester tester)</text><text fill="#000000" font-family="sans-serif" font-size="11" lengthAdjust="spacingAndGlyphs" textLength="175" x="682" y="174.4292">void visit(Developer developer)</text><!--class RoleVisitor--><rect fill="#FEFECE" filter="url(#f1svp6khum9rc)" height="48" id="RoleVisitor" style="stroke: #A80036; stroke-width: 1.5;" width="98" x="626.5" y="359"/><ellipse cx="641.5" cy="375" fill="#ADD1B2" rx="11" ry="11" style="stroke: #A80036; stroke-width: 1.0;"/><path d="M644.4688,380.6406 Q643.8906,380.9375 643.25,381.0859 Q642.6094,381.2344 641.9063,381.2344 Q639.4063,381.2344 638.0859,379.5859 Q636.7656,377.9375 636.7656,374.8125 Q636.7656,371.6875 638.0859,370.0313 Q639.4063,368.375 641.9063,368.375 Q642.6094,368.375 643.2578,368.5313 Q643.9063,368.6875 644.4688,368.9844 L644.4688,371.7031 Q643.8438,371.125 643.25,370.8516 Q642.6563,370.5781 642.0313,370.5781 Q640.6875,370.5781 640,371.6484 Q639.3125,372.7188 639.3125,374.8125 Q639.3125,376.9063 640,377.9766 Q640.6875,379.0469 642.0313,379.0469 Q642.6563,379.0469 643.25,378.7734 Q643.8438,378.5 644.4688,377.9219 L644.4688,380.6406 Z "/><text fill="#000000" font-family="sans-serif" font-size="12" lengthAdjust="spacingAndGlyphs" textLength="66" x="655.5" y="379.1543">RoleVisitor</text><line style="stroke: #A80036; stroke-width: 1.5;" x1="627.5" x2="723.5" y1="391" y2="391"/><line style="stroke: #A80036; stroke-width: 1.5;" x1="627.5" x2="723.5" y1="399" y2="399"/><!--class ExperienceVisitor--><rect fill="#FEFECE" filter="url(#f1svp6khum9rc)" height="48" id="ExperienceVisitor" style="stroke: #A80036; stroke-width: 1.5;" width="140" x="896" y="359"/><ellipse cx="911" cy="375" fill="#ADD1B2" rx="11" ry="11" style="stroke: #A80036; stroke-width: 1.0;"/><path d="M913.9688,380.6406 Q913.3906,380.9375 912.75,381.0859 Q912.1094,381.2344 911.4063,381.2344 Q908.9063,381.2344 907.5859,379.5859 Q906.2656,377.9375 906.2656,374.8125 Q906.2656,371.6875 907.5859,370.0313 Q908.9063,368.375 911.4063,368.375 Q912.1094,368.375 912.7578,368.5313 Q913.4063,368.6875 913.9688,368.9844 L913.9688,371.7031 Q913.3438,371.125 912.75,370.8516 Q912.1563,370.5781 911.5313,370.5781 Q910.1875,370.5781 909.5,371.6484 Q908.8125,372.7188 908.8125,374.8125 Q908.8125,376.9063 909.5,377.9766 Q910.1875,379.0469 911.5313,379.0469 Q912.1563,379.0469 912.75,378.7734 Q913.3438,378.5 913.9688,377.9219 L913.9688,380.6406 Z "/><text fill="#000000" font-family="sans-serif" font-size="12" lengthAdjust="spacingAndGlyphs" textLength="108" x="925" y="379.1543">ExperienceVisitor</text><line style="stroke: #A80036; stroke-width: 1.5;" x1="897" x2="1035" y1="391" y2="391"/><line style="stroke: #A80036; stroke-width: 1.5;" x1="897" x2="1035" y1="399" y2="399"/><path d="M443,89.5 L443,121 L407.414,125 L443,129 L443,160.0313 A0,0 0 0 0 443,160.0313 L641,160.0313 A0,0 0 0 0 641,160.0313 L641,99.5 L631,89.5 L443,89.5 A0,0 0 0 0 443,89.5 " fill="#FBFB77" filter="url(#f1svp6khum9rc)" style="stroke: #A80036; stroke-width: 1.0;"/><path d="M631,89.5 L631,99.5 L641,99.5 L631,89.5 " fill="#FBFB77" style="stroke: #A80036; stroke-width: 1.0;"/><text fill="#000000" font-family="sans-serif" font-size="13" lengthAdjust="spacingAndGlyphs" textLength="127" x="449" y="106.5669">note left of Visitable</text><text fill="#000000" font-family="sans-serif" font-size="13" lengthAdjust="spacingAndGlyphs" textLength="177" x="449" y="121.6997">void accept(Visitor visitor) {</text><text fill="#000000" font-family="sans-serif" font-size="13" lengthAdjust="spacingAndGlyphs" textLength="104" x="465" y="136.8325">visitor.visit(this);</text><text fill="#000000" font-family="sans-serif" font-size="13" lengthAdjust="spacingAndGlyphs" textLength="8" x="449" y="151.9653">}</text><path d="M410,467 L410,764.5234 A0,0 0 0 0 410,764.5234 L804,764.5234 A0,0 0 0 0 804,764.5234 L804,477 L794,467 L654.573,467 L668.106,407.421 L646.573,467 L410,467 A0,0 0 0 0 410,467 " fill="#FBFB77" filter="url(#f1svp6khum9rc)" style="stroke: #A80036; stroke-width: 1.0;"/><path d="M794,467 L794,477 L804,477 L794,467 " fill="#FBFB77" style="stroke: #A80036; stroke-width: 1.0;"/><text fill="#000000" font-family="sans-serif" font-size="13" lengthAdjust="spacingAndGlyphs" textLength="194" x="416" y="484.0669">void visit(Architect architect) {</text><text fill="#000000" font-family="sans-serif" font-size="13" lengthAdjust="spacingAndGlyphs" textLength="298" x="432" y="499.1997">System.out.println("Decides on architecture.");</text><text fill="#000000" font-family="sans-serif" font-size="13" lengthAdjust="spacingAndGlyphs" textLength="8" x="416" y="514.3325">}</text><text fill="#000000" font-family="sans-serif" font-size="13" lengthAdjust="spacingAndGlyphs" textLength="0" x="420" y="529.4653"/><text fill="#000000" font-family="sans-serif" font-size="13" lengthAdjust="spacingAndGlyphs" textLength="259" x="416" y="544.5981">void visit(ProductOwner productOwner) {</text><text fill="#000000" font-family="sans-serif" font-size="13" lengthAdjust="spacingAndGlyphs" textLength="357" x="432" y="559.731">System.out.prinln("Translates business requirements.");</text><text fill="#000000" font-family="sans-serif" font-size="13" lengthAdjust="spacingAndGlyphs" textLength="8" x="416" y="574.8638">}</text><text fill="#000000" font-family="sans-serif" font-size="13" lengthAdjust="spacingAndGlyphs" textLength="0" x="420" y="589.9966"/><text fill="#000000" font-family="sans-serif" font-size="13" lengthAdjust="spacingAndGlyphs" textLength="195" x="416" y="605.1294">void visit(Manager manager) {</text><text fill="#000000" font-family="sans-serif" font-size="13" lengthAdjust="spacingAndGlyphs" textLength="303" x="432" y="620.2622">System.out.prinln("Helps remove roadblocks.");</text><text fill="#000000" font-family="sans-serif" font-size="13" lengthAdjust="spacingAndGlyphs" textLength="8" x="416" y="635.395">}</text><text fill="#000000" font-family="sans-serif" font-size="13" lengthAdjust="spacingAndGlyphs" textLength="0" x="420" y="650.5278"/><text fill="#000000" font-family="sans-serif" font-size="13" lengthAdjust="spacingAndGlyphs" textLength="159" x="416" y="665.6606">void visit(Tester tester) {</text><text fill="#000000" font-family="sans-serif" font-size="13" lengthAdjust="spacingAndGlyphs" textLength="240" x="432" y="680.7935">System.out.println("Tests the code.");</text><text fill="#000000" font-family="sans-serif" font-size="13" lengthAdjust="spacingAndGlyphs" textLength="8" x="416" y="695.9263">}</text><text fill="#000000" font-family="sans-serif" font-size="13" lengthAdjust="spacingAndGlyphs" textLength="0" x="420" y="711.0591"/><text fill="#000000" font-family="sans-serif" font-size="13" lengthAdjust="spacingAndGlyphs" textLength="209" x="416" y="726.1919">void visit(Developer developer) {</text><text fill="#000000" font-family="sans-serif" font-size="13" lengthAdjust="spacingAndGlyphs" textLength="245" x="432" y="741.3247">System.out.println("Writes the code.");</text><text fill="#000000" font-family="sans-serif" font-size="13" lengthAdjust="spacingAndGlyphs" textLength="8" x="416" y="756.4575">}</text><path d="M839.75,467 L839.75,764.5234 A0,0 0 0 0 839.75,764.5234 L1230.75,764.5234 A0,0 0 0 0 1230.75,764.5234 L1230.75,477 L1220.75,467 L994.786,467 L972.996,407.421 L986.786,467 L839.75,467 A0,0 0 0 0 839.75,467 " fill="#FBFB77" filter="url(#f1svp6khum9rc)" style="stroke: #A80036; stroke-width: 1.0;"/><path d="M1220.75,467 L1220.75,477 L1230.75,477 L1220.75,467 " fill="#FBFB77" style="stroke: #A80036; stroke-width: 1.0;"/><text fill="#000000" font-family="sans-serif" font-size="13" lengthAdjust="spacingAndGlyphs" textLength="194" x="845.75" y="484.0669">void visit(Architect architect) {</text><text fill="#000000" font-family="sans-serif" font-size="13" lengthAdjust="spacingAndGlyphs" textLength="285" x="861.75" y="499.1997">System.out.println("25+ years of required.");</text><text fill="#000000" font-family="sans-serif" font-size="13" lengthAdjust="spacingAndGlyphs" textLength="8" x="845.75" y="514.3325">}</text><text fill="#000000" font-family="sans-serif" font-size="13" lengthAdjust="spacingAndGlyphs" textLength="0" x="849.75" y="529.4653"/><text fill="#000000" font-family="sans-serif" font-size="13" lengthAdjust="spacingAndGlyphs" textLength="259" x="845.75" y="544.5981">void visit(ProductOwner productOwner) {</text><text fill="#000000" font-family="sans-serif" font-size="13" lengthAdjust="spacingAndGlyphs" textLength="354" x="861.75" y="559.731">System.out.prinln("10+ years of experience required.");</text><text fill="#000000" font-family="sans-serif" font-size="13" lengthAdjust="spacingAndGlyphs" textLength="8" x="845.75" y="574.8638">}</text><text fill="#000000" font-family="sans-serif" font-size="13" lengthAdjust="spacingAndGlyphs" textLength="0" x="849.75" y="589.9966"/><text fill="#000000" font-family="sans-serif" font-size="13" lengthAdjust="spacingAndGlyphs" textLength="195" x="845.75" y="605.1294">void visit(Manager manager) {</text><text fill="#000000" font-family="sans-serif" font-size="13" lengthAdjust="spacingAndGlyphs" textLength="354" x="861.75" y="620.2622">System.out.prinln("10+ years of experience required.");</text><text fill="#000000" font-family="sans-serif" font-size="13" lengthAdjust="spacingAndGlyphs" textLength="8" x="845.75" y="635.395">}</text><text fill="#000000" font-family="sans-serif" font-size="13" lengthAdjust="spacingAndGlyphs" textLength="0" x="849.75" y="650.5278"/><text fill="#000000" font-family="sans-serif" font-size="13" lengthAdjust="spacingAndGlyphs" textLength="159" x="845.75" y="665.6606">void visit(Tester tester) {</text><text fill="#000000" font-family="sans-serif" font-size="13" lengthAdjust="spacingAndGlyphs" textLength="295" x="861.75" y="680.7935">System.out.println("No experience required.");</text><text fill="#000000" font-family="sans-serif" font-size="13" lengthAdjust="spacingAndGlyphs" textLength="8" x="845.75" y="695.9263">}</text><text fill="#000000" font-family="sans-serif" font-size="13" lengthAdjust="spacingAndGlyphs" textLength="0" x="849.75" y="711.0591"/><text fill="#000000" font-family="sans-serif" font-size="13" lengthAdjust="spacingAndGlyphs" textLength="209" x="845.75" y="726.1919">void visit(Developer developer) {</text><text fill="#000000" font-family="sans-serif" font-size="13" lengthAdjust="spacingAndGlyphs" textLength="295" x="861.75" y="741.3247">System.out.println("No experience required.");</text><text fill="#000000" font-family="sans-serif" font-size="13" lengthAdjust="spacingAndGlyphs" textLength="8" x="845.75" y="756.4575">}</text><path d="M945.75,59.5 L945.75,190.5625 L1362.75,190.5625 L1362.75,69.5 L1352.75,59.5 L945.75,59.5 " fill="#FBFB77" filter="url(#f1svp6khum9rc)" style="stroke: #A80036; stroke-width: 1.0;"/><path d="M1352.75,59.5 L1352.75,69.5 L1362.75,69.5 L1352.75,59.5 " fill="#FBFB77" style="stroke: #A80036; stroke-width: 1.0;"/><text fill="#000000" font-family="sans-serif" font-size="13" lengthAdjust="spacingAndGlyphs" textLength="40" x="951.75" y="76.5669">Client:</text><text fill="#000000" font-family="sans-serif" font-size="13" lengthAdjust="spacingAndGlyphs" textLength="0" x="955.75" y="91.6997"/><text fill="#000000" font-family="sans-serif" font-size="13" lengthAdjust="spacingAndGlyphs" textLength="264" x="951.75" y="106.8325">RoleVisitor roleVisitor = new RoleVisitor();</text><text fill="#000000" font-family="sans-serif" font-size="13" lengthAdjust="spacingAndGlyphs" textLength="396" x="951.75" y="121.9653">ExperienceVisitor experienceVisitor = new ExperienceVisitor();</text><text fill="#000000" font-family="sans-serif" font-size="13" lengthAdjust="spacingAndGlyphs" textLength="236" x="951.75" y="137.0981">Architect architect = new Architect();</text><text fill="#000000" font-family="sans-serif" font-size="13" lengthAdjust="spacingAndGlyphs" textLength="0" x="955.75" y="152.231"/><text fill="#000000" font-family="sans-serif" font-size="13" lengthAdjust="spacingAndGlyphs" textLength="181" x="951.75" y="167.3638">architect.accept(roleVisitor);</text><text fill="#000000" font-family="sans-serif" font-size="13" lengthAdjust="spacingAndGlyphs" textLength="227" x="951.75" y="182.4966">architect.accept(experienceVisitor);</text><!--link Visitable to Visitor--><path d="M353.539,94.229 C374.671,71.351 406.908,41.947 442.5,29 C525.199,-1.081 555.949,4.603 640.5,29 C667.524,36.798 694.375,50.958 717.842,66.051 " fill="none" id="Visitable-Visitor" style="stroke: #A80036; stroke-width: 1.0; stroke-dasharray: 7.0,7.0;"/><polygon fill="#A80036" points="722.184,68.879,716.825,60.6158,717.9941,66.1505,712.4594,67.3196,722.184,68.879" style="stroke: #A80036; stroke-width: 1.0;"/><!--link Visitable to Architect--><path d="M254.65,165.05 C203.41,192.328 136.719,227.833 93.6333,250.771 " fill="none" id="Visitable-Architect" style="stroke: #A80036; stroke-width: 1.0; stroke-dasharray: 7.0,7.0;"/><polygon fill="none" points="251.467,158.814,272.411,155.594,258.046,171.172,251.467,158.814" style="stroke: #A80036; stroke-width: 1.0;"/><!--link Visitable to Manager--><path d="M328,175.6 C328,200.99 328,230.694 328,250.771 " fill="none" id="Visitable-Manager" style="stroke: #A80036; stroke-width: 1.0; stroke-dasharray: 7.0,7.0;"/><polygon fill="none" points="321,175.594,328,155.594,335,175.594,321,175.594" style="stroke: #A80036; stroke-width: 1.0;"/><!--link Visitable to Tester--><path d="M363.318,171.453 C383.707,197.693 408.492,229.59 424.95,250.771 " fill="none" id="Visitable-Tester" style="stroke: #A80036; stroke-width: 1.0; stroke-dasharray: 7.0,7.0;"/><polygon fill="none" points="357.74,175.682,350.996,155.594,368.795,167.092,357.74,175.682" style="stroke: #A80036; stroke-width: 1.0;"/><!--link Visitable to Developer--><path d="M387.903,166.76 C400.111,174.892 412.917,183.297 425,191 C457.595,211.779 495.183,234.463 522.733,250.857 " fill="none" id="Visitable-Developer" style="stroke: #A80036; stroke-width: 1.0; stroke-dasharray: 7.0,7.0;"/><polygon fill="none" points="383.893,172.499,371.179,155.547,391.689,160.871,383.893,172.499" style="stroke: #A80036; stroke-width: 1.0;"/><!--link Visitable to ProductOwner--><path d="M286.359,170.337 C261.521,196.784 230.993,229.288 210.817,250.771 " fill="none" id="Visitable-ProductOwner" style="stroke: #A80036; stroke-width: 1.0; stroke-dasharray: 7.0,7.0;"/><polygon fill="none" points="281.411,165.381,300.205,155.594,291.616,174.965,281.411,165.381" style="stroke: #A80036; stroke-width: 1.0;"/><!--link Visitor to RoleVisitor--><path d="M759.101,199.543 C734.276,253.402 702.162,323.072 685.727,358.727 " fill="none" id="Visitor-RoleVisitor" style="stroke: #A80036; stroke-width: 1.0; stroke-dasharray: 7.0,7.0;"/><polygon fill="none" points="752.812,196.466,767.541,181.233,765.526,202.327,752.812,196.466" style="stroke: #A80036; stroke-width: 1.0;"/><!--link Visitor to ExperienceVisitor--><path d="M841.747,198.135 C878.271,252.182 925.967,322.761 950.273,358.727 " fill="none" id="Visitor-ExperienceVisitor" style="stroke: #A80036; stroke-width: 1.0; stroke-dasharray: 7.0,7.0;"/><polygon fill="none" points="835.724,201.723,830.325,181.233,847.324,193.885,835.724,201.723" style="stroke: #A80036; stroke-width: 1.0;"/><!--
@startuml

Interface Visitable {
  void accept(Visitor visitor)
}
Class Architect {
}
Class ProductOwner {
}
Class Manager {
}
Class Tester {
}
Class Developer {
}
Interface Visitor {
  void visit(Architect architect)
  void visit(ProductOwner productOwner)
  void visit(Manager manager)
  void visit(Tester tester)
  void visit(Developer developer)
}
Class RoleVisitor {
}
Class ExperienceVisitor {
}
Visitable .> Visitor
Visitable <|.. Architect
Visitable <|.. Manager
Visitable <|.. Tester
Visitable <|.. Developer
Visitable <|.. ProductOwner
Visitor <|... RoleVisitor
Visitor <|... ExperienceVisitor
note right of Visitable
note left of Visitable
void accept(Visitor visitor) {
    visitor.visit(this);
}
end note
note bottom of RoleVisitor
void visit(Architect architect) {
    System.out.println("Decides on architecture.");
}

void visit(ProductOwner productOwner) {
    System.out.prinln("Translates business requirements.");
}

void visit(Manager manager) {
    System.out.prinln("Helps remove roadblocks.");
}

void visit(Tester tester) {
    System.out.println("Tests the code.");
}

void visit(Developer developer) {
    System.out.println("Writes the code.");
}
end note
note bottom of ExperienceVisitor
void visit(Architect architect) {
    System.out.println("25+ years of required.");
}

void visit(ProductOwner productOwner) {
    System.out.prinln("10+ years of experience required.");
}

void visit(Manager manager) {
    System.out.prinln("10+ years of experience required.");
}

void visit(Tester tester) {
    System.out.println("No experience required.");
}

void visit(Developer developer) {
    System.out.println("No experience required.");
}
end note
note as N1
Client:

RoleVisitor roleVisitor = new RoleVisitor();
ExperienceVisitor experienceVisitor = new ExperienceVisitor();
Architect architect = new Architect();

architect.accept(roleVisitor);
architect.accept(experienceVisitor);
end note

@enduml

PlantUML version 1.2018.06(Mon May 21 06:34:53 EDT 2018)
(GPL source distribution)
Java Runtime: Java(TM) SE Runtime Environment
JVM: Java HotSpot(TM) 64-Bit Server VM
Java Version: 1.8.0_77-b03
Operating System: Linux
OS Version: 3.13.0-147-generic
Default Encoding: UTF-8
Language: en
Country: US
--></g></svg>