<?xml version="1.0" encoding="UTF-8" standalone="no"?><svg xmlns="http://www.w3.org/2000/svg" xmlns:xlink="http://www.w3.org/1999/xlink" contentScriptType="application/ecmascript" contentStyleType="text/css" height="81.1744px" preserveAspectRatio="none" style="width:199px;height:81px;" version="1.1" viewBox="0 0 199 81" width="199.3092px" zoomAndPan="magnify"><defs><filter height="300%" id="f976jsshjct4a" width="300%" x="-1" y="-1"><feGaussianBlur result="blurOut" stdDeviation="0.23028209556706966"/><feColorMatrix in="blurOut" result="blurOut2" type="matrix" values="0 0 0 0 0 0 0 0 0 0 0 0 0 0 0 0 0 0 .4 0"/><feOffset dx="0.4605641911341393" dy="0.4605641911341393" in="blurOut2" result="blurOut3"/><feBlend in="SourceGraphic" in2="blurOut3" mode="normal"/></filter></defs><g><!--class RequestProcessor--><rect fill="#FEFECE" filter="url(#f976jsshjct4a)" height="8.4755" id="RequestProcessor" style="stroke: #A80036; stroke-width: 0.17271157167530224;" width="28.4398" x="50.1727" y="9.4416"/><ellipse cx="57.2827" cy="11.2838" fill="#ADD1B2" rx="1.2666" ry="1.2666" style="stroke: #A80036; stroke-width: 0.11514104778353483;"/><path d="M57.6245,11.9333 Q57.5579,11.9675 57.4842,11.9846 Q57.4104,12.0017 57.3294,12.0017 Q57.0416,12.0017 56.8896,11.8119 Q56.7376,11.622 56.7376,11.2622 Q56.7376,10.9024 56.8896,10.7117 Q57.0416,10.521 57.3294,10.521 Q57.4104,10.521 57.4851,10.539 Q57.5597,10.557 57.6245,10.5912 L57.6245,10.9042 Q57.5525,10.8377 57.4842,10.8062 Q57.4158,10.7747 57.3438,10.7747 Q57.1891,10.7747 57.11,10.8979 Q57.0308,11.0212 57.0308,11.2622 Q57.0308,11.5033 57.11,11.6265 Q57.1891,11.7498 57.3438,11.7498 Q57.4158,11.7498 57.4842,11.7183 Q57.5525,11.6868 57.6245,11.6203 L57.6245,11.9333 Z "/><text fill="#000000" font-family="sans-serif" font-size="1.3817" lengthAdjust="spacingAndGlyphs" textLength="13.2412" x="59.6431" y="11.7622">RequestProcessor</text><line style="stroke: #A80036; stroke-width: 0.17271157167530224;" x1="50.2879" x2="78.4974" y1="13.1261" y2="13.1261"/><rect fill="none" height="0.6908" style="stroke: #C82930; stroke-width: 0.11514104778353483;" width="0.6908" x="51.0938" y="14.1511"/><text fill="#000000" font-family="sans-serif" font-size="1.2666" lengthAdjust="spacingAndGlyphs" textLength="11.7444" x="52.4755" y="14.7623">Executor executor</text><line style="stroke: #A80036; stroke-width: 0.11514104778353483;" x1="50.2879" x2="78.4974" y1="15.5216" y2="15.5216"/><ellipse cx="51.4393" cy="16.892" fill="#84BE84" rx="0.3454" ry="0.3454" style="stroke: #038048; stroke-width: 0.11514104778353483;"/><text fill="#000000" font-family="sans-serif" font-size="1.2666" lengthAdjust="spacingAndGlyphs" textLength="25.4462" x="52.4755" y="17.1578">void processRequest(Request request)</text><!--class Executor--><rect fill="#FEFECE" filter="url(#f976jsshjct4a)" height="7.0011" id="Executor" style="stroke: #A80036; stroke-width: 0.17271157167530224;" width="36.4997" x="82.6425" y="10.19"/><ellipse cx="97.2366" cy="12.0322" fill="#ADD1B2" rx="1.2666" ry="1.2666" style="stroke: #A80036; stroke-width: 0.11514104778353483;"/><path d="M97.5784,12.6817 Q97.5119,12.7159 97.4381,12.733 Q97.3643,12.7501 97.2834,12.7501 Q96.9955,12.7501 96.8435,12.5603 Q96.6915,12.3705 96.6915,12.0107 Q96.6915,11.6508 96.8435,11.4601 Q96.9955,11.2694 97.2834,11.2694 Q97.3643,11.2694 97.439,11.2874 Q97.5137,11.3054 97.5784,11.3396 L97.5784,11.6526 Q97.5065,11.5861 97.4381,11.5546 Q97.3697,11.5231 97.2978,11.5231 Q97.1431,11.5231 97.0639,11.6463 Q96.9847,11.7696 96.9847,12.0107 Q96.9847,12.2517 97.0639,12.375 Q97.1431,12.4982 97.2978,12.4982 Q97.3697,12.4982 97.4381,12.4667 Q97.5065,12.4352 97.5784,12.3687 L97.5784,12.6817 Z "/><text fill="#000000" font-family="sans-serif" font-size="1.3817" lengthAdjust="spacingAndGlyphs" textLength="6.3328" x="99.597" y="12.5106">Executor</text><line style="stroke: #A80036; stroke-width: 0.17271157167530224;" x1="82.7576" x2="119.0271" y1="13.8745" y2="13.8745"/><line style="stroke: #A80036; stroke-width: 0.17271157167530224;" x1="82.7576" x2="119.0271" y1="14.7956" y2="14.7956"/><ellipse cx="83.909" cy="16.1661" fill="#84BE84" rx="0.3454" ry="0.3454" style="stroke: #038048; stroke-width: 0.11514104778353483;"/><text fill="#000000" font-family="sans-serif" font-size="1.2666" lengthAdjust="spacingAndGlyphs" textLength="33.506" x="84.9453" y="16.4318">void addToQueue(long delay, Command command)</text><!--class Command--><rect fill="#FEFECE" filter="url(#f976jsshjct4a)" height="7.0011" id="Command" style="stroke: #A80036; stroke-width: 0.17271157167530224;" width="12.0898" x="123.1721" y="10.19"/><ellipse cx="125.4692" cy="12.0322" fill="#B4A7E5" rx="1.2666" ry="1.2666" style="stroke: #A80036; stroke-width: 0.11514104778353483;"/><path d="M124.9996,11.5447 L124.9996,11.2964 L125.8506,11.2964 L125.8506,11.5447 L125.5664,11.5447 L125.5664,12.4748 L125.8506,12.4748 L125.8506,12.7231 L124.9996,12.7231 L124.9996,12.4748 L125.2839,12.4748 L125.2839,11.5447 L124.9996,11.5447 Z "/><text fill="#000000" font-family="sans-serif" font-size="1.3817" font-style="italic" lengthAdjust="spacingAndGlyphs" textLength="7.1387" x="127.2078" y="12.5106">Command</text><line style="stroke: #A80036; stroke-width: 0.17271157167530224;" x1="123.2873" x2="135.1468" y1="13.8745" y2="13.8745"/><line style="stroke: #A80036; stroke-width: 0.17271157167530224;" x1="123.2873" x2="135.1468" y1="14.7956" y2="14.7956"/><ellipse cx="124.4387" cy="16.1661" fill="#84BE84" rx="0.3454" ry="0.3454" style="stroke: #038048; stroke-width: 0.11514104778353483;"/><text fill="#000000" font-family="sans-serif" font-size="1.2666" lengthAdjust="spacingAndGlyphs" textLength="9.0961" x="125.475" y="16.4318">void execute()</text><!--class CreateUser--><rect fill="#FEFECE" filter="url(#f976jsshjct4a)" height="5.5268" id="CreateUser" style="stroke: #A80036; stroke-width: 0.17271157167530224;" width="11.8595" x="102.2165" y="47.2078"/><ellipse cx="103.9436" cy="49.0501" fill="#ADD1B2" rx="1.2666" ry="1.2666" style="stroke: #A80036; stroke-width: 0.11514104778353483;"/><path d="M104.2854,49.6996 Q104.2188,49.7337 104.1451,49.7508 Q104.0713,49.7679 103.9904,49.7679 Q103.7025,49.7679 103.5505,49.5781 Q103.3985,49.3883 103.3985,49.0285 Q103.3985,48.6687 103.5505,48.478 Q103.7025,48.2873 103.9904,48.2873 Q104.0713,48.2873 104.146,48.3053 Q104.2206,48.3233 104.2854,48.3574 L104.2854,48.6705 Q104.2134,48.6039 104.1451,48.5724 Q104.0767,48.5409 104.0047,48.5409 Q103.85,48.5409 103.7709,48.6642 Q103.6917,48.7874 103.6917,49.0285 Q103.6917,49.2696 103.7709,49.3928 Q103.85,49.516 104.0047,49.516 Q104.0767,49.516 104.1451,49.4846 Q104.2134,49.4531 104.2854,49.3865 L104.2854,49.6996 Z "/><text fill="#000000" font-family="sans-serif" font-size="1.3817" lengthAdjust="spacingAndGlyphs" textLength="8.175" x="105.5556" y="49.5284">CreateUser</text><line style="stroke: #A80036; stroke-width: 0.17271157167530224;" x1="102.3316" x2="113.9609" y1="50.8923" y2="50.8923"/><line style="stroke: #A80036; stroke-width: 0.17271157167530224;" x1="102.3316" x2="113.9609" y1="51.8135" y2="51.8135"/><!--class RetrieveUser--><rect fill="#FEFECE" filter="url(#f976jsshjct4a)" height="5.5268" id="RetrieveUser" style="stroke: #A80036; stroke-width: 0.17271157167530224;" width="12.8958" x="171.6177" y="10.9384"/><ellipse cx="173.3448" cy="12.7807" fill="#ADD1B2" rx="1.2666" ry="1.2666" style="stroke: #A80036; stroke-width: 0.11514104778353483;"/><path d="M173.6867,13.4301 Q173.6201,13.4643 173.5463,13.4814 Q173.4726,13.4985 173.3916,13.4985 Q173.1038,13.4985 172.9517,13.3087 Q172.7997,13.1189 172.7997,12.7591 Q172.7997,12.3993 172.9517,12.2085 Q173.1038,12.0178 173.3916,12.0178 Q173.4726,12.0178 173.5472,12.0358 Q173.6219,12.0538 173.6867,12.088 L173.6867,12.4011 Q173.6147,12.3345 173.5463,12.303 Q173.478,12.2715 173.406,12.2715 Q173.2513,12.2715 173.1721,12.3948 Q173.093,12.518 173.093,12.7591 Q173.093,13.0001 173.1721,13.1234 Q173.2513,13.2466 173.406,13.2466 Q173.478,13.2466 173.5463,13.2151 Q173.6147,13.1836 173.6867,13.1171 L173.6867,13.4301 Z "/><text fill="#000000" font-family="sans-serif" font-size="1.3817" lengthAdjust="spacingAndGlyphs" textLength="9.2113" x="174.9568" y="13.259">RetrieveUser</text><line style="stroke: #A80036; stroke-width: 0.17271157167530224;" x1="171.7329" x2="184.3984" y1="14.6229" y2="14.6229"/><line style="stroke: #A80036; stroke-width: 0.17271157167530224;" x1="171.7329" x2="184.3984" y1="15.544" y2="15.544"/><!--class UpdateUser--><rect fill="#FEFECE" filter="url(#f976jsshjct4a)" height="5.5268" id="UpdateUser" style="stroke: #A80036; stroke-width: 0.17271157167530224;" width="12.3201" x="127.6626" y="60.5642"/><ellipse cx="129.3898" cy="62.4064" fill="#ADD1B2" rx="1.2666" ry="1.2666" style="stroke: #A80036; stroke-width: 0.11514104778353483;"/><path d="M129.7316,63.0559 Q129.665,63.0901 129.5912,63.1072 Q129.5175,63.1243 129.4365,63.1243 Q129.1487,63.1243 128.9967,62.9345 Q128.8446,62.7447 128.8446,62.3849 Q128.8446,62.025 128.9967,61.8343 Q129.1487,61.6436 129.4365,61.6436 Q129.5175,61.6436 129.5921,61.6616 Q129.6668,61.6796 129.7316,61.7138 L129.7316,62.0268 Q129.6596,61.9603 129.5912,61.9288 Q129.5229,61.8973 129.4509,61.8973 Q129.2962,61.8973 129.217,62.0205 Q129.1379,62.1438 129.1379,62.3849 Q129.1379,62.6259 129.217,62.7492 Q129.2962,62.8724 129.4509,62.8724 Q129.5229,62.8724 129.5912,62.8409 Q129.6596,62.8094 129.7316,62.7429 L129.7316,63.0559 Z "/><text fill="#000000" font-family="sans-serif" font-size="1.3817" lengthAdjust="spacingAndGlyphs" textLength="8.6356" x="131.0017" y="62.8848">UpdateUser</text><line style="stroke: #A80036; stroke-width: 0.17271157167530224;" x1="127.7778" x2="139.8676" y1="64.2487" y2="64.2487"/><line style="stroke: #A80036; stroke-width: 0.17271157167530224;" x1="127.7778" x2="139.8676" y1="65.1698" y2="65.1698"/><!--class DeleteUser--><rect fill="#FEFECE" filter="url(#f976jsshjct4a)" height="5.5268" id="DeleteUser" style="stroke: #A80036; stroke-width: 0.17271157167530224;" width="11.7444" x="142.3719" y="33.8515"/><ellipse cx="144.099" cy="35.6937" fill="#ADD1B2" rx="1.2666" ry="1.2666" style="stroke: #A80036; stroke-width: 0.11514104778353483;"/><path d="M144.4408,36.3432 Q144.3743,36.3774 144.3005,36.3945 Q144.2268,36.4116 144.1458,36.4116 Q143.8579,36.4116 143.7059,36.2218 Q143.5539,36.032 143.5539,35.6721 Q143.5539,35.3123 143.7059,35.1216 Q143.8579,34.9309 144.1458,34.9309 Q144.2268,34.9309 144.3014,34.9489 Q144.3761,34.9669 144.4408,35.0011 L144.4408,35.3141 Q144.3689,35.2476 144.3005,35.2161 Q144.2322,35.1846 144.1602,35.1846 Q144.0055,35.1846 143.9263,35.3078 Q143.8472,35.4311 143.8472,35.6721 Q143.8472,35.9132 143.9263,36.0364 Q144.0055,36.1597 144.1602,36.1597 Q144.2322,36.1597 144.3005,36.1282 Q144.3689,36.0967 144.4408,36.0302 L144.4408,36.3432 Z "/><text fill="#000000" font-family="sans-serif" font-size="1.3817" lengthAdjust="spacingAndGlyphs" textLength="8.0599" x="145.711" y="36.1721">DeleteUser</text><line style="stroke: #A80036; stroke-width: 0.17271157167530224;" x1="142.487" x2="154.0012" y1="37.536" y2="37.536"/><line style="stroke: #A80036; stroke-width: 0.17271157167530224;" x1="142.487" x2="154.0012" y1="38.4571" y2="38.4571"/><path d="M0.6908,0.9211 L0.6908,26.4662 A0,0 0 0 0 0.6908,26.4662 L46.0564,26.4662 A0,0 0 0 0 46.0564,26.4662 L46.0564,14.1623 L50.1435,13.7018 L46.0564,13.2412 L46.0564,2.0725 L44.905,0.9211 L0.6908,0.9211 A0,0 0 0 0 0.6908,0.9211 " fill="#FBFB77" filter="url(#f976jsshjct4a)" style="stroke: #A80036; stroke-width: 0.11514104778353483;"/><path d="M44.905,0.9211 L44.905,2.0725 L46.0564,2.0725 L44.905,0.9211 " fill="#FBFB77" style="stroke: #A80036; stroke-width: 0.11514104778353483;"/><text fill="#000000" font-family="sans-serif" font-size="1.4968" lengthAdjust="spacingAndGlyphs" textLength="29.8215" x="1.3817" y="2.8862">void processRequest(Request request) {</text><text fill="#000000" font-family="sans-serif" font-size="1.4968" lengthAdjust="spacingAndGlyphs" textLength="20.1497" x="2.3028" y="4.6286">switch(request.getType()) {</text><text fill="#000000" font-family="sans-serif" font-size="1.4968" lengthAdjust="spacingAndGlyphs" textLength="10.0173" x="3.2239" y="6.371">case CREATE:</text><text fill="#000000" font-family="sans-serif" font-size="1.4968" lengthAdjust="spacingAndGlyphs" textLength="38.2268" x="5.0662" y="8.1135">executor.addToQueue(0, new CreateUser(request));</text><text fill="#000000" font-family="sans-serif" font-size="1.4968" lengthAdjust="spacingAndGlyphs" textLength="11.1687" x="3.2239" y="9.8559">case RETRIEVE:</text><text fill="#000000" font-family="sans-serif" font-size="1.4968" lengthAdjust="spacingAndGlyphs" textLength="39.2631" x="5.0662" y="11.5983">executor.addToQueue(0, new RetrieveUser(request));</text><text fill="#000000" font-family="sans-serif" font-size="1.4968" lengthAdjust="spacingAndGlyphs" textLength="10.3627" x="3.2239" y="13.3407">case UPDATE:</text><text fill="#000000" font-family="sans-serif" font-size="1.4968" lengthAdjust="spacingAndGlyphs" textLength="38.6874" x="5.0662" y="15.0831">executor.addToQueue(0, new UpdateUser(request));</text><text fill="#000000" font-family="sans-serif" font-size="1.4968" lengthAdjust="spacingAndGlyphs" textLength="9.9021" x="3.2239" y="16.8255">case DELETE:</text><text fill="#000000" font-family="sans-serif" font-size="1.4968" lengthAdjust="spacingAndGlyphs" textLength="38.1117" x="5.0662" y="18.5679">executor.addToQueue(0, new DeleteUser(request));</text><text fill="#000000" font-family="sans-serif" font-size="1.4968" lengthAdjust="spacingAndGlyphs" textLength="5.5268" x="3.2239" y="20.3103">default:</text><text fill="#000000" font-family="sans-serif" font-size="1.4968" lengthAdjust="spacingAndGlyphs" textLength="33.3909" x="5.0662" y="22.0527">throw new UnsupportedOperationException();</text><text fill="#000000" font-family="sans-serif" font-size="1.4968" lengthAdjust="spacingAndGlyphs" textLength="0.9211" x="2.3028" y="23.7951">}</text><text fill="#000000" font-family="sans-serif" font-size="1.4968" lengthAdjust="spacingAndGlyphs" textLength="0.9211" x="1.3817" y="25.5375">}</text><path d="M83.7075,60.1612 L83.7075,66.5398 A0,0 0 0 0 83.7075,66.5398 L123.5463,66.5398 A0,0 0 0 0 123.5463,66.5398 L123.5463,61.3126 L122.3949,60.1612 L105.1366,60.1612 L107.2088,52.7427 L104.2154,60.1612 L83.7075,60.1612 A0,0 0 0 0 83.7075,60.1612 " fill="#FBFB77" filter="url(#f976jsshjct4a)" style="stroke: #A80036; stroke-width: 0.11514104778353483;"/><path d="M122.3949,60.1612 L122.3949,61.3126 L123.5463,61.3126 L122.3949,60.1612 " fill="#FBFB77" style="stroke: #A80036; stroke-width: 0.11514104778353483;"/><text fill="#000000" font-family="sans-serif" font-size="1.4968" lengthAdjust="spacingAndGlyphs" textLength="11.8595" x="84.3984" y="62.1263">void execute() {</text><text fill="#000000" font-family="sans-serif" font-size="1.4968" lengthAdjust="spacingAndGlyphs" textLength="35.5786" x="85.3195" y="63.8687">System.out.println("User successfully created.");</text><text fill="#000000" font-family="sans-serif" font-size="1.4968" lengthAdjust="spacingAndGlyphs" textLength="0.9211" x="84.3984" y="65.6111">}</text><path d="M158.0887,33.4485 L158.0887,39.8271 A0,0 0 0 0 158.0887,39.8271 L197.9275,39.8271 A0,0 0 0 0 197.9275,39.8271 L197.9275,34.5999 L196.7761,33.4485 L178.4686,33.4485 L178.0081,16.508 L177.5475,33.4485 L158.0887,33.4485 A0,0 0 0 0 158.0887,33.4485 " fill="#FBFB77" filter="url(#f976jsshjct4a)" style="stroke: #A80036; stroke-width: 0.11514104778353483;"/><path d="M196.7761,33.4485 L196.7761,34.5999 L197.9275,34.5999 L196.7761,33.4485 " fill="#FBFB77" style="stroke: #A80036; stroke-width: 0.11514104778353483;"/><text fill="#000000" font-family="sans-serif" font-size="1.4968" lengthAdjust="spacingAndGlyphs" textLength="11.8595" x="158.7795" y="35.4136">void execute() {</text><text fill="#000000" font-family="sans-serif" font-size="1.4968" lengthAdjust="spacingAndGlyphs" textLength="36.4997" x="159.7006" y="37.156">System.out.println("User successfully retrieved.");</text><text fill="#000000" font-family="sans-serif" font-size="1.4968" lengthAdjust="spacingAndGlyphs" textLength="0.9211" x="158.7795" y="38.8984">}</text><path d="M114.1048,73.5176 L114.1048,79.8962 A0,0 0 0 0 114.1048,79.8962 L153.483,79.8962 A0,0 0 0 0 153.483,79.8962 L153.483,74.669 L152.3316,73.5176 L134.2545,73.5176 L133.7939,66.099 L133.3333,73.5176 L114.1048,73.5176 A0,0 0 0 0 114.1048,73.5176 " fill="#FBFB77" filter="url(#f976jsshjct4a)" style="stroke: #A80036; stroke-width: 0.11514104778353483;"/><path d="M152.3316,73.5176 L152.3316,74.669 L153.483,74.669 L152.3316,73.5176 " fill="#FBFB77" style="stroke: #A80036; stroke-width: 0.11514104778353483;"/><text fill="#000000" font-family="sans-serif" font-size="1.4968" lengthAdjust="spacingAndGlyphs" textLength="11.8595" x="114.7956" y="75.4827">void execute() {</text><text fill="#000000" font-family="sans-serif" font-size="1.4968" lengthAdjust="spacingAndGlyphs" textLength="36.0391" x="115.7168" y="77.2251">System.out.println("User successfully updated.");</text><text fill="#000000" font-family="sans-serif" font-size="1.4968" lengthAdjust="spacingAndGlyphs" textLength="0.9211" x="114.7956" y="78.9675">}</text><path d="M135.2907,46.8048 L135.2907,53.1835 A0,0 0 0 0 135.2907,53.1835 L175.1295,53.1835 A0,0 0 0 0 175.1295,53.1835 L175.1295,47.9562 L173.9781,46.8048 L154.0299,46.8048 L149.6074,39.3863 L153.1088,46.8048 L135.2907,46.8048 A0,0 0 0 0 135.2907,46.8048 " fill="#FBFB77" filter="url(#f976jsshjct4a)" style="stroke: #A80036; stroke-width: 0.11514104778353483;"/><path d="M173.9781,46.8048 L173.9781,47.9562 L175.1295,47.9562 L173.9781,46.8048 " fill="#FBFB77" style="stroke: #A80036; stroke-width: 0.11514104778353483;"/><text fill="#000000" font-family="sans-serif" font-size="1.4968" lengthAdjust="spacingAndGlyphs" textLength="11.8595" x="135.9816" y="48.7699">void execute() {</text><text fill="#000000" font-family="sans-serif" font-size="1.4968" lengthAdjust="spacingAndGlyphs" textLength="36.4997" x="136.9027" y="50.5123">System.out.println("User successfully removed.");</text><text fill="#000000" font-family="sans-serif" font-size="1.4968" lengthAdjust="spacingAndGlyphs" textLength="0.9211" x="135.9816" y="52.2548">}</text><!--link RequestProcessor to Executor--><path d="M78.586,13.7018 C79.7345,13.7018 80.8831,13.7018 82.0318,13.7018 " fill="none" id="RequestProcessor-Executor" style="stroke: #A80036; stroke-width: 0.11514104778353483; stroke-dasharray: 7.0,7.0;"/><polygon fill="#A80036" points="82.6325,13.7018,81.5962,13.2412,82.0568,13.7018,81.5962,14.1623,82.6325,13.7018" style="stroke: #A80036; stroke-width: 0.11514104778353483;"/><!--link Executor to Command--><path d="M119.1192,13.7018 C120.2694,13.7018 121.4197,13.7018 122.5699,13.7018 " fill="none" id="Executor-Command" style="stroke: #A80036; stroke-width: 0.11514104778353483; stroke-dasharray: 7.0,7.0;"/><polygon fill="#A80036" points="123.171,13.7018,122.1347,13.2412,122.5953,13.7018,122.1347,14.1623,123.171,13.7018" style="stroke: #A80036; stroke-width: 0.11514104778353483;"/><!--link Command to CreateUser--><path d="M125.9965,19.2761 C121.4013,27.1347 113.0994,41.3351 109.667,47.2058 " fill="none" id="Command-CreateUser" style="stroke: #A80036; stroke-width: 0.11514104778353483; stroke-dasharray: 7.0,7.0;"/><polygon fill="none" points="125.3287,18.8211,127.1871,17.2398,126.7208,19.6347,125.3287,18.8211" style="stroke: #A80036; stroke-width: 0.11514104778353483;"/><!--link Command to RetrieveUser--><path d="M137.5498,13.7018 C148.8923,13.7018 160.2337,13.7018 171.5763,13.7018 " fill="none" id="Command-RetrieveUser" style="stroke: #A80036; stroke-width: 0.11514104778353483; stroke-dasharray: 7.0,7.0;"/><polygon fill="none" points="137.5463,14.5078,135.2435,13.7018,137.5463,12.8958,137.5463,14.5078" style="stroke: #A80036; stroke-width: 0.11514104778353483;"/><!--link Command to UpdateUser--><path d="M129.7225,19.5483 C130.7185,30.2328 132.8244,52.8114 133.5452,60.5467 " fill="none" id="Command-UpdateUser" style="stroke: #A80036; stroke-width: 0.11514104778353483; stroke-dasharray: 7.0,7.0;"/><polygon fill="none" points="128.92,19.6188,129.5083,17.2511,130.525,19.4692,128.92,19.6188" style="stroke: #A80036; stroke-width: 0.11514104778353483;"/><!--link Command to DeleteUser--><path d="M133.5705,19.0495 C137.4416,23.6709 142.928,30.2211 145.9585,33.8393 " fill="none" id="Command-DeleteUser" style="stroke: #A80036; stroke-width: 0.11514104778353483; stroke-dasharray: 7.0,7.0;"/><polygon fill="none" points="132.9349,19.5448,132.0737,17.2619,134.1704,18.5098,132.9349,19.5448" style="stroke: #A80036; stroke-width: 0.11514104778353483;"/><!--
@startuml

scale 200 width
Class RequestProcessor {
  -Executor executor
  - -
  +void processRequest(Request request)
}
Class Executor {
  +void addToQueue(long delay, Command command)
}
Interface Command {
  +void execute()
}
Class CreateUser {
}
Class RetrieveUser {
}
Class UpdateUser {
}
Class DeleteUser {
}
note left of RequestProcessor
void processRequest(Request request) {
  switch(request.getType()) {
    case CREATE:
        executor.addToQueue(0, new CreateUser(request));
    case RETRIEVE:
	executor.addToQueue(0, new RetrieveUser(request));
    case UPDATE:
        executor.addToQueue(0, new UpdateUser(request));
    case DELETE:
        executor.addToQueue(0, new DeleteUser(request));
    default:
        throw new UnsupportedOperationException();
  }
}
end note
note bottom of CreateUser
void execute() {
  System.out.println("User successfully created.");  
}
end note
note bottom of RetrieveUser
void execute() {
  System.out.println("User successfully retrieved.");
}
end note
note bottom of UpdateUser
void execute() {
  System.out.println("User successfully updated.");
}
end note
note bottom of DeleteUser
void execute() {
  System.out.println("User successfully removed.");
}
end note
RequestProcessor .> Executor
Executor .> Command
Command <|... CreateUser
Command <|. RetrieveUser
Command <|.... UpdateUser
Command <|.. DeleteUser

@enduml

PlantUML version 1.2018.06(Mon May 21 06:34:53 EDT 2018)
(GPL source distribution)
Java Runtime: Java(TM) SE Runtime Environment
JVM: Java HotSpot(TM) 64-Bit Server VM
Java Version: 1.8.0_77-b03
Operating System: Linux
OS Version: 3.13.0-147-generic
Default Encoding: UTF-8
Language: en
Country: US
--></g></svg>