<?xml version="1.0" encoding="UTF-8" standalone="no"?><svg xmlns="http://www.w3.org/2000/svg" xmlns:xlink="http://www.w3.org/1999/xlink" contentScriptType="application/ecmascript" contentStyleType="text/css" height="776px" preserveAspectRatio="none" style="width:1400px;height:776px;" version="1.1" viewBox="0 0 1400 776" width="1400px" zoomAndPan="magnify"><defs><filter height="300%" id="f18myd7pqwetrc" width="300%" x="-1" y="-1"><feGaussianBlur result="blurOut" stdDeviation="2.0"/><feColorMatrix in="blurOut" result="blurOut2" type="matrix" values="0 0 0 0 0 0 0 0 0 0 0 0 0 0 0 0 0 0 .4 0"/><feOffset dx="4.0" dy="4.0" in="blurOut2" result="blurOut3"/><feBlend in="SourceGraphic" in2="blurOut3" mode="normal"/></filter></defs><g><!--class Visitable--><rect fill="#FEFECE" filter="url(#f18myd7pqwetrc)" height="60.8047" id="Visitable" style="stroke: #A80036; stroke-width: 1.5;" width="159" x="120.75" y="94.5"/><ellipse cx="170" cy="110.5" fill="#B4A7E5" rx="11" ry="11" style="stroke: #A80036; stroke-width: 1.0;"/><path d="M165.9219,106.2656 L165.9219,104.1094 L173.3125,104.1094 L173.3125,106.2656 L170.8438,106.2656 L170.8438,114.3438 L173.3125,114.3438 L173.3125,116.5 L165.9219,116.5 L165.9219,114.3438 L168.3906,114.3438 L168.3906,106.2656 L165.9219,106.2656 Z "/><text fill="#000000" font-family="sans-serif" font-size="12" font-style="italic" lengthAdjust="spacingAndGlyphs" textLength="52" x="190.5" y="114.6543">Visitable</text><line style="stroke: #A80036; stroke-width: 1.5;" x1="121.75" x2="278.75" y1="126.5" y2="126.5"/><line style="stroke: #A80036; stroke-width: 1.5;" x1="121.75" x2="278.75" y1="134.5" y2="134.5"/><text fill="#000000" font-family="sans-serif" font-size="11" lengthAdjust="spacingAndGlyphs" textLength="147" x="126.75" y="148.7104">void accept(Visitor visitor)</text><!--class Architect--><rect fill="#FEFECE" filter="url(#f18myd7pqwetrc)" height="48" id="Architect" style="stroke: #A80036; stroke-width: 1.5;" width="88" x="6.5" y="251"/><ellipse cx="21.5" cy="267" fill="#ADD1B2" rx="11" ry="11" style="stroke: #A80036; stroke-width: 1.0;"/><path d="M24.4688,272.6406 Q23.8906,272.9375 23.25,273.0859 Q22.6094,273.2344 21.9063,273.2344 Q19.4063,273.2344 18.0859,271.5859 Q16.7656,269.9375 16.7656,266.8125 Q16.7656,263.6875 18.0859,262.0313 Q19.4063,260.375 21.9063,260.375 Q22.6094,260.375 23.2578,260.5313 Q23.9063,260.6875 24.4688,260.9844 L24.4688,263.7031 Q23.8438,263.125 23.25,262.8516 Q22.6563,262.5781 22.0313,262.5781 Q20.6875,262.5781 20,263.6484 Q19.3125,264.7188 19.3125,266.8125 Q19.3125,268.9063 20,269.9766 Q20.6875,271.0469 22.0313,271.0469 Q22.6563,271.0469 23.25,270.7734 Q23.8438,270.5 24.4688,269.9219 L24.4688,272.6406 Z "/><text fill="#000000" font-family="sans-serif" font-size="12" lengthAdjust="spacingAndGlyphs" textLength="56" x="35.5" y="271.1543">Architect</text><line style="stroke: #A80036; stroke-width: 1.5;" x1="7.5" x2="93.5" y1="283" y2="283"/><line style="stroke: #A80036; stroke-width: 1.5;" x1="7.5" x2="93.5" y1="291" y2="291"/><!--class ProductOwner--><rect fill="#FEFECE" filter="url(#f18myd7pqwetrc)" height="48" id="ProductOwner" style="stroke: #A80036; stroke-width: 1.5;" width="120" x="817.5" y="101"/><ellipse cx="832.5" cy="117" fill="#ADD1B2" rx="11" ry="11" style="stroke: #A80036; stroke-width: 1.0;"/><path d="M835.4688,122.6406 Q834.8906,122.9375 834.25,123.0859 Q833.6094,123.2344 832.9063,123.2344 Q830.4063,123.2344 829.0859,121.5859 Q827.7656,119.9375 827.7656,116.8125 Q827.7656,113.6875 829.0859,112.0313 Q830.4063,110.375 832.9063,110.375 Q833.6094,110.375 834.2578,110.5313 Q834.9063,110.6875 835.4688,110.9844 L835.4688,113.7031 Q834.8438,113.125 834.25,112.8516 Q833.6563,112.5781 833.0313,112.5781 Q831.6875,112.5781 831,113.6484 Q830.3125,114.7188 830.3125,116.8125 Q830.3125,118.9063 831,119.9766 Q831.6875,121.0469 833.0313,121.0469 Q833.6563,121.0469 834.25,120.7734 Q834.8438,120.5 835.4688,119.9219 L835.4688,122.6406 Z "/><text fill="#000000" font-family="sans-serif" font-size="12" lengthAdjust="spacingAndGlyphs" textLength="88" x="846.5" y="121.1543">ProductOwner</text><line style="stroke: #A80036; stroke-width: 1.5;" x1="818.5" x2="936.5" y1="133" y2="133"/><line style="stroke: #A80036; stroke-width: 1.5;" x1="818.5" x2="936.5" y1="141" y2="141"/><!--class Manager--><rect fill="#FEFECE" filter="url(#f18myd7pqwetrc)" height="48" id="Manager" style="stroke: #A80036; stroke-width: 1.5;" width="87" x="129.75" y="251"/><ellipse cx="144.75" cy="267" fill="#ADD1B2" rx="11" ry="11" style="stroke: #A80036; stroke-width: 1.0;"/><path d="M147.7188,272.6406 Q147.1406,272.9375 146.5,273.0859 Q145.8594,273.2344 145.1563,273.2344 Q142.6563,273.2344 141.3359,271.5859 Q140.0156,269.9375 140.0156,266.8125 Q140.0156,263.6875 141.3359,262.0313 Q142.6563,260.375 145.1563,260.375 Q145.8594,260.375 146.5078,260.5313 Q147.1563,260.6875 147.7188,260.9844 L147.7188,263.7031 Q147.0938,263.125 146.5,262.8516 Q145.9063,262.5781 145.2813,262.5781 Q143.9375,262.5781 143.25,263.6484 Q142.5625,264.7188 142.5625,266.8125 Q142.5625,268.9063 143.25,269.9766 Q143.9375,271.0469 145.2813,271.0469 Q145.9063,271.0469 146.5,270.7734 Q147.0938,270.5 147.7188,269.9219 L147.7188,272.6406 Z "/><text fill="#000000" font-family="sans-serif" font-size="12" lengthAdjust="spacingAndGlyphs" textLength="55" x="158.75" y="271.1543">Manager</text><line style="stroke: #A80036; stroke-width: 1.5;" x1="130.75" x2="215.75" y1="283" y2="283"/><line style="stroke: #A80036; stroke-width: 1.5;" x1="130.75" x2="215.75" y1="291" y2="291"/><!--class Tester--><rect fill="#FEFECE" filter="url(#f18myd7pqwetrc)" height="48" id="Tester" style="stroke: #A80036; stroke-width: 1.5;" width="72" x="252" y="251"/><ellipse cx="267" cy="267" fill="#ADD1B2" rx="11" ry="11" style="stroke: #A80036; stroke-width: 1.0;"/><path d="M269.9688,272.6406 Q269.3906,272.9375 268.75,273.0859 Q268.1094,273.2344 267.4063,273.2344 Q264.9063,273.2344 263.5859,271.5859 Q262.2656,269.9375 262.2656,266.8125 Q262.2656,263.6875 263.5859,262.0313 Q264.9063,260.375 267.4063,260.375 Q268.1094,260.375 268.7578,260.5313 Q269.4063,260.6875 269.9688,260.9844 L269.9688,263.7031 Q269.3438,263.125 268.75,262.8516 Q268.1563,262.5781 267.5313,262.5781 Q266.1875,262.5781 265.5,263.6484 Q264.8125,264.7188 264.8125,266.8125 Q264.8125,268.9063 265.5,269.9766 Q266.1875,271.0469 267.5313,271.0469 Q268.1563,271.0469 268.75,270.7734 Q269.3438,270.5 269.9688,269.9219 L269.9688,272.6406 Z "/><text fill="#000000" font-family="sans-serif" font-size="12" lengthAdjust="spacingAndGlyphs" textLength="40" x="281" y="271.1543">Tester</text><line style="stroke: #A80036; stroke-width: 1.5;" x1="253" x2="323" y1="283" y2="283"/><line style="stroke: #A80036; stroke-width: 1.5;" x1="253" x2="323" y1="291" y2="291"/><!--class Developer--><rect fill="#FEFECE" filter="url(#f18myd7pqwetrc)" height="48" id="Developer" style="stroke: #A80036; stroke-width: 1.5;" width="95" x="359.75" y="251"/><ellipse cx="374.75" cy="267" fill="#ADD1B2" rx="11" ry="11" style="stroke: #A80036; stroke-width: 1.0;"/><path d="M377.7188,272.6406 Q377.1406,272.9375 376.5,273.0859 Q375.8594,273.2344 375.1563,273.2344 Q372.6563,273.2344 371.3359,271.5859 Q370.0156,269.9375 370.0156,266.8125 Q370.0156,263.6875 371.3359,262.0313 Q372.6563,260.375 375.1563,260.375 Q375.8594,260.375 376.5078,260.5313 Q377.1563,260.6875 377.7188,260.9844 L377.7188,263.7031 Q377.0938,263.125 376.5,262.8516 Q375.9063,262.5781 375.2813,262.5781 Q373.9375,262.5781 373.25,263.6484 Q372.5625,264.7188 372.5625,266.8125 Q372.5625,268.9063 373.25,269.9766 Q373.9375,271.0469 375.2813,271.0469 Q375.9063,271.0469 376.5,270.7734 Q377.0938,270.5 377.7188,269.9219 L377.7188,272.6406 Z "/><text fill="#000000" font-family="sans-serif" font-size="12" lengthAdjust="spacingAndGlyphs" textLength="63" x="388.75" y="271.1543">Developer</text><line style="stroke: #A80036; stroke-width: 1.5;" x1="360.75" x2="453.75" y1="283" y2="283"/><line style="stroke: #A80036; stroke-width: 1.5;" x1="360.75" x2="453.75" y1="291" y2="291"/><!--class Visitor--><rect fill="#FEFECE" filter="url(#f18myd7pqwetrc)" height="112.0234" id="Visitor" style="stroke: #A80036; stroke-width: 1.5;" width="234" x="548" y="69"/><ellipse cx="641.75" cy="85" fill="#B4A7E5" rx="11" ry="11" style="stroke: #A80036; stroke-width: 1.0;"/><path d="M637.6719,80.7656 L637.6719,78.6094 L645.0625,78.6094 L645.0625,80.7656 L642.5938,80.7656 L642.5938,88.8438 L645.0625,88.8438 L645.0625,91 L637.6719,91 L637.6719,88.8438 L640.1406,88.8438 L640.1406,80.7656 L637.6719,80.7656 Z "/><text fill="#000000" font-family="sans-serif" font-size="12" font-style="italic" lengthAdjust="spacingAndGlyphs" textLength="38" x="662.25" y="89.1543">Visitor</text><line style="stroke: #A80036; stroke-width: 1.5;" x1="549" x2="781" y1="101" y2="101"/><line style="stroke: #A80036; stroke-width: 1.5;" x1="549" x2="781" y1="109" y2="109"/><text fill="#000000" font-family="sans-serif" font-size="11" lengthAdjust="spacingAndGlyphs" textLength="160" x="554" y="123.2104">void visit(Architect architect)</text><text fill="#000000" font-family="sans-serif" font-size="11" lengthAdjust="spacingAndGlyphs" textLength="222" x="554" y="136.0151">void visit(ProductOwner productOwner)</text><text fill="#000000" font-family="sans-serif" font-size="11" lengthAdjust="spacingAndGlyphs" textLength="162" x="554" y="148.8198">void visit(Manager manager)</text><text fill="#000000" font-family="sans-serif" font-size="11" lengthAdjust="spacingAndGlyphs" textLength="133" x="554" y="161.6245">void visit(Tester tester)</text><text fill="#000000" font-family="sans-serif" font-size="11" lengthAdjust="spacingAndGlyphs" textLength="175" x="554" y="174.4292">void visit(Developer developer)</text><!--class RoleVisitor--><rect fill="#FEFECE" filter="url(#f18myd7pqwetrc)" height="48" id="RoleVisitor" style="stroke: #A80036; stroke-width: 1.5;" width="98" x="460.5" y="359"/><ellipse cx="475.5" cy="375" fill="#ADD1B2" rx="11" ry="11" style="stroke: #A80036; stroke-width: 1.0;"/><path d="M478.4688,380.6406 Q477.8906,380.9375 477.25,381.0859 Q476.6094,381.2344 475.9063,381.2344 Q473.4063,381.2344 472.0859,379.5859 Q470.7656,377.9375 470.7656,374.8125 Q470.7656,371.6875 472.0859,370.0313 Q473.4063,368.375 475.9063,368.375 Q476.6094,368.375 477.2578,368.5313 Q477.9063,368.6875 478.4688,368.9844 L478.4688,371.7031 Q477.8438,371.125 477.25,370.8516 Q476.6563,370.5781 476.0313,370.5781 Q474.6875,370.5781 474,371.6484 Q473.3125,372.7188 473.3125,374.8125 Q473.3125,376.9063 474,377.9766 Q474.6875,379.0469 476.0313,379.0469 Q476.6563,379.0469 477.25,378.7734 Q477.8438,378.5 478.4688,377.9219 L478.4688,380.6406 Z "/><text fill="#000000" font-family="sans-serif" font-size="12" lengthAdjust="spacingAndGlyphs" textLength="66" x="489.5" y="379.1543">RoleVisitor</text><line style="stroke: #A80036; stroke-width: 1.5;" x1="461.5" x2="557.5" y1="391" y2="391"/><line style="stroke: #A80036; stroke-width: 1.5;" x1="461.5" x2="557.5" y1="399" y2="399"/><!--class ExperienceVisitor--><rect fill="#FEFECE" filter="url(#f18myd7pqwetrc)" height="48" id="ExperienceVisitor" style="stroke: #A80036; stroke-width: 1.5;" width="140" x="730" y="359"/><ellipse cx="745" cy="375" fill="#ADD1B2" rx="11" ry="11" style="stroke: #A80036; stroke-width: 1.0;"/><path d="M747.9688,380.6406 Q747.3906,380.9375 746.75,381.0859 Q746.1094,381.2344 745.4063,381.2344 Q742.9063,381.2344 741.5859,379.5859 Q740.2656,377.9375 740.2656,374.8125 Q740.2656,371.6875 741.5859,370.0313 Q742.9063,368.375 745.4063,368.375 Q746.1094,368.375 746.7578,368.5313 Q747.4063,368.6875 747.9688,368.9844 L747.9688,371.7031 Q747.3438,371.125 746.75,370.8516 Q746.1563,370.5781 745.5313,370.5781 Q744.1875,370.5781 743.5,371.6484 Q742.8125,372.7188 742.8125,374.8125 Q742.8125,376.9063 743.5,377.9766 Q744.1875,379.0469 745.5313,379.0469 Q746.1563,379.0469 746.75,378.7734 Q747.3438,378.5 747.9688,377.9219 L747.9688,380.6406 Z "/><text fill="#000000" font-family="sans-serif" font-size="12" lengthAdjust="spacingAndGlyphs" textLength="108" x="759" y="379.1543">ExperienceVisitor</text><line style="stroke: #A80036; stroke-width: 1.5;" x1="731" x2="869" y1="391" y2="391"/><line style="stroke: #A80036; stroke-width: 1.5;" x1="731" x2="869" y1="399" y2="399"/><path d="M315,89.5 L315,121 L279.414,125 L315,129 L315,160.0313 A0,0 0 0 0 315,160.0313 L513,160.0313 A0,0 0 0 0 513,160.0313 L513,99.5 L503,89.5 L315,89.5 A0,0 0 0 0 315,89.5 " fill="#FBFB77" filter="url(#f18myd7pqwetrc)" style="stroke: #A80036; stroke-width: 1.0;"/><path d="M503,89.5 L503,99.5 L513,99.5 L503,89.5 " fill="#FBFB77" style="stroke: #A80036; stroke-width: 1.0;"/><text fill="#000000" font-family="sans-serif" font-size="13" lengthAdjust="spacingAndGlyphs" textLength="127" x="321" y="106.5669">note left of Visitable</text><text fill="#000000" font-family="sans-serif" font-size="13" lengthAdjust="spacingAndGlyphs" textLength="177" x="321" y="121.6997">void accept(Visitor visitor) {</text><text fill="#000000" font-family="sans-serif" font-size="13" lengthAdjust="spacingAndGlyphs" textLength="104" x="337" y="136.8325">visitor.visit(this);</text><text fill="#000000" font-family="sans-serif" font-size="13" lengthAdjust="spacingAndGlyphs" textLength="8" x="321" y="151.9653">}</text><path d="M244,467 L244,764.5234 A0,0 0 0 0 244,764.5234 L638,764.5234 A0,0 0 0 0 638,764.5234 L638,477 L628,467 L488.573,467 L502.106,407.421 L480.573,467 L244,467 A0,0 0 0 0 244,467 " fill="#FBFB77" filter="url(#f18myd7pqwetrc)" style="stroke: #A80036; stroke-width: 1.0;"/><path d="M628,467 L628,477 L638,477 L628,467 " fill="#FBFB77" style="stroke: #A80036; stroke-width: 1.0;"/><text fill="#000000" font-family="sans-serif" font-size="13" lengthAdjust="spacingAndGlyphs" textLength="194" x="250" y="484.0669">void visit(Architect architect) {</text><text fill="#000000" font-family="sans-serif" font-size="13" lengthAdjust="spacingAndGlyphs" textLength="298" x="266" y="499.1997">System.out.println("Decides on architecture.");</text><text fill="#000000" font-family="sans-serif" font-size="13" lengthAdjust="spacingAndGlyphs" textLength="8" x="250" y="514.3325">}</text><text fill="#000000" font-family="sans-serif" font-size="13" lengthAdjust="spacingAndGlyphs" textLength="0" x="254" y="529.4653"/><text fill="#000000" font-family="sans-serif" font-size="13" lengthAdjust="spacingAndGlyphs" textLength="259" x="250" y="544.5981">void visit(ProductOwner productOwner) {</text><text fill="#000000" font-family="sans-serif" font-size="13" lengthAdjust="spacingAndGlyphs" textLength="357" x="266" y="559.731">System.out.prinln("Translates business requirements.");</text><text fill="#000000" font-family="sans-serif" font-size="13" lengthAdjust="spacingAndGlyphs" textLength="8" x="250" y="574.8638">}</text><text fill="#000000" font-family="sans-serif" font-size="13" lengthAdjust="spacingAndGlyphs" textLength="0" x="254" y="589.9966"/><text fill="#000000" font-family="sans-serif" font-size="13" lengthAdjust="spacingAndGlyphs" textLength="195" x="250" y="605.1294">void visit(Manager manager) {</text><text fill="#000000" font-family="sans-serif" font-size="13" lengthAdjust="spacingAndGlyphs" textLength="303" x="266" y="620.2622">System.out.prinln("Helps remove roadblocks.");</text><text fill="#000000" font-family="sans-serif" font-size="13" lengthAdjust="spacingAndGlyphs" textLength="8" x="250" y="635.395">}</text><text fill="#000000" font-family="sans-serif" font-size="13" lengthAdjust="spacingAndGlyphs" textLength="0" x="254" y="650.5278"/><text fill="#000000" font-family="sans-serif" font-size="13" lengthAdjust="spacingAndGlyphs" textLength="159" x="250" y="665.6606">void visit(Tester tester) {</text><text fill="#000000" font-family="sans-serif" font-size="13" lengthAdjust="spacingAndGlyphs" textLength="240" x="266" y="680.7935">System.out.println("Tests the code.");</text><text fill="#000000" font-family="sans-serif" font-size="13" lengthAdjust="spacingAndGlyphs" textLength="8" x="250" y="695.9263">}</text><text fill="#000000" font-family="sans-serif" font-size="13" lengthAdjust="spacingAndGlyphs" textLength="0" x="254" y="711.0591"/><text fill="#000000" font-family="sans-serif" font-size="13" lengthAdjust="spacingAndGlyphs" textLength="209" x="250" y="726.1919">void visit(Developer developer) {</text><text fill="#000000" font-family="sans-serif" font-size="13" lengthAdjust="spacingAndGlyphs" textLength="245" x="266" y="741.3247">System.out.println("Writes the code.");</text><text fill="#000000" font-family="sans-serif" font-size="13" lengthAdjust="spacingAndGlyphs" textLength="8" x="250" y="756.4575">}</text><path d="M673.75,467 L673.75,764.5234 A0,0 0 0 0 673.75,764.5234 L1064.75,764.5234 A0,0 0 0 0 1064.75,764.5234 L1064.75,477 L1054.75,467 L828.786,467 L806.996,407.421 L820.786,467 L673.75,467 A0,0 0 0 0 673.75,467 " fill="#FBFB77" filter="url(#f18myd7pqwetrc)" style="stroke: #A80036; stroke-width: 1.0;"/><path d="M1054.75,467 L1054.75,477 L1064.75,477 L1054.75,467 " fill="#FBFB77" style="stroke: #A80036; stroke-width: 1.0;"/><text fill="#000000" font-family="sans-serif" font-size="13" lengthAdjust="spacingAndGlyphs" textLength="194" x="679.75" y="484.0669">void visit(Architect architect) {</text><text fill="#000000" font-family="sans-serif" font-size="13" lengthAdjust="spacingAndGlyphs" textLength="285" x="695.75" y="499.1997">System.out.println("25+ years of required.");</text><text fill="#000000" font-family="sans-serif" font-size="13" lengthAdjust="spacingAndGlyphs" textLength="8" x="679.75" y="514.3325">}</text><text fill="#000000" font-family="sans-serif" font-size="13" lengthAdjust="spacingAndGlyphs" textLength="0" x="683.75" y="529.4653"/><text fill="#000000" font-family="sans-serif" font-size="13" lengthAdjust="spacingAndGlyphs" textLength="259" x="679.75" y="544.5981">void visit(ProductOwner productOwner) {</text><text fill="#000000" font-family="sans-serif" font-size="13" lengthAdjust="spacingAndGlyphs" textLength="354" x="695.75" y="559.731">System.out.prinln("10+ years of experience required.");</text><text fill="#000000" font-family="sans-serif" font-size="13" lengthAdjust="spacingAndGlyphs" textLength="8" x="679.75" y="574.8638">}</text><text fill="#000000" font-family="sans-serif" font-size="13" lengthAdjust="spacingAndGlyphs" textLength="0" x="683.75" y="589.9966"/><text fill="#000000" font-family="sans-serif" font-size="13" lengthAdjust="spacingAndGlyphs" textLength="195" x="679.75" y="605.1294">void visit(Manager manager) {</text><text fill="#000000" font-family="sans-serif" font-size="13" lengthAdjust="spacingAndGlyphs" textLength="354" x="695.75" y="620.2622">System.out.prinln("10+ years of experience required.");</text><text fill="#000000" font-family="sans-serif" font-size="13" lengthAdjust="spacingAndGlyphs" textLength="8" x="679.75" y="635.395">}</text><text fill="#000000" font-family="sans-serif" font-size="13" lengthAdjust="spacingAndGlyphs" textLength="0" x="683.75" y="650.5278"/><text fill="#000000" font-family="sans-serif" font-size="13" lengthAdjust="spacingAndGlyphs" textLength="159" x="679.75" y="665.6606">void visit(Tester tester) {</text><text fill="#000000" font-family="sans-serif" font-size="13" lengthAdjust="spacingAndGlyphs" textLength="295" x="695.75" y="680.7935">System.out.println("No experience required.");</text><text fill="#000000" font-family="sans-serif" font-size="13" lengthAdjust="spacingAndGlyphs" textLength="8" x="679.75" y="695.9263">}</text><text fill="#000000" font-family="sans-serif" font-size="13" lengthAdjust="spacingAndGlyphs" textLength="0" x="683.75" y="711.0591"/><text fill="#000000" font-family="sans-serif" font-size="13" lengthAdjust="spacingAndGlyphs" textLength="209" x="679.75" y="726.1919">void visit(Developer developer) {</text><text fill="#000000" font-family="sans-serif" font-size="13" lengthAdjust="spacingAndGlyphs" textLength="295" x="695.75" y="741.3247">System.out.println("No experience required.");</text><text fill="#000000" font-family="sans-serif" font-size="13" lengthAdjust="spacingAndGlyphs" textLength="8" x="679.75" y="756.4575">}</text><path d="M971.75,59.5 L971.75,190.5625 L1388.75,190.5625 L1388.75,69.5 L1378.75,59.5 L971.75,59.5 " fill="#FBFB77" filter="url(#f18myd7pqwetrc)" style="stroke: #A80036; stroke-width: 1.0;"/><path d="M1378.75,59.5 L1378.75,69.5 L1388.75,69.5 L1378.75,59.5 " fill="#FBFB77" style="stroke: #A80036; stroke-width: 1.0;"/><text fill="#000000" font-family="sans-serif" font-size="13" lengthAdjust="spacingAndGlyphs" textLength="40" x="977.75" y="76.5669">Client:</text><text fill="#000000" font-family="sans-serif" font-size="13" lengthAdjust="spacingAndGlyphs" textLength="0" x="981.75" y="91.6997"/><text fill="#000000" font-family="sans-serif" font-size="13" lengthAdjust="spacingAndGlyphs" textLength="264" x="977.75" y="106.8325">RoleVisitor roleVisitor = new RoleVisitor();</text><text fill="#000000" font-family="sans-serif" font-size="13" lengthAdjust="spacingAndGlyphs" textLength="396" x="977.75" y="121.9653">ExperienceVisitor experienceVisitor = new ExperienceVisitor();</text><text fill="#000000" font-family="sans-serif" font-size="13" lengthAdjust="spacingAndGlyphs" textLength="236" x="977.75" y="137.0981">Architect architect = new Architect();</text><text fill="#000000" font-family="sans-serif" font-size="13" lengthAdjust="spacingAndGlyphs" textLength="0" x="981.75" y="152.231"/><text fill="#000000" font-family="sans-serif" font-size="13" lengthAdjust="spacingAndGlyphs" textLength="181" x="977.75" y="167.3638">architect.accept(roleVisitor);</text><text fill="#000000" font-family="sans-serif" font-size="13" lengthAdjust="spacingAndGlyphs" textLength="227" x="977.75" y="182.4966">architect.accept(experienceVisitor);</text><!--link Visitable to Visitor--><path d="M225.539,94.229 C246.671,71.351 278.908,41.947 314.5,29 C397.199,-1.081 427.949,4.603 512.5,29 C539.524,36.798 566.375,50.958 589.842,66.051 " fill="none" id="Visitable-Visitor" style="stroke: #A80036; stroke-width: 1.0; stroke-dasharray: 7.0,7.0;"/><polygon fill="#A80036" points="594.184,68.879,588.825,60.6158,589.9941,66.1505,584.4594,67.3196,594.184,68.879" style="stroke: #A80036; stroke-width: 1.0;"/><!--link Visitable to Architect--><path d="M155.439,169.966 C128.568,196.48 95.4175,229.188 73.5432,250.771 " fill="none" id="Visitable-Architect" style="stroke: #A80036; stroke-width: 1.0; stroke-dasharray: 7.0,7.0;"/><polygon fill="none" points="150.853,164.658,170.006,155.594,160.685,174.624,150.853,164.658" style="stroke: #A80036; stroke-width: 1.0;"/><!--link Visitable to Manager--><path d="M190.951,175.6 C186.319,200.99 180.9,230.694 177.238,250.771 " fill="none" id="Visitable-Manager" style="stroke: #A80036; stroke-width: 1.0; stroke-dasharray: 7.0,7.0;"/><polygon fill="none" points="184.125,174.013,194.601,155.594,197.898,176.526,184.125,174.013" style="stroke: #A80036; stroke-width: 1.0;"/><!--link Visitable to Tester--><path d="M227.917,172.951 C243.345,198.898 261.833,229.991 274.188,250.771 " fill="none" id="Visitable-Tester" style="stroke: #A80036; stroke-width: 1.0; stroke-dasharray: 7.0,7.0;"/><polygon fill="none" points="221.801,176.363,217.597,155.594,233.835,169.207,221.801,176.363" style="stroke: #A80036; stroke-width: 1.0;"/><!--link Visitable to Developer--><path d="M257.9,167.397 C295.581,194.338 343.341,228.485 374.51,250.771 " fill="none" id="Visitable-Developer" style="stroke: #A80036; stroke-width: 1.0; stroke-dasharray: 7.0,7.0;"/><polygon fill="none" points="253.59,172.921,241.392,155.594,261.733,161.532,253.59,172.921" style="stroke: #A80036; stroke-width: 1.0;"/><!--link Visitor to RoleVisitor--><path d="M620.829,198.486 C587.922,252.487 545.051,322.839 523.182,358.727 " fill="none" id="Visitor-RoleVisitor" style="stroke: #A80036; stroke-width: 1.0; stroke-dasharray: 7.0,7.0;"/><polygon fill="none" points="614.957,194.669,631.342,181.233,626.913,201.954,614.957,194.669" style="stroke: #A80036; stroke-width: 1.0;"/><!--link Visitor to ExperienceVisitor--><path d="M703.596,199.19 C732.024,253.097 768.884,322.995 787.727,358.727 " fill="none" id="Visitor-ExperienceVisitor" style="stroke: #A80036; stroke-width: 1.0; stroke-dasharray: 7.0,7.0;"/><polygon fill="none" points="697.264,202.189,694.127,181.233,709.648,195.659,697.264,202.189" style="stroke: #A80036; stroke-width: 1.0;"/><!--
@startuml

Interface Visitable {
  void accept(Visitor visitor)
}
Class Architect {
}
Class ProductOwner {
}
Class Manager {
}
Class Tester {
}
Class Developer {
}
Interface Visitor {
  void visit(Architect architect)
  void visit(ProductOwner productOwner)
  void visit(Manager manager)
  void visit(Tester tester)
  void visit(Developer developer)
}
Class RoleVisitor {
}
Class ExperienceVisitor {
}
Visitable .> Visitor
Visitable <|.. Architect
Visitable <|.. Manager
Visitable <|.. Tester
Visitable <|.. Developer
Visitor <|... RoleVisitor
Visitor <|... ExperienceVisitor
note right of Visitable
note left of Visitable
void accept(Visitor visitor) {
    visitor.visit(this);
}
end note
note bottom of RoleVisitor
void visit(Architect architect) {
    System.out.println("Decides on architecture.");
}

void visit(ProductOwner productOwner) {
    System.out.prinln("Translates business requirements.");
}

void visit(Manager manager) {
    System.out.prinln("Helps remove roadblocks.");
}

void visit(Tester tester) {
    System.out.println("Tests the code.");
}

void visit(Developer developer) {
    System.out.println("Writes the code.");
}
end note
note bottom of ExperienceVisitor
void visit(Architect architect) {
    System.out.println("25+ years of required.");
}

void visit(ProductOwner productOwner) {
    System.out.prinln("10+ years of experience required.");
}

void visit(Manager manager) {
    System.out.prinln("10+ years of experience required.");
}

void visit(Tester tester) {
    System.out.println("No experience required.");
}

void visit(Developer developer) {
    System.out.println("No experience required.");
}
end note
note as N1
Client:

RoleVisitor roleVisitor = new RoleVisitor();
ExperienceVisitor experienceVisitor = new ExperienceVisitor();
Architect architect = new Architect();

architect.accept(roleVisitor);
architect.accept(experienceVisitor);
end note

@enduml

PlantUML version 1.2018.06(Mon May 21 06:34:53 EDT 2018)
(GPL source distribution)
Java Runtime: Java(TM) SE Runtime Environment
JVM: Java HotSpot(TM) 64-Bit Server VM
Java Version: 1.8.0_77-b03
Operating System: Linux
OS Version: 3.13.0-147-generic
Default Encoding: UTF-8
Language: en
Country: US
--></g></svg>