<?xml version="1.0" encoding="UTF-8" standalone="no"?><svg xmlns="http://www.w3.org/2000/svg" xmlns:xlink="http://www.w3.org/1999/xlink" contentScriptType="application/ecmascript" contentStyleType="text/css" height="779px" preserveAspectRatio="none" style="width:1429px;height:779px;" version="1.1" viewBox="0 0 1429 779" width="1429px" zoomAndPan="magnify"><defs><filter height="300%" id="f1nrbc2al0h76e" width="300%" x="-1" y="-1"><feGaussianBlur result="blurOut" stdDeviation="2.0"/><feColorMatrix in="blurOut" result="blurOut2" type="matrix" values="0 0 0 0 0 0 0 0 0 0 0 0 0 0 0 0 0 0 .4 0"/><feOffset dx="4.0" dy="4.0" in="blurOut2" result="blurOut3"/><feBlend in="SourceGraphic" in2="blurOut3" mode="normal"/></filter></defs><g><!--class Visitable--><rect fill="#FEFECE" filter="url(#f1nrbc2al0h76e)" height="60.8047" id="Visitable" style="stroke: #A80036; stroke-width: 1.5;" width="159" x="148.75" y="97.5"/><ellipse cx="198" cy="113.5" fill="#B4A7E5" rx="11" ry="11" style="stroke: #A80036; stroke-width: 1.0;"/><path d="M193.9219,109.2656 L193.9219,107.1094 L201.3125,107.1094 L201.3125,109.2656 L198.8438,109.2656 L198.8438,117.3438 L201.3125,117.3438 L201.3125,119.5 L193.9219,119.5 L193.9219,117.3438 L196.3906,117.3438 L196.3906,109.2656 L193.9219,109.2656 Z "/><text fill="#000000" font-family="sans-serif" font-size="12" font-style="italic" lengthAdjust="spacingAndGlyphs" textLength="52" x="218.5" y="117.6543">Visitable</text><line style="stroke: #A80036; stroke-width: 1.5;" x1="149.75" x2="306.75" y1="129.5" y2="129.5"/><line style="stroke: #A80036; stroke-width: 1.5;" x1="149.75" x2="306.75" y1="137.5" y2="137.5"/><text fill="#000000" font-family="sans-serif" font-size="11" lengthAdjust="spacingAndGlyphs" textLength="147" x="154.75" y="151.7104">void accept(Visitor visitor)</text><!--class Architect--><rect fill="#FEFECE" filter="url(#f1nrbc2al0h76e)" height="48" id="Architect" style="stroke: #A80036; stroke-width: 1.5;" width="88" x="6.5" y="254"/><ellipse cx="21.5" cy="270" fill="#ADD1B2" rx="11" ry="11" style="stroke: #A80036; stroke-width: 1.0;"/><path d="M24.4688,275.6406 Q23.8906,275.9375 23.25,276.0859 Q22.6094,276.2344 21.9063,276.2344 Q19.4063,276.2344 18.0859,274.5859 Q16.7656,272.9375 16.7656,269.8125 Q16.7656,266.6875 18.0859,265.0313 Q19.4063,263.375 21.9063,263.375 Q22.6094,263.375 23.2578,263.5313 Q23.9063,263.6875 24.4688,263.9844 L24.4688,266.7031 Q23.8438,266.125 23.25,265.8516 Q22.6563,265.5781 22.0313,265.5781 Q20.6875,265.5781 20,266.6484 Q19.3125,267.7188 19.3125,269.8125 Q19.3125,271.9063 20,272.9766 Q20.6875,274.0469 22.0313,274.0469 Q22.6563,274.0469 23.25,273.7734 Q23.8438,273.5 24.4688,272.9219 L24.4688,275.6406 Z "/><text fill="#000000" font-family="sans-serif" font-size="12" lengthAdjust="spacingAndGlyphs" textLength="56" x="35.5" y="274.1543">Architect</text><line style="stroke: #A80036; stroke-width: 1.5;" x1="7.5" x2="93.5" y1="286" y2="286"/><line style="stroke: #A80036; stroke-width: 1.5;" x1="7.5" x2="93.5" y1="294" y2="294"/><!--class ProductOwner--><rect fill="#FEFECE" filter="url(#f1nrbc2al0h76e)" height="48" id="ProductOwner" style="stroke: #A80036; stroke-width: 1.5;" width="120" x="576.5" y="104"/><ellipse cx="591.5" cy="120" fill="#ADD1B2" rx="11" ry="11" style="stroke: #A80036; stroke-width: 1.0;"/><path d="M594.4688,125.6406 Q593.8906,125.9375 593.25,126.0859 Q592.6094,126.2344 591.9063,126.2344 Q589.4063,126.2344 588.0859,124.5859 Q586.7656,122.9375 586.7656,119.8125 Q586.7656,116.6875 588.0859,115.0313 Q589.4063,113.375 591.9063,113.375 Q592.6094,113.375 593.2578,113.5313 Q593.9063,113.6875 594.4688,113.9844 L594.4688,116.7031 Q593.8438,116.125 593.25,115.8516 Q592.6563,115.5781 592.0313,115.5781 Q590.6875,115.5781 590,116.6484 Q589.3125,117.7188 589.3125,119.8125 Q589.3125,121.9063 590,122.9766 Q590.6875,124.0469 592.0313,124.0469 Q592.6563,124.0469 593.25,123.7734 Q593.8438,123.5 594.4688,122.9219 L594.4688,125.6406 Z "/><text fill="#000000" font-family="sans-serif" font-size="12" lengthAdjust="spacingAndGlyphs" textLength="88" x="605.5" y="124.1543">ProductOwner</text><line style="stroke: #A80036; stroke-width: 1.5;" x1="577.5" x2="695.5" y1="136" y2="136"/><line style="stroke: #A80036; stroke-width: 1.5;" x1="577.5" x2="695.5" y1="144" y2="144"/><!--class Manager--><rect fill="#FEFECE" filter="url(#f1nrbc2al0h76e)" height="48" id="Manager" style="stroke: #A80036; stroke-width: 1.5;" width="87" x="129.75" y="254"/><ellipse cx="144.75" cy="270" fill="#ADD1B2" rx="11" ry="11" style="stroke: #A80036; stroke-width: 1.0;"/><path d="M147.7188,275.6406 Q147.1406,275.9375 146.5,276.0859 Q145.8594,276.2344 145.1563,276.2344 Q142.6563,276.2344 141.3359,274.5859 Q140.0156,272.9375 140.0156,269.8125 Q140.0156,266.6875 141.3359,265.0313 Q142.6563,263.375 145.1563,263.375 Q145.8594,263.375 146.5078,263.5313 Q147.1563,263.6875 147.7188,263.9844 L147.7188,266.7031 Q147.0938,266.125 146.5,265.8516 Q145.9063,265.5781 145.2813,265.5781 Q143.9375,265.5781 143.25,266.6484 Q142.5625,267.7188 142.5625,269.8125 Q142.5625,271.9063 143.25,272.9766 Q143.9375,274.0469 145.2813,274.0469 Q145.9063,274.0469 146.5,273.7734 Q147.0938,273.5 147.7188,272.9219 L147.7188,275.6406 Z "/><text fill="#000000" font-family="sans-serif" font-size="12" lengthAdjust="spacingAndGlyphs" textLength="55" x="158.75" y="274.1543">Manager</text><line style="stroke: #A80036; stroke-width: 1.5;" x1="130.75" x2="215.75" y1="286" y2="286"/><line style="stroke: #A80036; stroke-width: 1.5;" x1="130.75" x2="215.75" y1="294" y2="294"/><!--class Tester--><rect fill="#FEFECE" filter="url(#f1nrbc2al0h76e)" height="48" id="Tester" style="stroke: #A80036; stroke-width: 1.5;" width="72" x="252" y="254"/><ellipse cx="267" cy="270" fill="#ADD1B2" rx="11" ry="11" style="stroke: #A80036; stroke-width: 1.0;"/><path d="M269.9688,275.6406 Q269.3906,275.9375 268.75,276.0859 Q268.1094,276.2344 267.4063,276.2344 Q264.9063,276.2344 263.5859,274.5859 Q262.2656,272.9375 262.2656,269.8125 Q262.2656,266.6875 263.5859,265.0313 Q264.9063,263.375 267.4063,263.375 Q268.1094,263.375 268.7578,263.5313 Q269.4063,263.6875 269.9688,263.9844 L269.9688,266.7031 Q269.3438,266.125 268.75,265.8516 Q268.1563,265.5781 267.5313,265.5781 Q266.1875,265.5781 265.5,266.6484 Q264.8125,267.7188 264.8125,269.8125 Q264.8125,271.9063 265.5,272.9766 Q266.1875,274.0469 267.5313,274.0469 Q268.1563,274.0469 268.75,273.7734 Q269.3438,273.5 269.9688,272.9219 L269.9688,275.6406 Z "/><text fill="#000000" font-family="sans-serif" font-size="12" lengthAdjust="spacingAndGlyphs" textLength="40" x="281" y="274.1543">Tester</text><line style="stroke: #A80036; stroke-width: 1.5;" x1="253" x2="323" y1="286" y2="286"/><line style="stroke: #A80036; stroke-width: 1.5;" x1="253" x2="323" y1="294" y2="294"/><!--class Developer--><rect fill="#FEFECE" filter="url(#f1nrbc2al0h76e)" height="48" id="Developer" style="stroke: #A80036; stroke-width: 1.5;" width="95" x="359.75" y="254"/><ellipse cx="374.75" cy="270" fill="#ADD1B2" rx="11" ry="11" style="stroke: #A80036; stroke-width: 1.0;"/><path d="M377.7188,275.6406 Q377.1406,275.9375 376.5,276.0859 Q375.8594,276.2344 375.1563,276.2344 Q372.6563,276.2344 371.3359,274.5859 Q370.0156,272.9375 370.0156,269.8125 Q370.0156,266.6875 371.3359,265.0313 Q372.6563,263.375 375.1563,263.375 Q375.8594,263.375 376.5078,263.5313 Q377.1563,263.6875 377.7188,263.9844 L377.7188,266.7031 Q377.0938,266.125 376.5,265.8516 Q375.9063,265.5781 375.2813,265.5781 Q373.9375,265.5781 373.25,266.6484 Q372.5625,267.7188 372.5625,269.8125 Q372.5625,271.9063 373.25,272.9766 Q373.9375,274.0469 375.2813,274.0469 Q375.9063,274.0469 376.5,273.7734 Q377.0938,273.5 377.7188,272.9219 L377.7188,275.6406 Z "/><text fill="#000000" font-family="sans-serif" font-size="12" lengthAdjust="spacingAndGlyphs" textLength="63" x="388.75" y="274.1543">Developer</text><line style="stroke: #A80036; stroke-width: 1.5;" x1="360.75" x2="453.75" y1="286" y2="286"/><line style="stroke: #A80036; stroke-width: 1.5;" x1="360.75" x2="453.75" y1="294" y2="294"/><!--class Visitor--><rect fill="#FEFECE" filter="url(#f1nrbc2al0h76e)" height="112.0234" id="Visitor" style="stroke: #A80036; stroke-width: 1.5;" width="234" x="731" y="72"/><ellipse cx="824.75" cy="88" fill="#B4A7E5" rx="11" ry="11" style="stroke: #A80036; stroke-width: 1.0;"/><path d="M820.6719,83.7656 L820.6719,81.6094 L828.0625,81.6094 L828.0625,83.7656 L825.5938,83.7656 L825.5938,91.8438 L828.0625,91.8438 L828.0625,94 L820.6719,94 L820.6719,91.8438 L823.1406,91.8438 L823.1406,83.7656 L820.6719,83.7656 Z "/><text fill="#000000" font-family="sans-serif" font-size="12" font-style="italic" lengthAdjust="spacingAndGlyphs" textLength="38" x="845.25" y="92.1543">Visitor</text><line style="stroke: #A80036; stroke-width: 1.5;" x1="732" x2="964" y1="104" y2="104"/><line style="stroke: #A80036; stroke-width: 1.5;" x1="732" x2="964" y1="112" y2="112"/><text fill="#000000" font-family="sans-serif" font-size="11" lengthAdjust="spacingAndGlyphs" textLength="160" x="737" y="126.2104">void visit(Architect architect)</text><text fill="#000000" font-family="sans-serif" font-size="11" lengthAdjust="spacingAndGlyphs" textLength="222" x="737" y="139.0151">void visit(ProductOwner productOwner)</text><text fill="#000000" font-family="sans-serif" font-size="11" lengthAdjust="spacingAndGlyphs" textLength="162" x="737" y="151.8198">void visit(Manager manager)</text><text fill="#000000" font-family="sans-serif" font-size="11" lengthAdjust="spacingAndGlyphs" textLength="133" x="737" y="164.6245">void visit(Tester tester)</text><text fill="#000000" font-family="sans-serif" font-size="11" lengthAdjust="spacingAndGlyphs" textLength="175" x="737" y="177.4292">void visit(Developer developer)</text><!--class RoleVisitor--><rect fill="#FEFECE" filter="url(#f1nrbc2al0h76e)" height="48" id="RoleVisitor" style="stroke: #A80036; stroke-width: 1.5;" width="98" x="533.5" y="362"/><ellipse cx="548.5" cy="378" fill="#ADD1B2" rx="11" ry="11" style="stroke: #A80036; stroke-width: 1.0;"/><path d="M551.4688,383.6406 Q550.8906,383.9375 550.25,384.0859 Q549.6094,384.2344 548.9063,384.2344 Q546.4063,384.2344 545.0859,382.5859 Q543.7656,380.9375 543.7656,377.8125 Q543.7656,374.6875 545.0859,373.0313 Q546.4063,371.375 548.9063,371.375 Q549.6094,371.375 550.2578,371.5313 Q550.9063,371.6875 551.4688,371.9844 L551.4688,374.7031 Q550.8438,374.125 550.25,373.8516 Q549.6563,373.5781 549.0313,373.5781 Q547.6875,373.5781 547,374.6484 Q546.3125,375.7188 546.3125,377.8125 Q546.3125,379.9063 547,380.9766 Q547.6875,382.0469 549.0313,382.0469 Q549.6563,382.0469 550.25,381.7734 Q550.8438,381.5 551.4688,380.9219 L551.4688,383.6406 Z "/><text fill="#000000" font-family="sans-serif" font-size="12" lengthAdjust="spacingAndGlyphs" textLength="66" x="562.5" y="382.1543">RoleVisitor</text><line style="stroke: #A80036; stroke-width: 1.5;" x1="534.5" x2="630.5" y1="394" y2="394"/><line style="stroke: #A80036; stroke-width: 1.5;" x1="534.5" x2="630.5" y1="402" y2="402"/><!--class ExperienceVisitor--><rect fill="#FEFECE" filter="url(#f1nrbc2al0h76e)" height="48" id="ExperienceVisitor" style="stroke: #A80036; stroke-width: 1.5;" width="140" x="841" y="362"/><ellipse cx="856" cy="378" fill="#ADD1B2" rx="11" ry="11" style="stroke: #A80036; stroke-width: 1.0;"/><path d="M858.9688,383.6406 Q858.3906,383.9375 857.75,384.0859 Q857.1094,384.2344 856.4063,384.2344 Q853.9063,384.2344 852.5859,382.5859 Q851.2656,380.9375 851.2656,377.8125 Q851.2656,374.6875 852.5859,373.0313 Q853.9063,371.375 856.4063,371.375 Q857.1094,371.375 857.7578,371.5313 Q858.4063,371.6875 858.9688,371.9844 L858.9688,374.7031 Q858.3438,374.125 857.75,373.8516 Q857.1563,373.5781 856.5313,373.5781 Q855.1875,373.5781 854.5,374.6484 Q853.8125,375.7188 853.8125,377.8125 Q853.8125,379.9063 854.5,380.9766 Q855.1875,382.0469 856.5313,382.0469 Q857.1563,382.0469 857.75,381.7734 Q858.3438,381.5 858.9688,380.9219 L858.9688,383.6406 Z "/><text fill="#000000" font-family="sans-serif" font-size="12" lengthAdjust="spacingAndGlyphs" textLength="108" x="870" y="382.1543">ExperienceVisitor</text><line style="stroke: #A80036; stroke-width: 1.5;" x1="842" x2="980" y1="394" y2="394"/><line style="stroke: #A80036; stroke-width: 1.5;" x1="842" x2="980" y1="402" y2="402"/><path d="M343,92.5 L343,124 L307.414,128 L343,132 L343,163.0313 A0,0 0 0 0 343,163.0313 L541,163.0313 A0,0 0 0 0 541,163.0313 L541,102.5 L531,92.5 L343,92.5 A0,0 0 0 0 343,92.5 " fill="#FBFB77" filter="url(#f1nrbc2al0h76e)" style="stroke: #A80036; stroke-width: 1.0;"/><path d="M531,92.5 L531,102.5 L541,102.5 L531,92.5 " fill="#FBFB77" style="stroke: #A80036; stroke-width: 1.0;"/><text fill="#000000" font-family="sans-serif" font-size="13" lengthAdjust="spacingAndGlyphs" textLength="127" x="349" y="109.5669">note left of Visitable</text><text fill="#000000" font-family="sans-serif" font-size="13" lengthAdjust="spacingAndGlyphs" textLength="177" x="349" y="124.6997">void accept(Visitor visitor) {</text><text fill="#000000" font-family="sans-serif" font-size="13" lengthAdjust="spacingAndGlyphs" textLength="104" x="365" y="139.8325">visitor.visit(this);</text><text fill="#000000" font-family="sans-serif" font-size="13" lengthAdjust="spacingAndGlyphs" textLength="8" x="349" y="154.9653">}</text><path d="M314,470 L314,767.5234 A0,0 0 0 0 314,767.5234 L708,767.5234 A0,0 0 0 0 708,767.5234 L708,480 L698,470 L560.495,470 L574.801,410.421 L552.495,470 L314,470 A0,0 0 0 0 314,470 " fill="#FBFB77" filter="url(#f1nrbc2al0h76e)" style="stroke: #A80036; stroke-width: 1.0;"/><path d="M698,470 L698,480 L708,480 L698,470 " fill="#FBFB77" style="stroke: #A80036; stroke-width: 1.0;"/><text fill="#000000" font-family="sans-serif" font-size="13" lengthAdjust="spacingAndGlyphs" textLength="194" x="320" y="487.0669">void visit(Architect architect) {</text><text fill="#000000" font-family="sans-serif" font-size="13" lengthAdjust="spacingAndGlyphs" textLength="298" x="336" y="502.1997">System.out.println("Decides on architecture.");</text><text fill="#000000" font-family="sans-serif" font-size="13" lengthAdjust="spacingAndGlyphs" textLength="8" x="320" y="517.3325">}</text><text fill="#000000" font-family="sans-serif" font-size="13" lengthAdjust="spacingAndGlyphs" textLength="0" x="324" y="532.4653"/><text fill="#000000" font-family="sans-serif" font-size="13" lengthAdjust="spacingAndGlyphs" textLength="259" x="320" y="547.5981">void visit(ProductOwner productOwner) {</text><text fill="#000000" font-family="sans-serif" font-size="13" lengthAdjust="spacingAndGlyphs" textLength="357" x="336" y="562.731">System.out.prinln("Translates business requirements.");</text><text fill="#000000" font-family="sans-serif" font-size="13" lengthAdjust="spacingAndGlyphs" textLength="8" x="320" y="577.8638">}</text><text fill="#000000" font-family="sans-serif" font-size="13" lengthAdjust="spacingAndGlyphs" textLength="0" x="324" y="592.9966"/><text fill="#000000" font-family="sans-serif" font-size="13" lengthAdjust="spacingAndGlyphs" textLength="195" x="320" y="608.1294">void visit(Manager manager) {</text><text fill="#000000" font-family="sans-serif" font-size="13" lengthAdjust="spacingAndGlyphs" textLength="303" x="336" y="623.2622">System.out.prinln("Helps remove roadblocks.");</text><text fill="#000000" font-family="sans-serif" font-size="13" lengthAdjust="spacingAndGlyphs" textLength="8" x="320" y="638.395">}</text><text fill="#000000" font-family="sans-serif" font-size="13" lengthAdjust="spacingAndGlyphs" textLength="0" x="324" y="653.5278"/><text fill="#000000" font-family="sans-serif" font-size="13" lengthAdjust="spacingAndGlyphs" textLength="159" x="320" y="668.6606">void visit(Tester tester) {</text><text fill="#000000" font-family="sans-serif" font-size="13" lengthAdjust="spacingAndGlyphs" textLength="240" x="336" y="683.7935">System.out.println("Tests the code.");</text><text fill="#000000" font-family="sans-serif" font-size="13" lengthAdjust="spacingAndGlyphs" textLength="8" x="320" y="698.9263">}</text><text fill="#000000" font-family="sans-serif" font-size="13" lengthAdjust="spacingAndGlyphs" textLength="0" x="324" y="714.0591"/><text fill="#000000" font-family="sans-serif" font-size="13" lengthAdjust="spacingAndGlyphs" textLength="209" x="320" y="729.1919">void visit(Developer developer) {</text><text fill="#000000" font-family="sans-serif" font-size="13" lengthAdjust="spacingAndGlyphs" textLength="245" x="336" y="744.3247">System.out.println("Writes the code.");</text><text fill="#000000" font-family="sans-serif" font-size="13" lengthAdjust="spacingAndGlyphs" textLength="8" x="320" y="759.4575">}</text><path d="M743.75,470 L743.75,767.5234 A0,0 0 0 0 743.75,767.5234 L1134.75,767.5234 A0,0 0 0 0 1134.75,767.5234 L1134.75,480 L1124.75,470 L925.058,470 L913.839,410.421 L917.058,470 L743.75,470 A0,0 0 0 0 743.75,470 " fill="#FBFB77" filter="url(#f1nrbc2al0h76e)" style="stroke: #A80036; stroke-width: 1.0;"/><path d="M1124.75,470 L1124.75,480 L1134.75,480 L1124.75,470 " fill="#FBFB77" style="stroke: #A80036; stroke-width: 1.0;"/><text fill="#000000" font-family="sans-serif" font-size="13" lengthAdjust="spacingAndGlyphs" textLength="194" x="749.75" y="487.0669">void visit(Architect architect) {</text><text fill="#000000" font-family="sans-serif" font-size="13" lengthAdjust="spacingAndGlyphs" textLength="285" x="765.75" y="502.1997">System.out.println("25+ years of required.");</text><text fill="#000000" font-family="sans-serif" font-size="13" lengthAdjust="spacingAndGlyphs" textLength="8" x="749.75" y="517.3325">}</text><text fill="#000000" font-family="sans-serif" font-size="13" lengthAdjust="spacingAndGlyphs" textLength="0" x="753.75" y="532.4653"/><text fill="#000000" font-family="sans-serif" font-size="13" lengthAdjust="spacingAndGlyphs" textLength="259" x="749.75" y="547.5981">void visit(ProductOwner productOwner) {</text><text fill="#000000" font-family="sans-serif" font-size="13" lengthAdjust="spacingAndGlyphs" textLength="354" x="765.75" y="562.731">System.out.prinln("10+ years of experience required.");</text><text fill="#000000" font-family="sans-serif" font-size="13" lengthAdjust="spacingAndGlyphs" textLength="8" x="749.75" y="577.8638">}</text><text fill="#000000" font-family="sans-serif" font-size="13" lengthAdjust="spacingAndGlyphs" textLength="0" x="753.75" y="592.9966"/><text fill="#000000" font-family="sans-serif" font-size="13" lengthAdjust="spacingAndGlyphs" textLength="195" x="749.75" y="608.1294">void visit(Manager manager) {</text><text fill="#000000" font-family="sans-serif" font-size="13" lengthAdjust="spacingAndGlyphs" textLength="354" x="765.75" y="623.2622">System.out.prinln("10+ years of experience required.");</text><text fill="#000000" font-family="sans-serif" font-size="13" lengthAdjust="spacingAndGlyphs" textLength="8" x="749.75" y="638.395">}</text><text fill="#000000" font-family="sans-serif" font-size="13" lengthAdjust="spacingAndGlyphs" textLength="0" x="753.75" y="653.5278"/><text fill="#000000" font-family="sans-serif" font-size="13" lengthAdjust="spacingAndGlyphs" textLength="159" x="749.75" y="668.6606">void visit(Tester tester) {</text><text fill="#000000" font-family="sans-serif" font-size="13" lengthAdjust="spacingAndGlyphs" textLength="295" x="765.75" y="683.7935">System.out.println("No experience required.");</text><text fill="#000000" font-family="sans-serif" font-size="13" lengthAdjust="spacingAndGlyphs" textLength="8" x="749.75" y="698.9263">}</text><text fill="#000000" font-family="sans-serif" font-size="13" lengthAdjust="spacingAndGlyphs" textLength="0" x="753.75" y="714.0591"/><text fill="#000000" font-family="sans-serif" font-size="13" lengthAdjust="spacingAndGlyphs" textLength="209" x="749.75" y="729.1919">void visit(Developer developer) {</text><text fill="#000000" font-family="sans-serif" font-size="13" lengthAdjust="spacingAndGlyphs" textLength="295" x="765.75" y="744.3247">System.out.println("No experience required.");</text><text fill="#000000" font-family="sans-serif" font-size="13" lengthAdjust="spacingAndGlyphs" textLength="8" x="749.75" y="759.4575">}</text><path d="M1000.75,62.5 L1000.75,193.5625 L1417.75,193.5625 L1417.75,72.5 L1407.75,62.5 L1000.75,62.5 " fill="#FBFB77" filter="url(#f1nrbc2al0h76e)" style="stroke: #A80036; stroke-width: 1.0;"/><path d="M1407.75,62.5 L1407.75,72.5 L1417.75,72.5 L1407.75,62.5 " fill="#FBFB77" style="stroke: #A80036; stroke-width: 1.0;"/><text fill="#000000" font-family="sans-serif" font-size="13" lengthAdjust="spacingAndGlyphs" textLength="40" x="1006.75" y="79.5669">Client:</text><text fill="#000000" font-family="sans-serif" font-size="13" lengthAdjust="spacingAndGlyphs" textLength="0" x="1010.75" y="94.6997"/><text fill="#000000" font-family="sans-serif" font-size="13" lengthAdjust="spacingAndGlyphs" textLength="264" x="1006.75" y="109.8325">RoleVisitor roleVisitor = new RoleVisitor();</text><text fill="#000000" font-family="sans-serif" font-size="13" lengthAdjust="spacingAndGlyphs" textLength="396" x="1006.75" y="124.9653">ExperienceVisitor experienceVisitor = new ExperienceVisitor();</text><text fill="#000000" font-family="sans-serif" font-size="13" lengthAdjust="spacingAndGlyphs" textLength="236" x="1006.75" y="140.0981">Architect architect = new Architect();</text><text fill="#000000" font-family="sans-serif" font-size="13" lengthAdjust="spacingAndGlyphs" textLength="0" x="1010.75" y="155.231"/><text fill="#000000" font-family="sans-serif" font-size="13" lengthAdjust="spacingAndGlyphs" textLength="181" x="1006.75" y="170.3638">architect.accept(roleVisitor);</text><text fill="#000000" font-family="sans-serif" font-size="13" lengthAdjust="spacingAndGlyphs" textLength="227" x="1006.75" y="185.4966">architect.accept(experienceVisitor);</text><!--link Visitable to Visitor--><path d="M253.539,97.229 C274.671,74.351 306.908,44.947 342.5,32 C416.01,5.261 619.312,10.424 694.5,32 C721.662,39.794 748.678,53.954 772.3,69.047 " fill="none" id="Visitable-Visitor" style="stroke: #A80036; stroke-width: 1.0; stroke-dasharray: 7.0,7.0;"/><polygon fill="#A80036" points="776.671,71.875,771.2885,63.6271,772.4733,69.1584,766.942,70.3433,776.671,71.875" style="stroke: #A80036; stroke-width: 1.0;"/><!--link Visitable to Architect--><path d="M176.893,171.493 C144.702,198.259 104.3784,231.787 77.9379,253.771 " fill="none" id="Visitable-Architect" style="stroke: #A80036; stroke-width: 1.0; stroke-dasharray: 7.0,7.0;"/><polygon fill="none" points="172.553,165.999,192.407,158.594,181.504,176.764,172.553,165.999" style="stroke: #A80036; stroke-width: 1.0;"/><!--link Visitable to ProductOwner--><path d="M267.726,82.672 C287.906,63.084 314.137,42.317 342.5,32 C425.199,1.919 459.243,-1.782 540.5,32 C575.232,46.44 603.854,80.33 620.436,103.717 " fill="none" id="Visitable-ProductOwner" style="stroke: #A80036; stroke-width: 1.0; stroke-dasharray: 7.0,7.0;"/><polygon fill="none" points="272.511,87.792,253.539,97.229,262.485,78.021,272.511,87.792" style="stroke: #A80036; stroke-width: 1.0;"/><!--link Visitable to Manager--><path d="M209.991,177.461 C200.464,203.096 189.205,233.393 181.632,253.771 " fill="none" id="Visitable-Manager" style="stroke: #A80036; stroke-width: 1.0; stroke-dasharray: 7.0,7.0;"/><polygon fill="none" points="203.474,174.903,217.002,158.594,216.597,179.78,203.474,174.903" style="stroke: #A80036; stroke-width: 1.0;"/><!--link Visitable to Tester--><path d="M247.646,177.461 C258.039,203.096 270.321,233.393 278.583,253.771 " fill="none" id="Visitable-Tester" style="stroke: #A80036; stroke-width: 1.0; stroke-dasharray: 7.0,7.0;"/><polygon fill="none" points="241.025,179.759,239.998,158.594,253.999,174.499,241.025,179.759" style="stroke: #A80036; stroke-width: 1.0;"/><!--link Visitable to Developer--><path d="M279.394,171.493 C311.766,198.259 352.316,231.787 378.905,253.771 " fill="none" id="Visitable-Developer" style="stroke: #A80036; stroke-width: 1.0; stroke-dasharray: 7.0,7.0;"/><polygon fill="none" points="274.746,176.733,263.793,158.594,283.667,165.944,274.746,176.733" style="stroke: #A80036; stroke-width: 1.0;"/><!--link Visitor to RoleVisitor--><path d="M775.949,198.343 C719.439,252.727 644.2,325.138 606.182,361.727 " fill="none" id="Visitor-RoleVisitor" style="stroke: #A80036; stroke-width: 1.0; stroke-dasharray: 7.0,7.0;"/><polygon fill="none" points="771.345,193.058,790.609,184.233,781.053,203.145,771.345,193.058" style="stroke: #A80036; stroke-width: 1.0;"/><!--link Visitor to ExperienceVisitor--><path d="M866.447,203.957 C879.652,257.616 896.575,326.384 905.273,361.727 " fill="none" id="Visitor-ExperienceVisitor" style="stroke: #A80036; stroke-width: 1.0; stroke-dasharray: 7.0,7.0;"/><polygon fill="none" points="859.575,205.326,861.592,184.233,873.169,201.981,859.575,205.326" style="stroke: #A80036; stroke-width: 1.0;"/><!--
@startuml

Interface Visitable {
  void accept(Visitor visitor)
}
Class Architect {
}
Class ProductOwner {
}
Class Manager {
}
Class Tester {
}
Class Developer {
}
Interface Visitor {
  void visit(Architect architect)
  void visit(ProductOwner productOwner)
  void visit(Manager manager)
  void visit(Tester tester)
  void visit(Developer developer)
}
Class RoleVisitor {
}
Class ExperienceVisitor {
}
Visitable .> Visitor
Visitable <|.. Architect
Visitable <|. ProductOwner
Visitable <|.. Manager
Visitable <|.. Tester
Visitable <|.. Developer
Visitor <|... RoleVisitor
Visitor <|... ExperienceVisitor
note right of Visitable
note left of Visitable
void accept(Visitor visitor) {
    visitor.visit(this);
}
end note
note bottom of RoleVisitor
void visit(Architect architect) {
    System.out.println("Decides on architecture.");
}

void visit(ProductOwner productOwner) {
    System.out.prinln("Translates business requirements.");
}

void visit(Manager manager) {
    System.out.prinln("Helps remove roadblocks.");
}

void visit(Tester tester) {
    System.out.println("Tests the code.");
}

void visit(Developer developer) {
    System.out.println("Writes the code.");
}
end note
note bottom of ExperienceVisitor
void visit(Architect architect) {
    System.out.println("25+ years of required.");
}

void visit(ProductOwner productOwner) {
    System.out.prinln("10+ years of experience required.");
}

void visit(Manager manager) {
    System.out.prinln("10+ years of experience required.");
}

void visit(Tester tester) {
    System.out.println("No experience required.");
}

void visit(Developer developer) {
    System.out.println("No experience required.");
}
end note
note as N1
Client:

RoleVisitor roleVisitor = new RoleVisitor();
ExperienceVisitor experienceVisitor = new ExperienceVisitor();
Architect architect = new Architect();

architect.accept(roleVisitor);
architect.accept(experienceVisitor);
end note

@enduml

PlantUML version 1.2018.06(Mon May 21 06:34:53 EDT 2018)
(GPL source distribution)
Java Runtime: Java(TM) SE Runtime Environment
JVM: Java HotSpot(TM) 64-Bit Server VM
Java Version: 1.8.0_77-b03
Operating System: Linux
OS Version: 3.13.0-147-generic
Default Encoding: UTF-8
Language: en
Country: US
--></g></svg>